<svg width="10" height="10" viewBox="0 0 10 10" fill="none" xmlns="http://www.w3.org/2000/svg">
<path d="M1.07312 1.07207C1.26833 0.877009 1.58492 0.877031 1.78016 1.07207L5.00086 4.29179L8.22059 1.07304C8.41582 0.877847 8.73236 0.877894 8.92762 1.07304C9.12286 1.26831 9.12287 1.58482 8.92762 1.78007L5.70789 4.99882L8.92762 8.21855C9.12284 8.41375 9.12271 8.73029 8.92762 8.92558C8.73236 9.12075 8.41582 9.1208 8.22059 8.92558L5.00086 5.70585L1.78016 8.92656C1.58488 9.12181 1.26838 9.12183 1.07312 8.92656C0.878033 8.73127 0.877905 8.41472 1.07312 8.21953L4.29285 4.99882L1.07312 1.7791C0.878062 1.58388 0.878071 1.2673 1.07312 1.07207Z" fill="#999999"/>
</svg>
