<svg width="176" height="40" viewBox="0 0 176 40" fill="none" xmlns="http://www.w3.org/2000/svg">
<g filter="url(#filter0_i_4723_1280)">
<path d="M0 20C0 8.95431 8.9543 0 20 0H156C167.046 0 176 8.95431 176 20C176 31.0457 167.046 40 156 40H20C8.95431 40 0 31.0457 0 20Z" fill="url(#paint0_linear_4723_1280)"/>
</g>
<path d="M20 0.5H156C166.77 0.5 175.5 9.23045 175.5 20C175.5 30.7696 166.77 39.5 156 39.5H20C9.23045 39.5 0.5 30.7696 0.5 20C0.5 9.23045 9.23045 0.5 20 0.5Z" stroke="#6400FF"/>
<defs>
<filter id="filter0_i_4723_1280" x="0" y="-14" width="176" height="54" filterUnits="userSpaceOnUse" color-interpolation-filters="sRGB">
<feFlood flood-opacity="0" result="BackgroundImageFix"/>
<feBlend mode="normal" in="SourceGraphic" in2="BackgroundImageFix" result="shape"/>
<feColorMatrix in="SourceAlpha" type="matrix" values="0 0 0 0 0 0 0 0 0 0 0 0 0 0 0 0 0 0 127 0" result="hardAlpha"/>
<feOffset dy="-14"/>
<feGaussianBlur stdDeviation="9.5"/>
<feComposite in2="hardAlpha" operator="arithmetic" k2="-1" k3="1"/>
<feColorMatrix type="matrix" values="0 0 0 0 0.514863 0 0 0 0 0.201871 0 0 0 0 1 0 0 0 0.14 0"/>
<feBlend mode="normal" in2="shape" result="effect1_innerShadow_4723_1280"/>
</filter>
<linearGradient id="paint0_linear_4723_1280" x1="400.627" y1="4.5" x2="400.627" y2="36.5" gradientUnits="userSpaceOnUse">
<stop stop-color="#0D0616"/>
<stop offset="1" stop-color="#1D0A35"/>
</linearGradient>
</defs>
</svg>
