<svg width="280" height="240" viewBox="0 0 280 240" fill="none" xmlns="http://www.w3.org/2000/svg">
<mask id="mask0_4115_2929" style="mask-type:alpha" maskUnits="userSpaceOnUse" x="0" y="0" width="280" height="240">
<rect width="280" height="240" fill="#D9D9D9"/>
</mask>
<g mask="url(#mask0_4115_2929)">
<path d="M37 83.7508C37 83.1596 37.2615 82.5987 37.7144 82.2187L59.7144 63.7572C61.0158 62.6651 63 63.5903 63 65.2892V167C63 168.105 62.1046 169 61 169H39C37.8954 169 37 168.105 37 167V83.7508Z" fill="url(#paint0_linear_4115_2929)"/>
<path d="M147 12C148.105 12 149 12.8954 149 14V154C149 155.105 148.105 156 147 156H111C109.964 156 109.113 155.213 109.011 154.204L109 154C109 155.105 108.105 156 107 156H61C59.8954 156 59 155.105 59 154V48C59 46.8954 59.8954 46 61 46H107C108.105 46 109 46.8954 109 48V14C109 12.8954 109.895 12 111 12H147ZM102 26C103.105 26 104 26.8954 104 28V40C104 41.1046 103.105 42 102 42H66C64.8954 42 64 41.1046 64 40V28C64 26.8954 64.8954 26 66 26H102Z" fill="url(#paint1_linear_4115_2929)"/>
<rect x="188" y="46" width="30" height="144" rx="2" fill="url(#paint2_linear_4115_2929)"/>
<rect x="195" y="40" width="16" height="144" rx="2" fill="url(#paint3_linear_4115_2929)"/>
<path d="M219 82C219 80.8954 219.895 80 221 80H237C238.105 80 239 80.8954 239 82V194C239 195.105 238.105 196 237 196H221C219.895 196 219 195.105 219 194V82Z" fill="url(#paint4_linear_4115_2929)"/>
<rect x="183" y="52" width="40" height="144" rx="2" fill="url(#paint5_linear_4115_2929)"/>
<ellipse cx="140" cy="200" rx="140" ry="40" fill="url(#paint6_linear_4115_2929)"/>
<g opacity="0.5" filter="url(#filter0_f_4115_2929)">
<ellipse cx="140" cy="188" rx="70" ry="6" fill="#33254E"/>
</g>
<mask id="mask1_4115_2929" style="mask-type:alpha" maskUnits="userSpaceOnUse" x="70" y="55" width="140" height="140">
<rect x="70" y="55" width="140" height="140" fill="#D9D9D9"/>
</mask>
<g mask="url(#mask1_4115_2929)">
<g filter="url(#filter1_i_4115_2929)">
<rect x="95.8457" y="102.385" width="101.231" height="75.3846" rx="10" fill="url(#paint7_linear_4115_2929)"/>
</g>
<rect x="96.0957" y="102.635" width="100.731" height="74.8846" rx="9.75" stroke="url(#paint8_linear_4115_2929)" stroke-opacity="0.5" stroke-width="0.5"/>
<g filter="url(#filter2_d_4115_2929)">
<ellipse cx="113.428" cy="106.092" rx="20.4018" ry="21.1044" transform="rotate(4.50752 113.428 106.092)" fill="url(#paint9_linear_4115_2929)"/>
<ellipse cx="111.405" cy="105.641" rx="20.4018" ry="21.1044" transform="rotate(4.50752 111.405 105.641)" fill="url(#paint10_linear_4115_2929)"/>
<path d="M113.024 85.0998C123.965 85.9624 132.141 95.8444 131.245 107.205C130.349 118.565 120.727 127.044 109.785 126.181C98.8435 125.319 90.6689 115.437 91.5645 104.077C92.46 92.7164 102.082 84.2375 113.024 85.0998Z" stroke="white" stroke-opacity="0.3"/>
<g filter="url(#filter3_i_4115_2929)">
<ellipse cx="111.405" cy="105.642" rx="15.8272" ry="16.3723" transform="rotate(4.50752 111.405 105.642)" fill="url(#paint11_linear_4115_2929)"/>
</g>
<path d="M112.672 89.5693C121.24 90.2447 127.634 97.9812 126.934 106.866C126.233 115.75 118.706 122.389 110.138 121.714C101.569 121.038 95.1752 113.302 95.8756 104.417C96.5761 95.5328 104.103 88.8938 112.672 89.5693Z" stroke="white" stroke-opacity="0.5" stroke-width="0.5"/>
</g>
<g filter="url(#filter4_d_4115_2929)">
<ellipse cx="175.909" cy="105.215" rx="22.5591" ry="23.336" transform="rotate(4.50752 175.909 105.215)" fill="url(#paint12_linear_4115_2929)"/>
<ellipse cx="173.672" cy="104.713" rx="22.5591" ry="23.336" transform="rotate(4.50752 173.672 104.713)" fill="url(#paint13_linear_4115_2929)"/>
<path d="M175.467 81.9472C187.596 82.9036 196.655 93.8572 195.663 106.446C194.67 119.035 184.007 128.434 171.878 127.478C159.748 126.522 150.689 115.568 151.681 102.979C152.674 90.3899 163.338 80.991 175.467 81.9472Z" stroke="white" stroke-opacity="0.3"/>
<g filter="url(#filter5_i_4115_2929)">
<ellipse cx="173.672" cy="104.714" rx="17.0239" ry="17.6101" transform="rotate(4.50752 173.672 104.714)" fill="url(#paint14_linear_4115_2929)"/>
</g>
<path d="M175.036 87.4074C184.264 88.1348 191.148 96.4663 190.394 106.032C189.64 115.598 181.535 122.748 172.307 122.021C163.08 121.293 156.196 112.962 156.95 103.396C157.704 93.8299 165.809 86.6802 175.036 87.4074Z" stroke="white" stroke-opacity="0.5" stroke-width="0.5"/>
</g>
<g filter="url(#filter6_d_4115_2929)">
<ellipse cx="140.803" cy="92.358" rx="24.4395" ry="25.2812" transform="rotate(4.50752 140.803 92.358)" fill="url(#paint15_linear_4115_2929)"/>
<ellipse cx="138.379" cy="91.8151" rx="24.4395" ry="25.2812" transform="rotate(4.50752 138.379 91.8151)" fill="url(#paint16_linear_4115_2929)"/>
<path d="M140.327 67.1106C153.491 68.1484 163.321 80.0366 162.244 93.6966C161.167 107.356 149.596 117.558 136.431 116.52C123.267 115.482 113.437 103.594 114.514 89.9338C115.59 76.2738 127.162 66.0728 140.327 67.1106Z" stroke="white" stroke-opacity="0.3"/>
<g filter="url(#filter7_i_4115_2929)">
<ellipse cx="138.378" cy="91.8161" rx="19.351" ry="20.0174" transform="rotate(4.50752 138.378 91.8161)" fill="url(#paint17_linear_4115_2929)"/>
</g>
<path d="M139.931 72.1098C150.44 72.9383 158.279 82.426 157.42 93.3175C156.561 104.209 147.333 112.351 136.824 111.523C126.316 110.694 118.478 101.206 119.336 90.3152C120.195 79.4238 129.423 71.2816 139.931 72.1098Z" stroke="white" stroke-opacity="0.5" stroke-width="0.5"/>
</g>
<g filter="url(#filter8_i_4115_2929)">
<rect x="82.9229" y="102.385" width="107.692" height="75.3846" rx="10" fill="url(#paint18_linear_4115_2929)"/>
</g>
<rect x="83.1729" y="102.635" width="107.192" height="74.8846" rx="9.75" stroke="url(#paint19_linear_4115_2929)" stroke-width="0.5"/>
<path d="M171.23 127.404H197.385C199.456 127.404 201.135 129.083 201.135 131.154V149C201.135 151.071 199.456 152.75 197.385 152.75H171.23C164.231 152.75 158.558 147.076 158.558 140.077C158.558 133.188 164.056 127.582 170.903 127.408L171.23 127.404Z" fill="url(#paint20_linear_4115_2929)" stroke="url(#paint21_linear_4115_2929)" stroke-width="0.5"/>
<circle cx="171.23" cy="140.076" r="5.38462" fill="url(#paint22_linear_4115_2929)"/>
</g>
<rect x="27.1621" y="197.623" width="3.09434" height="12.3774" rx="1.54717" fill="url(#paint23_linear_4115_2929)"/>
<path d="M28.7093 169L37.4186 198.009L28.7093 204.198L20 198.009L28.7093 169Z" fill="url(#paint24_linear_4115_2929)"/>
<path d="M28.7103 169V204.198L20.001 198.009L28.7103 169Z" fill="url(#paint25_linear_4115_2929)"/>
<rect x="53.1201" y="165.459" width="2.21186" height="8.84745" rx="1.10593" fill="url(#paint26_linear_4115_2929)"/>
<path d="M54.2255 145L60.4509 165.736L54.2255 170.16L48 165.736L54.2255 145Z" fill="url(#paint27_linear_4115_2929)"/>
<path d="M54.2264 145V170.16L48.001 165.736L54.2264 145Z" fill="url(#paint28_linear_4115_2929)"/>
<rect x="249.402" y="184.516" width="3.19763" height="12.7905" rx="1.59882" fill="url(#paint29_linear_4115_2929)"/>
<path d="M251 154.936L260.001 184.915L251 191.311L242 184.915L251 154.936Z" fill="url(#paint30_linear_4115_2929)"/>
<path d="M251.001 154.936V191.311L242.001 184.915L251.001 154.936Z" fill="url(#paint31_linear_4115_2929)"/>
</g>
<defs>
<filter id="filter0_f_4115_2929" x="66" y="178" width="148" height="20" filterUnits="userSpaceOnUse" color-interpolation-filters="sRGB">
<feFlood flood-opacity="0" result="BackgroundImageFix"/>
<feBlend mode="normal" in="SourceGraphic" in2="BackgroundImageFix" result="shape"/>
<feGaussianBlur stdDeviation="2" result="effect1_foregroundBlur_4115_2929"/>
</filter>
<filter id="filter1_i_4115_2929" x="95.8457" y="102.385" width="101.23" height="75.3848" filterUnits="userSpaceOnUse" color-interpolation-filters="sRGB">
<feFlood flood-opacity="0" result="BackgroundImageFix"/>
<feBlend mode="normal" in="SourceGraphic" in2="BackgroundImageFix" result="shape"/>
<feColorMatrix in="SourceAlpha" type="matrix" values="0 0 0 0 0 0 0 0 0 0 0 0 0 0 0 0 0 0 127 0" result="hardAlpha"/>
<feOffset dx="-2"/>
<feComposite in2="hardAlpha" operator="arithmetic" k2="-1" k3="1"/>
<feColorMatrix type="matrix" values="0 0 0 0 0 0 0 0 0 0 0 0 0 0 0 0 0 0 0.25 0"/>
<feBlend mode="normal" in2="shape" result="effect1_innerShadow_4115_2929"/>
</filter>
<filter id="filter2_d_4115_2929" x="80.9971" y="78.5391" width="62.8379" height="62.6543" filterUnits="userSpaceOnUse" color-interpolation-filters="sRGB">
<feFlood flood-opacity="0" result="BackgroundImageFix"/>
<feColorMatrix in="SourceAlpha" type="matrix" values="0 0 0 0 0 0 0 0 0 0 0 0 0 0 0 0 0 0 127 0" result="hardAlpha"/>
<feOffset dy="4"/>
<feGaussianBlur stdDeviation="5"/>
<feComposite in2="hardAlpha" operator="out"/>
<feColorMatrix type="matrix" values="0 0 0 0 0.0352941 0 0 0 0 0.00392157 0 0 0 0 0.0862745 0 0 0 0.5 0"/>
<feBlend mode="normal" in2="BackgroundImageFix" result="effect1_dropShadow_4115_2929"/>
<feBlend mode="normal" in="SourceGraphic" in2="effect1_dropShadow_4115_2929" result="shape"/>
</filter>
<filter id="filter3_i_4115_2929" x="95.5732" y="89.2715" width="32.6631" height="33.7402" filterUnits="userSpaceOnUse" color-interpolation-filters="sRGB">
<feFlood flood-opacity="0" result="BackgroundImageFix"/>
<feBlend mode="normal" in="SourceGraphic" in2="BackgroundImageFix" result="shape"/>
<feColorMatrix in="SourceAlpha" type="matrix" values="0 0 0 0 0 0 0 0 0 0 0 0 0 0 0 0 0 0 127 0" result="hardAlpha"/>
<feOffset dx="3" dy="1"/>
<feGaussianBlur stdDeviation="0.5"/>
<feComposite in2="hardAlpha" operator="arithmetic" k2="-1" k3="1"/>
<feColorMatrix type="matrix" values="0 0 0 0 0.203922 0 0 0 0 0.00392157 0 0 0 0 0.505882 0 0 0 0.3 0"/>
<feBlend mode="normal" in2="shape" result="effect1_innerShadow_4115_2929"/>
</filter>
<filter id="filter4_d_4115_2929" x="141.106" y="75.3809" width="67.3682" height="67.166" filterUnits="userSpaceOnUse" color-interpolation-filters="sRGB">
<feFlood flood-opacity="0" result="BackgroundImageFix"/>
<feColorMatrix in="SourceAlpha" type="matrix" values="0 0 0 0 0 0 0 0 0 0 0 0 0 0 0 0 0 0 127 0" result="hardAlpha"/>
<feOffset dy="4"/>
<feGaussianBlur stdDeviation="5"/>
<feComposite in2="hardAlpha" operator="out"/>
<feColorMatrix type="matrix" values="0 0 0 0 0.0352941 0 0 0 0 0.00392157 0 0 0 0 0.0862745 0 0 0 0.5 0"/>
<feBlend mode="normal" in2="BackgroundImageFix" result="effect1_dropShadow_4115_2929"/>
<feBlend mode="normal" in="SourceGraphic" in2="effect1_dropShadow_4115_2929" result="shape"/>
</filter>
<filter id="filter5_i_4115_2929" x="156.644" y="87.1074" width="35.0566" height="36.2148" filterUnits="userSpaceOnUse" color-interpolation-filters="sRGB">
<feFlood flood-opacity="0" result="BackgroundImageFix"/>
<feBlend mode="normal" in="SourceGraphic" in2="BackgroundImageFix" result="shape"/>
<feColorMatrix in="SourceAlpha" type="matrix" values="0 0 0 0 0 0 0 0 0 0 0 0 0 0 0 0 0 0 127 0" result="hardAlpha"/>
<feOffset dx="3" dy="1"/>
<feGaussianBlur stdDeviation="0.5"/>
<feComposite in2="hardAlpha" operator="arithmetic" k2="-1" k3="1"/>
<feColorMatrix type="matrix" values="0 0 0 0 0.203922 0 0 0 0 0.00392157 0 0 0 0 0.505882 0 0 0 0.3 0"/>
<feBlend mode="normal" in2="shape" result="effect1_innerShadow_4115_2929"/>
</filter>
<filter id="filter6_d_4115_2929" x="103.933" y="60.5371" width="71.3164" height="71.0977" filterUnits="userSpaceOnUse" color-interpolation-filters="sRGB">
<feFlood flood-opacity="0" result="BackgroundImageFix"/>
<feColorMatrix in="SourceAlpha" type="matrix" values="0 0 0 0 0 0 0 0 0 0 0 0 0 0 0 0 0 0 127 0" result="hardAlpha"/>
<feOffset dy="4"/>
<feGaussianBlur stdDeviation="5"/>
<feComposite in2="hardAlpha" operator="out"/>
<feColorMatrix type="matrix" values="0 0 0 0 0.0352941 0 0 0 0 0.00392157 0 0 0 0 0.0862745 0 0 0 0.5 0"/>
<feBlend mode="normal" in2="BackgroundImageFix" result="effect1_dropShadow_4115_2929"/>
<feBlend mode="normal" in="SourceGraphic" in2="effect1_dropShadow_4115_2929" result="shape"/>
</filter>
<filter id="filter7_i_4115_2929" x="119.021" y="71.8027" width="39.7129" height="41.0273" filterUnits="userSpaceOnUse" color-interpolation-filters="sRGB">
<feFlood flood-opacity="0" result="BackgroundImageFix"/>
<feBlend mode="normal" in="SourceGraphic" in2="BackgroundImageFix" result="shape"/>
<feColorMatrix in="SourceAlpha" type="matrix" values="0 0 0 0 0 0 0 0 0 0 0 0 0 0 0 0 0 0 127 0" result="hardAlpha"/>
<feOffset dx="3" dy="1"/>
<feGaussianBlur stdDeviation="0.5"/>
<feComposite in2="hardAlpha" operator="arithmetic" k2="-1" k3="1"/>
<feColorMatrix type="matrix" values="0 0 0 0 0.203922 0 0 0 0 0.00392157 0 0 0 0 0.505882 0 0 0 0.3 0"/>
<feBlend mode="normal" in2="shape" result="effect1_innerShadow_4115_2929"/>
</filter>
<filter id="filter8_i_4115_2929" x="82.9229" y="102.385" width="107.692" height="75.3848" filterUnits="userSpaceOnUse" color-interpolation-filters="sRGB">
<feFlood flood-opacity="0" result="BackgroundImageFix"/>
<feBlend mode="normal" in="SourceGraphic" in2="BackgroundImageFix" result="shape"/>
<feColorMatrix in="SourceAlpha" type="matrix" values="0 0 0 0 0 0 0 0 0 0 0 0 0 0 0 0 0 0 127 0" result="hardAlpha"/>
<feOffset dx="-3"/>
<feComposite in2="hardAlpha" operator="arithmetic" k2="-1" k3="1"/>
<feColorMatrix type="matrix" values="0 0 0 0 0.0235294 0 0 0 0 0.00392157 0 0 0 0 0.0509804 0 0 0 0.3 0"/>
<feBlend mode="normal" in2="shape" result="effect1_innerShadow_4115_2929"/>
</filter>
<linearGradient id="paint0_linear_4115_2929" x1="50" y1="115" x2="50" y2="61" gradientUnits="userSpaceOnUse">
<stop stop-color="#0A0118"/>
<stop offset="1" stop-color="#33254E"/>
</linearGradient>
<linearGradient id="paint1_linear_4115_2929" x1="104" y1="84" x2="104" y2="12" gradientUnits="userSpaceOnUse">
<stop stop-color="#0A0118"/>
<stop offset="1" stop-color="#33254E"/>
</linearGradient>
<linearGradient id="paint2_linear_4115_2929" x1="203" y1="118" x2="203" y2="46" gradientUnits="userSpaceOnUse">
<stop stop-color="#1B0D31" stop-opacity="0"/>
<stop offset="1" stop-color="#33254E"/>
</linearGradient>
<linearGradient id="paint3_linear_4115_2929" x1="203" y1="112" x2="203" y2="40" gradientUnits="userSpaceOnUse">
<stop stop-color="#1B0D31" stop-opacity="0"/>
<stop offset="1" stop-color="#33254E"/>
</linearGradient>
<linearGradient id="paint4_linear_4115_2929" x1="229" y1="138" x2="229" y2="80" gradientUnits="userSpaceOnUse">
<stop stop-color="#0A0118"/>
<stop offset="1" stop-color="#33254E"/>
</linearGradient>
<linearGradient id="paint5_linear_4115_2929" x1="203" y1="124" x2="203" y2="52" gradientUnits="userSpaceOnUse">
<stop stop-color="#0A0118"/>
<stop offset="1" stop-color="#33254E"/>
</linearGradient>
<linearGradient id="paint6_linear_4115_2929" x1="140" y1="191.5" x2="140" y2="160" gradientUnits="userSpaceOnUse">
<stop stop-color="#0A0118"/>
<stop offset="1" stop-color="#33254E"/>
</linearGradient>
<linearGradient id="paint7_linear_4115_2929" x1="146.461" y1="102.385" x2="146.461" y2="177.769" gradientUnits="userSpaceOnUse">
<stop stop-color="#4D01B9"/>
<stop offset="1" stop-color="#2D0073"/>
</linearGradient>
<linearGradient id="paint8_linear_4115_2929" x1="146.461" y1="120.812" x2="146.461" y2="177.769" gradientUnits="userSpaceOnUse">
<stop stop-color="white" stop-opacity="0.2"/>
<stop offset="1" stop-color="white" stop-opacity="0.05"/>
</linearGradient>
<linearGradient id="paint9_linear_4115_2929" x1="114.147" y1="91.9946" x2="113.428" y2="127.196" gradientUnits="userSpaceOnUse">
<stop stop-color="#2B0862"/>
<stop offset="0.5" stop-color="#5511C7"/>
<stop offset="1" stop-color="#330180"/>
</linearGradient>
<linearGradient id="paint10_linear_4115_2929" x1="99.1636" y1="90.0761" x2="120.578" y2="123.457" gradientUnits="userSpaceOnUse">
<stop stop-color="#734CFE"/>
<stop offset="1" stop-color="#540DC4"/>
</linearGradient>
<linearGradient id="paint11_linear_4115_2929" x1="101.908" y1="93.5671" x2="118.521" y2="119.463" gradientUnits="userSpaceOnUse">
<stop stop-color="#8763FF"/>
<stop offset="1" stop-color="#4601A8"/>
</linearGradient>
<linearGradient id="paint12_linear_4115_2929" x1="176.704" y1="89.6267" x2="175.909" y2="128.551" gradientUnits="userSpaceOnUse">
<stop stop-color="#2B0862"/>
<stop offset="0.5" stop-color="#5511C7"/>
<stop offset="1" stop-color="#330180"/>
</linearGradient>
<linearGradient id="paint13_linear_4115_2929" x1="160.136" y1="87.5022" x2="183.815" y2="124.413" gradientUnits="userSpaceOnUse">
<stop stop-color="#734CFE"/>
<stop offset="1" stop-color="#540DC4"/>
</linearGradient>
<linearGradient id="paint14_linear_4115_2929" x1="163.458" y1="91.7264" x2="181.327" y2="119.581" gradientUnits="userSpaceOnUse">
<stop stop-color="#8763FF"/>
<stop offset="1" stop-color="#4601A8"/>
</linearGradient>
<linearGradient id="paint15_linear_4115_2929" x1="141.663" y1="75.4709" x2="140.803" y2="117.639" gradientUnits="userSpaceOnUse">
<stop stop-color="#2B0862"/>
<stop offset="0.5" stop-color="#5511C7"/>
<stop offset="1" stop-color="#330180"/>
</linearGradient>
<linearGradient id="paint16_linear_4115_2929" x1="123.715" y1="73.1702" x2="149.368" y2="113.158" gradientUnits="userSpaceOnUse">
<stop stop-color="#734CFE"/>
<stop offset="1" stop-color="#540DC4"/>
</linearGradient>
<linearGradient id="paint17_linear_4115_2929" x1="126.768" y1="77.0533" x2="147.079" y2="108.715" gradientUnits="userSpaceOnUse">
<stop stop-color="#8763FF"/>
<stop offset="1" stop-color="#4601A8"/>
</linearGradient>
<linearGradient id="paint18_linear_4115_2929" x1="136.769" y1="102.385" x2="136.769" y2="177.769" gradientUnits="userSpaceOnUse">
<stop stop-color="#734DFF"/>
<stop offset="1" stop-color="#4D00B8"/>
</linearGradient>
<linearGradient id="paint19_linear_4115_2929" x1="136.769" y1="120.812" x2="136.769" y2="177.769" gradientUnits="userSpaceOnUse">
<stop stop-color="white" stop-opacity="0.2"/>
<stop offset="1" stop-color="white" stop-opacity="0.05"/>
</linearGradient>
<linearGradient id="paint20_linear_4115_2929" x1="162.923" y1="129.847" x2="198.746" y2="151.421" gradientUnits="userSpaceOnUse">
<stop stop-color="#734CFE"/>
<stop offset="1" stop-color="#4D01B9"/>
</linearGradient>
<linearGradient id="paint21_linear_4115_2929" x1="179.846" y1="127.154" x2="179.846" y2="153" gradientUnits="userSpaceOnUse">
<stop stop-color="white" stop-opacity="0.3"/>
<stop offset="1" stop-color="white" stop-opacity="0"/>
</linearGradient>
<linearGradient id="paint22_linear_4115_2929" x1="168" y1="134.691" x2="171.23" y2="145.461" gradientUnits="userSpaceOnUse">
<stop stop-color="#E4D9FF"/>
<stop offset="1" stop-color="#A783FF"/>
</linearGradient>
<linearGradient id="paint23_linear_4115_2929" x1="28.7093" y1="210" x2="28.7093" y2="197.623" gradientUnits="userSpaceOnUse">
<stop stop-color="#33254E"/>
<stop offset="1" stop-color="#1B0D31"/>
</linearGradient>
<linearGradient id="paint24_linear_4115_2929" x1="28.7096" y1="169.774" x2="28.7096" y2="198.009" gradientUnits="userSpaceOnUse">
<stop stop-color="#33254E"/>
<stop offset="1" stop-color="#443564"/>
</linearGradient>
<linearGradient id="paint25_linear_4115_2929" x1="24.3556" y1="169" x2="24.3556" y2="198.009" gradientUnits="userSpaceOnUse">
<stop stop-color="#443564"/>
<stop offset="1" stop-color="#524B71"/>
</linearGradient>
<linearGradient id="paint26_linear_4115_2929" x1="54.226" y1="174.306" x2="54.226" y2="165.459" gradientUnits="userSpaceOnUse">
<stop stop-color="#33254E"/>
<stop offset="1" stop-color="#1B0D31"/>
</linearGradient>
<linearGradient id="paint27_linear_4115_2929" x1="54.2257" y1="145.553" x2="54.2257" y2="165.736" gradientUnits="userSpaceOnUse">
<stop stop-color="#33254E"/>
<stop offset="1" stop-color="#443564"/>
</linearGradient>
<linearGradient id="paint28_linear_4115_2929" x1="51.1137" y1="145" x2="51.1137" y2="165.736" gradientUnits="userSpaceOnUse">
<stop stop-color="#443564"/>
<stop offset="1" stop-color="#524B71"/>
</linearGradient>
<linearGradient id="paint29_linear_4115_2929" x1="251.001" y1="197.306" x2="251.001" y2="184.516" gradientUnits="userSpaceOnUse">
<stop stop-color="#33254E"/>
<stop offset="1" stop-color="#1B0D31"/>
</linearGradient>
<linearGradient id="paint30_linear_4115_2929" x1="251.001" y1="155.735" x2="251.001" y2="184.915" gradientUnits="userSpaceOnUse">
<stop stop-color="#33254E"/>
<stop offset="1" stop-color="#443564"/>
</linearGradient>
<linearGradient id="paint31_linear_4115_2929" x1="246.501" y1="154.936" x2="246.501" y2="184.915" gradientUnits="userSpaceOnUse">
<stop stop-color="#443564"/>
<stop offset="1" stop-color="#524B71"/>
</linearGradient>
</defs>
</svg>
