<svg width="30" height="30" viewBox="0 0 30 30" fill="none" xmlns="http://www.w3.org/2000/svg">
<path d="M0 6C0 2.68629 2.68629 0 6 0H24C27.3137 0 30 2.68629 30 6V24C30 27.3137 27.3137 30 24 30H6C2.68629 30 0 27.3137 0 24V6Z" fill="#1E0E40"/>
<path d="M6 0.5H24C27.0376 0.5 29.5 2.96243 29.5 6V24C29.5 27.0376 27.0376 29.5 24 29.5H6C2.96243 29.5 0.5 27.0376 0.5 24V6C0.5 2.96243 2.96243 0.5 6 0.5Z" stroke="white" stroke-opacity="0.2"/>
<mask id="path-3-inside-1_5824_3157" fill="white">
<path d="M14.1318 8.52698C15.3057 7.35768 17.2057 7.36095 18.375 8.53479L21.3223 11.4938C22.4916 12.6676 22.4883 14.5676 21.3145 15.7369L15.8398 21.1891L15.7773 21.2487H21.9502L22.0605 21.2594C22.3112 21.3105 22.4997 21.5328 22.5 21.7985C22.5 22.0643 22.3113 22.2863 22.0605 22.3375L21.9502 22.3483H8.0498C7.74614 22.3482 7.5 22.1022 7.5 21.7985C7.50034 21.4951 7.74635 21.2488 8.0498 21.2487H11.668L11.5977 21.1813L8.64941 18.2223L8.54395 18.11C7.51657 16.9685 7.51941 15.2291 8.55078 14.0914L8.6582 13.9791L14.1318 8.52698ZM17.666 9.24084C16.8865 8.45834 15.6205 8.45561 14.8379 9.23499L9.36328 14.6881C8.58121 15.4677 8.57903 16.7338 9.3584 17.5162L12.3057 20.4752C13.085 21.2576 14.3512 21.2601 15.1338 20.4811L20.6084 15.028C21.3908 14.2484 21.3928 12.9823 20.6133 12.1998L17.666 9.24084ZM17.1074 13.7526C17.36 13.4979 17.7714 13.4965 18.0264 13.7487C18.2813 14.0014 18.2839 14.4136 18.0312 14.6686L14.9375 17.7887C14.5755 18.1539 13.9885 18.1647 13.6133 17.8131L11.8525 16.1627C11.591 15.9173 11.5773 15.5066 11.8223 15.2448C12.0677 14.9829 12.4793 14.9693 12.7412 15.2145L14.2529 16.6315L17.1074 13.7526Z"/>
</mask>
<path d="M14.1318 8.52698L14.8376 9.23547L14.8376 9.23545L14.1318 8.52698ZM18.375 8.53479L19.0835 7.82909L19.0835 7.82905L18.375 8.53479ZM21.3223 11.4938L20.6138 12.1995L20.6138 12.1995L21.3223 11.4938ZM21.3145 15.7369L22.0201 16.4455L22.0202 16.4454L21.3145 15.7369ZM15.8398 21.1891L16.5298 21.913L16.5377 21.9054L16.5455 21.8976L15.8398 21.1891ZM15.7773 21.2487L15.0874 20.5248L13.2788 22.2487H15.7773V21.2487ZM21.9502 21.2487L22.0471 20.2534L21.9988 20.2487H21.9502V21.2487ZM22.0605 21.2594L22.2603 20.2796L22.2093 20.2692L22.1574 20.2641L22.0605 21.2594ZM22.5 21.7985H23.5L23.5 21.7974L22.5 21.7985ZM22.0605 22.3375L22.1574 23.3328L22.2094 23.3278L22.2606 23.3173L22.0605 22.3375ZM21.9502 22.3483V23.3483H21.9988L22.0471 23.3436L21.9502 22.3483ZM8.0498 22.3483L8.04946 23.3483H8.0498V22.3483ZM7.5 21.7985L6.5 21.7974V21.7985H7.5ZM8.0498 21.2487V20.2487H8.04946L8.0498 21.2487ZM11.668 21.2487V22.2487H14.1567L12.3599 20.5267L11.668 21.2487ZM11.5977 21.1813L10.8893 21.8871L10.8974 21.8953L10.9058 21.9033L11.5977 21.1813ZM8.64941 18.2223L7.92047 18.9069L7.93059 18.9176L7.94102 18.9281L8.64941 18.2223ZM8.54395 18.11L7.80067 18.779L7.80775 18.7868L7.815 18.7946L8.54395 18.11ZM8.55078 14.0914L7.82814 13.4002L7.81889 13.4099L7.8099 13.4198L8.55078 14.0914ZM8.6582 13.9791L7.95249 13.2706L7.94392 13.2792L7.93556 13.2879L8.6582 13.9791ZM17.666 9.24084L18.3745 8.53514L18.3745 8.53511L17.666 9.24084ZM14.8379 9.23499L14.1322 8.52643L14.1322 8.52649L14.8379 9.23499ZM9.36328 14.6881L8.65757 13.9796L8.65731 13.9799L9.36328 14.6881ZM9.3584 17.5162L10.0669 16.8105L10.0669 16.8105L9.3584 17.5162ZM12.3057 20.4752L11.5972 21.1809L11.5972 21.181L12.3057 20.4752ZM15.1338 20.4811L15.8393 21.1898L15.8395 21.1896L15.1338 20.4811ZM20.6084 15.028L21.3141 15.7365L21.3142 15.7364L20.6084 15.028ZM20.6133 12.1998L19.9048 12.9055L19.9048 12.9056L20.6133 12.1998ZM17.1074 13.7526L16.3975 13.0483L16.3973 13.0485L17.1074 13.7526ZM18.0264 13.7487L18.7304 13.0385L18.7295 13.0376L18.0264 13.7487ZM18.0312 14.6686L18.7414 15.3727L18.7415 15.3725L18.0312 14.6686ZM14.9375 17.7887L14.2274 17.0846L14.2274 17.0846L14.9375 17.7887ZM13.6133 17.8131L12.9294 18.5427L12.9296 18.5429L13.6133 17.8131ZM11.8525 16.1627L11.1683 16.8919L11.1687 16.8923L11.8525 16.1627ZM11.8223 15.2448L11.0927 14.5609L11.092 14.5616L11.8223 15.2448ZM12.7412 15.2145L13.4251 14.4849L13.4246 14.4844L12.7412 15.2145ZM14.2529 16.6315L13.5691 17.3611L14.2784 18.026L14.963 17.3356L14.2529 16.6315ZM14.1318 8.52698L14.8376 9.23545C15.6203 8.45574 16.8872 8.45814 17.6665 9.24053L18.375 8.53479L19.0835 7.82905C17.5242 6.26376 14.991 6.25961 13.4261 7.8185L14.1318 8.52698ZM18.375 8.53479L17.6665 9.24049L20.6138 12.1995L21.3223 11.4938L22.0308 10.7881L19.0835 7.82909L18.375 8.53479ZM21.3223 11.4938L20.6138 12.1995C21.3935 12.9822 21.3911 14.2491 20.6087 15.0285L21.3145 15.7369L22.0202 16.4454C23.5854 14.8862 23.5896 12.353 22.0307 10.788L21.3223 11.4938ZM21.3145 15.7369L20.6088 15.0284L15.1342 20.4805L15.8398 21.1891L16.5455 21.8976L22.0201 16.4455L21.3145 15.7369ZM15.8398 21.1891L15.1499 20.4652L15.0874 20.5248L15.7773 21.2487L16.4673 21.9725L16.5298 21.913L15.8398 21.1891ZM15.7773 21.2487V22.2487H21.9502V21.2487V20.2487H15.7773V21.2487ZM21.9502 21.2487L21.8533 22.244L21.9637 22.2547L22.0605 21.2594L22.1574 20.2641L22.0471 20.2534L21.9502 21.2487ZM22.0605 21.2594L21.8607 22.2392C21.6534 22.1969 21.5002 22.0162 21.5 21.7996L22.5 21.7985L23.5 21.7974C23.4992 21.0495 22.9689 20.4241 22.2603 20.2796L22.0605 21.2594ZM22.5 21.7985H21.5C21.5 21.58 21.6547 21.3998 21.8605 21.3577L22.0605 22.3375L22.2606 23.3173C22.9678 23.1729 23.5 22.5487 23.5 21.7985H22.5ZM22.0605 22.3375L21.9637 21.3422L21.8533 21.353L21.9502 22.3483L22.0471 23.3436L22.1574 23.3328L22.0605 22.3375ZM21.9502 22.3483V21.3483H8.0498V22.3483V23.3483H21.9502V22.3483ZM8.0498 22.3483L8.05015 21.3483C8.29815 21.3484 8.5 21.5495 8.5 21.7985H7.5H6.5C6.5 22.6548 7.19412 23.348 8.04946 23.3483L8.0498 22.3483ZM7.5 21.7985L8.5 21.7996C8.49972 22.0468 8.29947 22.2486 8.05015 22.2487L8.0498 21.2487L8.04946 20.2487C7.19323 20.249 6.50095 20.9433 6.5 21.7974L7.5 21.7985ZM8.0498 21.2487V22.2487H11.668V21.2487V20.2487H8.0498V21.2487ZM11.668 21.2487L12.3599 20.5267L12.2896 20.4593L11.5977 21.1813L10.9058 21.9033L10.9761 21.9706L11.668 21.2487ZM11.5977 21.1813L12.306 20.4755L9.35781 17.5165L8.64941 18.2223L7.94102 18.9281L10.8893 21.8871L11.5977 21.1813ZM8.64941 18.2223L9.37836 17.5377L9.27289 17.4254L8.54395 18.11L7.815 18.7946L7.92047 18.9069L8.64941 18.2223ZM8.54395 18.11L9.28722 17.441C8.60294 16.6807 8.60499 15.5205 9.29166 14.7631L8.55078 14.0914L7.8099 13.4198C6.43383 14.9377 6.4302 17.2563 7.80067 18.779L8.54395 18.11ZM8.55078 14.0914L9.27342 14.7827L9.38084 14.6703L8.6582 13.9791L7.93556 13.2879L7.82814 13.4002L8.55078 14.0914ZM8.6582 13.9791L9.36392 14.6876L14.8376 9.23547L14.1318 8.52698L13.4261 7.81848L7.95249 13.2706L8.6582 13.9791ZM17.666 9.24084L18.3745 8.53511C17.2054 7.3615 15.3062 7.35722 14.1322 8.52643L14.8379 9.23499L15.5435 9.94354C15.9347 9.554 16.5677 9.55518 16.9575 9.94658L17.666 9.24084ZM14.8379 9.23499L14.1322 8.52649L8.65757 13.9796L9.36328 14.6881L10.069 15.3966L15.5436 9.94348L14.8379 9.23499ZM9.36328 14.6881L8.65731 13.9799C7.48412 15.1493 7.48093 17.0484 8.64992 18.222L9.3584 17.5162L10.0669 16.8105C9.67712 16.4192 9.67829 15.7861 10.0693 15.3963L9.36328 14.6881ZM9.3584 17.5162L8.64989 18.2219L11.5972 21.1809L12.3057 20.4752L13.0142 19.7695L10.0669 16.8105L9.3584 17.5162ZM12.3057 20.4752L11.5972 21.181C12.7663 22.3546 14.6655 22.3582 15.8393 21.1898L15.1338 20.4811L14.4283 19.7723C14.0369 20.1619 13.4037 20.1606 13.0141 19.7695L12.3057 20.4752ZM15.1338 20.4811L15.8395 21.1896L21.3141 15.7364L20.6084 15.028L19.9027 14.3195L14.4281 19.7726L15.1338 20.4811ZM20.6084 15.028L21.3142 15.7364C22.4882 14.5667 22.4907 12.6676 21.3218 11.4941L20.6133 12.1998L19.9048 12.9056C20.2949 13.2971 20.2935 13.9301 19.9026 14.3195L20.6084 15.028ZM20.6133 12.1998L21.3218 11.4941L18.3745 8.53514L17.666 9.24084L16.9575 9.94655L19.9048 12.9055L20.6133 12.1998ZM17.1074 13.7526L17.8174 14.4568C17.6804 14.5949 17.4595 14.5944 17.3232 14.4597L18.0264 13.7487L18.7295 13.0376C18.0834 12.3986 17.0396 12.401 16.3975 13.0483L17.1074 13.7526ZM18.0264 13.7487L17.3224 14.4588C17.1867 14.3244 17.1833 14.1036 17.321 13.9646L18.0312 14.6686L18.7415 15.3725C19.3846 14.7237 19.3758 13.6783 18.7304 13.0385L18.0264 13.7487ZM18.0312 14.6686L17.3211 13.9645L14.2274 17.0846L14.9375 17.7887L15.6476 18.4928L18.7414 15.3727L18.0312 14.6686ZM14.9375 17.7887L14.2274 17.0846C14.2464 17.0654 14.2772 17.0648 14.297 17.0833L13.6133 17.8131L12.9296 18.5429C13.6998 19.2645 14.9045 19.2423 15.6476 18.4928L14.9375 17.7887ZM13.6133 17.8131L14.2972 17.0835L12.5364 15.4331L11.8525 16.1627L11.1687 16.8923L12.9294 18.5427L13.6133 17.8131ZM11.8525 16.1627L12.5368 15.4335C12.6768 15.5649 12.6852 15.7861 12.5525 15.9279L11.8223 15.2448L11.092 14.5616C10.4694 15.2271 10.5052 16.2698 11.1683 16.8919L11.8525 16.1627ZM11.8223 15.2448L12.5519 15.9286C12.4201 16.0692 12.1993 16.077 12.0579 15.9446L12.7412 15.2145L13.4246 14.4844C12.7592 13.8616 11.7152 13.8967 11.0927 14.5609L11.8223 15.2448ZM12.7412 15.2145L12.0573 15.9441L13.5691 17.3611L14.2529 16.6315L14.9368 15.9019L13.4251 14.4849L12.7412 15.2145ZM14.2529 16.6315L14.963 17.3356L17.8175 14.4567L17.1074 13.7526L16.3973 13.0485L13.5428 15.9274L14.2529 16.6315Z" fill="url(#paint0_linear_5824_3157)" mask="url(#path-3-inside-1_5824_3157)"/>
<defs>
<linearGradient id="paint0_linear_5824_3157" x1="14.7804" y1="11.5658" x2="15" y2="23.1645" gradientUnits="userSpaceOnUse">
<stop stop-color="white" stop-opacity="0.9"/>
<stop offset="1" stop-color="white" stop-opacity="0.3"/>
</linearGradient>
</defs>
</svg>
