<svg width="30" height="30" viewBox="0 0 30 30" fill="none" xmlns="http://www.w3.org/2000/svg">
<path d="M0 6C0 2.68629 2.68629 0 6 0H24C27.3137 0 30 2.68629 30 6V24C30 27.3137 27.3137 30 24 30H6C2.68629 30 0 27.3137 0 24V6Z" fill="#1E0E40"/>
<path d="M6 0.5H24C27.0376 0.5 29.5 2.96243 29.5 6V24C29.5 27.0376 27.0376 29.5 24 29.5H6C2.96243 29.5 0.5 27.0376 0.5 24V6C0.5 2.96243 2.96243 0.5 6 0.5Z" stroke="white" stroke-opacity="0.2"/>
<mask id="path-3-inside-1_5824_3165" fill="white">
<path d="M20.5967 9.7334C21.4612 9.73351 22.1651 10.4369 22.165 11.3008V17.9512L22.1562 18.1113C22.0809 18.8481 21.4935 19.4356 20.7568 19.5107L20.5967 19.5186H19.6797L16.0576 21.6406C15.98 21.6862 15.8924 21.7089 15.8057 21.709L15.7422 21.7051C15.6787 21.6968 15.6162 21.6753 15.5586 21.6426C15.404 21.5543 15.3087 21.3894 15.3086 21.2119V19.5186H11.0156L10.8555 19.5107C10.1184 19.4359 9.53037 18.8486 9.45508 18.1113L9.44727 17.9512V11.3008C9.44733 10.4907 10.0657 9.82152 10.8555 9.74121L11.0156 9.7334H20.5967ZM11.0156 10.7334C10.7032 10.7334 10.4473 10.9893 10.4473 11.3008V17.9512C10.4475 18.2634 10.7031 18.5186 11.0156 18.5186H16.3086V20.334L19.1738 18.6562L19.4082 18.5186H20.5967C20.9089 18.5184 21.1647 18.2632 21.165 17.9512V11.3008C21.1651 10.9895 20.9091 10.7335 20.5967 10.7334H11.0156ZM18.3359 8.29102C19.1403 8.29102 19.7492 8.38207 19.8066 9.17188H10.0293C9.06522 9.17188 8.86529 9.17416 8.86523 10.1377V17.4658H8.53711C7.69558 17.4657 7.8447 16.8629 7.84473 16.0215V9.62988C7.84473 8.7881 8.28435 8.2911 9.12598 8.29102H18.3359ZM17.4971 14.9814C17.7238 14.811 18.0431 14.8587 18.2119 15.085C18.3805 15.3103 18.3342 15.6304 18.1084 15.7988C17.439 16.298 16.642 16.5624 15.8027 16.5625C14.9684 16.5625 14.174 16.301 13.5059 15.8057C13.2792 15.6382 13.2313 15.3191 13.3984 15.0918C13.5664 14.8665 13.8859 14.8188 14.1123 14.9863C15.0963 15.713 16.5175 15.7129 17.4971 14.9814Z"/>
</mask>
<path d="M20.5967 9.7334L20.5968 8.7334H20.5967V9.7334ZM22.165 11.3008L21.165 11.3007V11.3008H22.165ZM22.165 17.9512L23.1635 18.006L23.165 17.9786V17.9512H22.165ZM22.1562 18.1113L23.1511 18.2131L23.1535 18.1897L23.1547 18.1661L22.1562 18.1113ZM20.7568 19.5107L20.8056 20.5096L20.832 20.5083L20.8583 20.5056L20.7568 19.5107ZM20.5967 19.5186V20.5186H20.6211L20.6454 20.5174L20.5967 19.5186ZM19.6797 19.5186V18.5186H19.4083L19.1742 18.6557L19.6797 19.5186ZM16.0576 21.6406L15.5521 20.7778L15.5518 20.778L16.0576 21.6406ZM15.8057 21.709L15.7442 22.7071L15.7751 22.709L15.8061 22.709L15.8057 21.709ZM15.7422 21.7051L15.6133 22.6967L15.6469 22.7011L15.6808 22.7032L15.7422 21.7051ZM15.5586 21.6426L15.0628 22.511L15.0641 22.5118L15.5586 21.6426ZM15.3086 21.2119H14.3086V21.2126L15.3086 21.2119ZM15.3086 19.5186H16.3086V18.5186H15.3086V19.5186ZM11.0156 19.5186L10.9669 20.5174L10.9912 20.5186H11.0156V19.5186ZM10.8555 19.5107L10.7544 20.5056L10.7805 20.5083L10.8067 20.5096L10.8555 19.5107ZM9.45508 18.1113L8.45627 18.1601L8.45756 18.1865L8.46025 18.2129L9.45508 18.1113ZM9.44727 17.9512H8.44727V17.9755L8.44845 17.9999L9.44727 17.9512ZM9.44727 11.3008L8.44727 11.3007V11.3008H9.44727ZM10.8555 9.74121L10.8067 8.7424L10.7805 8.74368L10.7543 8.74634L10.8555 9.74121ZM11.0156 9.7334V8.7334H10.9912L10.9669 8.73459L11.0156 9.7334ZM10.4473 11.3008L9.44727 11.3005V11.3008H10.4473ZM10.4473 17.9512H9.44727L9.44727 17.9521L10.4473 17.9512ZM16.3086 18.5186H17.3086V17.5186H16.3086V18.5186ZM16.3086 20.334H15.3086V22.0784L16.8139 21.1969L16.3086 20.334ZM19.1738 18.6562L19.6791 19.5192L19.6804 19.5185L19.1738 18.6562ZM19.4082 18.5186V17.5186H19.1362L18.9017 17.6563L19.4082 18.5186ZM20.5967 18.5186V19.5186H20.5971L20.5967 18.5186ZM21.165 17.9512L22.165 17.9524V17.9512H21.165ZM21.165 11.3008L20.165 11.3006V11.3008H21.165ZM20.5967 10.7334L20.597 9.7334H20.5967V10.7334ZM19.8066 9.17188V10.1719H20.882L20.804 9.09934L19.8066 9.17188ZM10.0293 9.17188V8.17188H10.0293L10.0293 9.17188ZM8.86523 10.1377L7.86523 10.1376V10.1377H8.86523ZM8.86523 17.4658V18.4658H9.86523V17.4658H8.86523ZM8.53711 17.4658L8.53693 18.4658H8.53711V17.4658ZM7.84473 16.0215L8.84473 16.0215V16.0215H7.84473ZM9.12598 8.29102V7.29102H9.12587L9.12598 8.29102ZM17.4971 14.9814L18.0954 15.7827L18.098 15.7808L17.4971 14.9814ZM18.2119 15.085L17.4106 15.6831L17.4113 15.6841L18.2119 15.085ZM18.1084 15.7988L18.7062 16.6005L18.7063 16.6004L18.1084 15.7988ZM15.8027 16.5625V17.5625H15.8028L15.8027 16.5625ZM13.5059 15.8057L14.1014 15.0023L14.1001 15.0014L13.5059 15.8057ZM13.3984 15.0918L12.5967 14.4941L12.5929 14.4993L13.3984 15.0918ZM14.1123 14.9863L13.5175 15.7902L13.5182 15.7907L14.1123 14.9863ZM20.5967 9.7334L20.5966 10.7334C20.9096 10.7334 21.1651 10.9899 21.165 11.3007L22.165 11.3008L23.165 11.3009C23.1652 9.88386 22.0127 8.73358 20.5968 8.7334L20.5967 9.7334ZM22.165 11.3008H21.165V17.9512H22.165H23.165V11.3008H22.165ZM22.165 17.9512L21.1665 17.8964L21.1578 18.0565L22.1562 18.1113L23.1547 18.1661L23.1635 18.006L22.165 17.9512ZM22.1562 18.1113L21.1614 18.0096C21.1343 18.2748 20.9198 18.4889 20.6554 18.5159L20.7568 19.5107L20.8583 20.5056C22.0672 20.3823 23.0274 19.4215 23.1511 18.2131L22.1562 18.1113ZM20.7568 19.5107L20.7081 18.5119L20.548 18.5197L20.5967 19.5186L20.6454 20.5174L20.8056 20.5096L20.7568 19.5107ZM20.5967 19.5186V18.5186H19.6797V19.5186V20.5186H20.5967V19.5186ZM19.6797 19.5186L19.1742 18.6557L15.5521 20.7778L16.0576 21.6406L16.5631 22.5034L20.1852 20.3814L19.6797 19.5186ZM16.0576 21.6406L15.5518 20.778C15.6311 20.7315 15.7186 20.709 15.8053 20.709L15.8057 21.709L15.8061 22.709C16.0662 22.7089 16.3288 22.6408 16.5635 22.5033L16.0576 21.6406ZM15.8057 21.709L15.8671 20.7109L15.8036 20.707L15.7422 21.7051L15.6808 22.7032L15.7442 22.7071L15.8057 21.709ZM15.7422 21.7051L15.8711 20.7134C15.9437 20.7229 16.0046 20.7458 16.0531 20.7734L15.5586 21.6426L15.0641 22.5118C15.2277 22.6048 15.4137 22.6708 15.6133 22.6967L15.7422 21.7051ZM15.5586 21.6426L16.0544 20.7741C16.2126 20.8645 16.3085 21.0314 16.3086 21.2113L15.3086 21.2119L14.3086 21.2126C14.3089 21.7474 14.5954 22.2442 15.0628 22.511L15.5586 21.6426ZM15.3086 21.2119H16.3086V19.5186H15.3086H14.3086V21.2119H15.3086ZM15.3086 19.5186V18.5186H11.0156V19.5186V20.5186H15.3086V19.5186ZM11.0156 19.5186L11.0643 18.5197L10.9042 18.5119L10.8555 19.5107L10.8067 20.5096L10.9669 20.5174L11.0156 19.5186ZM10.8555 19.5107L10.9566 18.5159C10.6914 18.4889 10.477 18.2745 10.4499 18.0097L9.45508 18.1113L8.46025 18.2129C8.5838 19.4226 9.54553 20.3828 10.7544 20.5056L10.8555 19.5107ZM9.45508 18.1113L10.4539 18.0626L10.4461 17.9024L9.44727 17.9512L8.44845 17.9999L8.45627 18.1601L9.45508 18.1113ZM9.44727 17.9512H10.4473V11.3008H9.44727H8.44727V17.9512H9.44727ZM9.44727 11.3008L10.4473 11.3009C10.4473 11.0095 10.6717 10.7651 10.9566 10.7361L10.8555 9.74121L10.7543 8.74634C9.45965 8.87798 8.44738 9.97195 8.44727 11.3007L9.44727 11.3008ZM10.8555 9.74121L10.9042 10.74L11.0643 10.7322L11.0156 9.7334L10.9669 8.73459L10.8067 8.7424L10.8555 9.74121ZM11.0156 9.7334V10.7334H20.5967V9.7334V8.7334H11.0156V9.7334ZM11.0156 10.7334V9.7334C10.1518 9.7334 9.44747 10.436 9.44727 11.3005L10.4473 11.3008L11.4473 11.301C11.4472 11.5425 11.2545 11.7334 11.0156 11.7334V10.7334ZM10.4473 11.3008H9.44727V17.9512H10.4473H11.4473V11.3008H10.4473ZM10.4473 17.9512L9.44727 17.9521C9.44804 18.8171 10.152 19.5186 11.0156 19.5186V18.5186V17.5186C11.2542 17.5186 11.4471 17.7098 11.4473 17.9503L10.4473 17.9512ZM11.0156 18.5186V19.5186H16.3086V18.5186V17.5186H11.0156V18.5186ZM16.3086 18.5186H15.3086V20.334H16.3086H17.3086V18.5186H16.3086ZM16.3086 20.334L16.8139 21.1969L19.6791 19.5192L19.1738 18.6562L18.6685 17.7933L15.8033 19.471L16.3086 20.334ZM19.1738 18.6562L19.6804 19.5185L19.9148 19.3808L19.4082 18.5186L18.9017 17.6563L18.6673 17.794L19.1738 18.6562ZM19.4082 18.5186V19.5186H20.5967V18.5186V17.5186H19.4082V18.5186ZM20.5967 18.5186L20.5971 19.5186C21.46 19.5182 22.164 18.817 22.165 17.9524L21.165 17.9512L20.165 17.95C20.1653 17.7093 20.3578 17.5187 20.5962 17.5186L20.5967 18.5186ZM21.165 17.9512H22.165V11.3008H21.165H20.165V17.9512H21.165ZM21.165 11.3008L22.165 11.301C22.1652 10.4358 21.4601 9.73371 20.597 9.7334L20.5967 10.7334L20.5963 11.7334C20.3582 11.7333 20.165 11.5432 20.165 11.3006L21.165 11.3008ZM20.5967 10.7334V9.7334H11.0156V10.7334V11.7334H20.5967V10.7334ZM18.3359 8.29102V9.29102C18.5236 9.29102 18.665 9.2967 18.7759 9.31022C18.8886 9.32398 18.9283 9.34135 18.928 9.34122C18.9153 9.3353 18.8664 9.30621 18.8272 9.24599C18.7921 9.19193 18.804 9.17245 18.8093 9.24441L19.8066 9.17188L20.804 9.09934C20.7805 8.7764 20.6948 8.44936 20.5042 8.15609C20.3096 7.85667 20.0474 7.65672 19.7748 7.52932C19.2885 7.30206 18.7229 7.29102 18.3359 7.29102V8.29102ZM19.8066 9.17188V8.17188H10.0293V9.17188V10.1719H19.8066V9.17188ZM10.0293 9.17188L10.0293 8.17188C9.80637 8.17188 9.5567 8.17093 9.34223 8.19215C9.13291 8.21286 8.80662 8.2653 8.50697 8.47798C8.16988 8.71723 8.01334 9.04915 7.94124 9.33852C7.87629 9.59915 7.86525 9.88239 7.86523 10.1376L8.86523 10.1377L9.86523 10.1378C9.86524 10.0326 9.86805 9.95568 9.87256 9.89901C9.87717 9.84121 9.88242 9.82 9.8819 9.82207C9.88112 9.82521 9.8703 9.86817 9.83402 9.92789C9.8155 9.95838 9.7916 9.99114 9.76154 10.0236C9.73138 10.0563 9.69853 10.0848 9.66455 10.1089C9.59636 10.1573 9.53891 10.1771 9.51618 10.1837C9.49637 10.1895 9.4986 10.1864 9.53917 10.1824C9.57888 10.1785 9.63631 10.1754 9.72238 10.1737C9.80829 10.1719 9.90644 10.1719 10.0293 10.1719L10.0293 9.17188ZM8.86523 10.1377H7.86523V17.4658H8.86523H9.86523V10.1377H8.86523ZM8.86523 17.4658V16.4658H8.53711V17.4658V18.4658H8.86523V17.4658ZM8.53711 17.4658L8.53729 16.4658C8.43018 16.4658 8.5052 16.444 8.62916 16.5267C8.69464 16.5704 8.74913 16.6275 8.78836 16.6883C8.82502 16.745 8.83839 16.7895 8.84188 16.8026C8.84416 16.8112 8.83377 16.7702 8.83455 16.6069C8.83491 16.5322 8.83708 16.452 8.83964 16.3502C8.84209 16.2528 8.84472 16.1404 8.84473 16.0215L7.84473 16.0215L6.84473 16.0215C6.84472 16.113 6.84269 16.2034 6.84027 16.3C6.83795 16.3923 6.83505 16.4972 6.83457 16.5974C6.83368 16.7837 6.8386 17.0512 6.90879 17.3156C6.98676 17.6095 7.15895 17.9499 7.51864 18.1901C7.85132 18.4122 8.22328 18.4658 8.53693 18.4658L8.53711 17.4658ZM7.84473 16.0215H8.84473V9.62988H7.84473H6.84473V16.0215H7.84473ZM7.84473 9.62988H8.84473C8.84473 9.37348 8.91079 9.31648 8.89933 9.3287C8.89546 9.33283 8.89711 9.32747 8.92143 9.31836C8.94945 9.30787 9.01274 9.29103 9.12608 9.29102L9.12598 8.29102L9.12587 7.29102C8.50641 7.29108 7.8916 7.47932 7.44016 7.96093C6.99848 8.43212 6.84473 9.0445 6.84473 9.62988H7.84473ZM9.12598 8.29102V9.29102H18.3359V8.29102V7.29102H9.12598V8.29102ZM17.4971 14.9814L18.098 15.7808C17.878 15.9461 17.5697 15.8963 17.4106 15.6831L18.2119 15.085L19.0133 14.4868C18.5164 13.8212 17.5697 13.6758 16.8962 14.1821L17.4971 14.9814ZM18.2119 15.085L17.4113 15.6841C17.2484 15.4665 17.2934 15.1592 17.5105 14.9973L18.1084 15.7988L18.7063 16.6004C19.3751 16.1015 19.5126 15.154 19.0125 14.4858L18.2119 15.085ZM18.1084 15.7988L17.5106 14.9972C17.0143 15.3672 16.4272 15.5624 15.8026 15.5625L15.8027 16.5625L15.8028 17.5625C16.8569 17.5624 17.8636 17.2288 18.7062 16.6005L18.1084 15.7988ZM15.8027 16.5625V15.5625C15.1818 15.5625 14.5964 15.3693 14.1014 15.0023L13.5059 15.8057L12.9103 16.609C13.7515 17.2326 14.7549 17.5625 15.8027 17.5625V16.5625ZM13.5059 15.8057L14.1001 15.0014C14.3182 15.1626 14.3626 15.4687 14.204 15.6843L13.3984 15.0918L12.5929 14.4993C12.0999 15.1695 12.2401 16.1137 12.9116 16.6099L13.5059 15.8057ZM13.3984 15.0918L14.2002 15.6895C14.0395 15.905 13.7348 15.951 13.5175 15.7902L14.1123 14.9863L14.7071 14.1825C14.037 13.6866 13.0932 13.828 12.5967 14.4941L13.3984 15.0918ZM14.1123 14.9863L13.5182 15.7907C14.8548 16.7778 16.7604 16.7795 18.0954 15.7827L17.4971 14.9814L16.8988 14.1802C16.2746 14.6462 15.3378 14.6482 14.7064 14.1819L14.1123 14.9863Z" fill="url(#paint0_linear_5824_3165)" mask="url(#path-3-inside-1_5824_3165)"/>
<defs>
<linearGradient id="paint0_linear_5824_3165" x1="14.7894" y1="11.8645" x2="14.981" y2="22.4548" gradientUnits="userSpaceOnUse">
<stop stop-color="white" stop-opacity="0.9"/>
<stop offset="1" stop-color="white" stop-opacity="0.3"/>
</linearGradient>
</defs>
</svg>
