<svg width="30" height="30" viewBox="0 0 30 30" fill="none" xmlns="http://www.w3.org/2000/svg">
<path d="M0 6C0 2.68629 2.68629 0 6 0H24C27.3137 0 30 2.68629 30 6V24C30 27.3137 27.3137 30 24 30H6C2.68629 30 0 27.3137 0 24V6Z" fill="#1E0E40"/>
<path d="M6 0.5H24C27.0376 0.5 29.5 2.96243 29.5 6V24C29.5 27.0376 27.0376 29.5 24 29.5H6C2.96243 29.5 0.5 27.0376 0.5 24V6C0.5 2.96243 2.96243 0.5 6 0.5Z" stroke="white" stroke-opacity="0.2"/>
<path d="M18.5913 12.3717C18.9007 12.3717 19.1785 12.4377 19.4243 12.569C19.6729 12.7003 19.8719 12.8773 20.021 13.0992C20.1727 13.3187 20.2485 13.5631 20.2485 13.8326L20.2573 16.1569C20.2573 16.4242 20.1829 16.6692 20.0337 16.8912C19.8817 17.1156 19.6796 17.2947 19.4282 17.4283C19.1769 17.562 18.8979 17.6285 18.5913 17.6285C18.2902 17.6285 18.0124 17.562 17.7583 17.4283C17.5069 17.2947 17.3036 17.1162 17.1489 16.8942C16.9971 16.6699 16.9214 16.4241 16.9214 16.1569L16.9292 13.8326C16.9293 13.5607 17.0059 13.3164 17.1577 13.0992C17.3068 12.8797 17.5082 12.7042 17.7622 12.5729C18.0164 12.4392 18.2929 12.3717 18.5913 12.3717ZM11.3804 12.4469C11.6952 12.4397 11.9798 12.5022 12.2339 12.6334C12.4906 12.7646 12.6953 12.9424 12.8472 13.1666C13.0019 13.3886 13.0796 13.6352 13.0796 13.9049V16.0104C13.0796 16.292 13.0007 16.5499 12.8433 16.7838C12.6831 17.0152 12.4705 17.2001 12.2056 17.3385C11.9404 17.4745 11.6403 17.5456 11.3062 17.5504L9.78467 17.5573C9.75731 17.5571 9.74365 17.5449 9.74365 17.5211L9.76025 12.483C9.7603 12.464 9.7714 12.4547 9.79346 12.4547L11.3804 12.4469ZM15.6108 12.4547C15.6329 12.4547 15.6463 12.4649 15.6519 12.484L16.6636 17.5221C16.6662 17.5457 16.6551 17.5572 16.6304 17.5573H15.6899C15.6624 17.5573 15.6469 17.5458 15.644 17.5221L15.5532 16.985H14.397L14.3052 17.5221C14.3023 17.5457 14.2889 17.5572 14.2642 17.5573H13.3188C13.2971 17.5571 13.2867 17.5456 13.2866 17.5221L14.3384 12.484C14.3439 12.4649 14.3583 12.4547 14.3804 12.4547H15.6108ZM18.5913 13.2526C18.4174 13.2526 18.2683 13.3079 18.144 13.4176C18.0198 13.5274 17.9576 13.6657 17.9575 13.8326V16.1569C17.9575 16.3168 18.0197 16.4549 18.144 16.5719C18.2684 16.6865 18.4173 16.7438 18.5913 16.7438C18.7625 16.7437 18.9115 16.6843 19.0386 16.5651C19.1657 16.4433 19.229 16.3073 19.229 16.1569L19.2212 13.8326C19.2211 13.6704 19.1612 13.5336 19.0425 13.4215C18.9237 13.3093 18.7736 13.2526 18.5913 13.2526ZM10.7876 13.3317L10.7798 16.6549H11.3062C11.5159 16.6549 11.6929 16.5918 11.8364 16.4655C11.98 16.339 12.0522 16.187 12.0522 16.0104V13.8971C12.0521 13.7421 11.9855 13.6073 11.853 13.4928C11.7204 13.3758 11.5627 13.3201 11.3804 13.3248L10.7876 13.3317ZM14.9478 14.1412L14.5669 16.2008H15.3833L15.0347 14.1412L14.9849 13.8698L14.9478 14.1412Z" fill="url(#paint0_linear_5824_3139)"/>
<path d="M22.2939 10.7881V19.21L15 23.4219L7.70605 19.21V10.7881L15 6.57617L22.2939 10.7881Z" stroke="url(#paint1_linear_5824_3139)"/>
<defs>
<linearGradient id="paint0_linear_5824_3139" x1="15.0005" y1="6.67773" x2="15.0005" y2="24.1977" gradientUnits="userSpaceOnUse">
<stop offset="0.25" stop-color="white" stop-opacity="0.8"/>
<stop offset="1" stop-color="white" stop-opacity="0.3"/>
</linearGradient>
<linearGradient id="paint1_linear_5824_3139" x1="15" y1="12.3716" x2="15" y2="23.9994" gradientUnits="userSpaceOnUse">
<stop stop-color="white" stop-opacity="0.8"/>
<stop offset="1" stop-color="white" stop-opacity="0.3"/>
</linearGradient>
</defs>
</svg>
