<svg width="30" height="30" viewBox="0 0 30 30" fill="none" xmlns="http://www.w3.org/2000/svg">
<path d="M0 6C0 2.68629 2.68629 0 6 0H24C27.3137 0 30 2.68629 30 6V24C30 27.3137 27.3137 30 24 30H6C2.68629 30 0 27.3137 0 24V6Z" fill="#1E0E40"/>
<path d="M6 0.5H24C27.0376 0.5 29.5 2.96243 29.5 6V24C29.5 27.0376 27.0376 29.5 24 29.5H6C2.96243 29.5 0.5 27.0376 0.5 24V6C0.5 2.96243 2.96243 0.5 6 0.5Z" stroke="white" stroke-opacity="0.2"/>
<path d="M9.58154 8H20.4185C20.6009 8.00006 20.8335 8.17308 20.8335 8.50781V21.5615C20.8335 21.6309 20.8146 21.7261 20.7769 21.8145C20.7561 21.863 20.7347 21.8945 20.7202 21.9141C20.5343 21.9799 20.5071 21.9971 20.4185 21.9971C20.4098 21.9971 20.402 21.9961 20.395 21.9961L20.3804 21.9883L15.2427 19.1309L14.9985 18.9951L14.7544 19.1328L9.72412 21.9678C9.63103 22.0028 9.57802 22.002 9.55225 21.9971C9.52628 21.9921 9.4912 21.9781 9.4458 21.9316L9.38916 21.873L9.31592 21.8359C9.24656 21.8003 9.1665 21.7172 9.1665 21.4893V8.50781C9.1665 8.21477 9.34448 8.04535 9.51123 8.00781L9.58154 8Z" stroke="url(#paint0_linear_5824_3150)"/>
<path d="M18.3332 11.7783C18.3332 12.1085 18.0885 12.3066 17.8439 12.3066H12.1558C11.9112 12.3066 11.7277 12.0425 11.7277 11.7783C11.7277 11.5142 11.9112 11.316 12.1558 11.25H17.8439C18.1497 11.25 18.3332 11.4481 18.3332 11.7783Z" fill="url(#paint1_linear_5824_3150)"/>
<path d="M18.3332 14.2217C18.3332 14.5519 18.0885 14.75 17.8439 14.75H12.1558C11.85 14.75 11.6665 14.4858 11.6665 14.2217C11.6665 13.8915 11.9112 13.6934 12.1558 13.6934H17.8439C18.1497 13.6934 18.3332 13.9575 18.3332 14.2217Z" fill="url(#paint2_linear_5824_3150)"/>
<defs>
<linearGradient id="paint0_linear_5824_3150" x1="14.9998" y1="13.1048" x2="14.9998" y2="23.3333" gradientUnits="userSpaceOnUse">
<stop stop-color="white" stop-opacity="0.8"/>
<stop offset="1" stop-color="white" stop-opacity="0.3"/>
</linearGradient>
<linearGradient id="paint1_linear_5824_3150" x1="14.8891" y1="7.87644" x2="14.9679" y2="20.7954" gradientUnits="userSpaceOnUse">
<stop stop-color="white" stop-opacity="0.9"/>
<stop offset="1" stop-color="white" stop-opacity="0.3"/>
</linearGradient>
<linearGradient id="paint2_linear_5824_3150" x1="14.8891" y1="7.87644" x2="14.9679" y2="20.7954" gradientUnits="userSpaceOnUse">
<stop stop-color="white" stop-opacity="0.9"/>
<stop offset="1" stop-color="white" stop-opacity="0.3"/>
</linearGradient>
</defs>
</svg>
