<svg width="30" height="30" viewBox="0 0 30 30" fill="none" xmlns="http://www.w3.org/2000/svg">
<path d="M0 6C0 2.68629 2.68629 0 6 0H24C27.3137 0 30 2.68629 30 6V24C30 27.3137 27.3137 30 24 30H6C2.68629 30 0 27.3137 0 24V6Z" fill="#1E0E40"/>
<path d="M6 0.5H24C27.0376 0.5 29.5 2.96243 29.5 6V24C29.5 27.0376 27.0376 29.5 24 29.5H6C2.96243 29.5 0.5 27.0376 0.5 24V6C0.5 2.96243 2.96243 0.5 6 0.5Z" stroke="white" stroke-opacity="0.2"/>
<path d="M19.8794 16.7156C20.2321 16.7339 20.5668 16.8735 20.8267 17.1082L20.9341 17.2156L22.6528 19.1189C22.788 19.2678 22.8932 19.4431 22.9604 19.6326C23.0107 19.7744 23.0398 19.9232 23.0464 20.073L23.0454 20.2234C23.024 20.6261 22.8472 21.0012 22.5474 21.2742V21.2751L22.4497 21.365L22.3062 21.4958H11.7798L11.9839 20.8464C12.0604 20.6032 12.1981 20.383 12.3833 20.2078H12.3823L12.3911 20.2L14.6753 18.1335L14.6763 18.1326C14.9764 17.8625 15.3716 17.7217 15.7749 17.7419C16.1281 17.7598 16.4632 17.8994 16.7231 18.1345L16.8306 18.2419L17.1431 18.5867L18.7778 17.1052L18.7808 17.1033L18.897 17.0085C19.1796 16.802 19.5267 16.6974 19.8794 16.7156ZM19.8286 17.7146C19.6905 17.7075 19.5537 17.7541 19.4497 17.8455V17.8464L17.4956 19.616C17.487 19.6263 17.4756 19.6379 17.4634 19.6501L17.0913 20.0232L16.7388 19.6326L16.0884 18.9128L16.0894 18.9119C15.9956 18.8089 15.8639 18.7481 15.7251 18.741C15.621 18.7357 15.5177 18.7618 15.4292 18.8142L15.3452 18.8757L13.5542 20.4958H21.9106C21.9909 20.4066 22.0399 20.2944 22.0464 20.1697V20.1687L22.0425 20.0662C22.0376 20.0325 22.0295 19.9988 22.0181 19.9666C21.9951 19.902 21.9586 19.8424 21.9126 19.7917L21.9116 19.7908L20.1938 17.8875C20.0997 17.7839 19.968 17.722 19.8286 17.7146ZM9.72021 8.64331C11.2216 8.33024 12.8115 8.54535 14.1929 9.28979C14.3895 9.22882 14.6029 9.22688 14.8013 9.29175C15.3775 8.96095 16.1251 9.04077 16.6177 9.53296C17.1101 10.0256 17.1889 10.773 16.8579 11.3494C16.9232 11.5483 16.9221 11.7616 16.8608 11.9587C17.6054 13.3402 17.8215 14.9299 17.5083 16.4314C17.3632 17.1269 16.4308 17.2582 16.0952 16.6365V16.6355C15.614 15.7475 15.039 14.8959 14.3784 14.0886C14.3259 14.084 14.2732 14.0754 14.2212 14.0623L10.5552 17.7292C9.966 18.3184 9.01165 18.3182 8.42236 17.7292C7.8331 17.14 7.8331 16.1857 8.42236 15.5964L12.0884 11.9285C12.0755 11.8771 12.0676 11.825 12.063 11.7732C11.2554 11.1123 10.4035 10.5368 9.51514 10.0554C8.89349 9.71976 9.02464 8.78834 9.72021 8.64331ZM13.9204 10.283C12.9062 9.68045 11.7403 9.42778 10.5981 9.52417C11.3976 10.0017 12.1668 10.5496 12.897 11.1648L13.1362 11.366L13.0591 11.6697C13.0578 11.6748 13.0581 11.679 13.0581 11.6814L13.4038 12.0291L13.0513 12.3806L9.12939 16.3035C8.93065 16.5022 8.93065 16.8235 9.12939 17.0222C9.32816 17.2207 9.6495 17.2209 9.84814 17.0222L13.771 13.1003L14.1245 12.7468L14.4712 13.0935C14.4733 13.0934 14.4767 13.0934 14.48 13.0925L14.7847 13.0134L14.9868 13.2546C15.6016 13.9843 16.1491 14.7526 16.6265 15.5515C16.7225 14.4099 16.4708 13.245 15.8687 12.2312L15.6938 11.9373L15.9038 11.6687C15.9055 11.6664 15.9052 11.6633 15.9058 11.6619L15.5571 11.3132L15.9106 10.9597C16.1091 10.7611 16.109 10.4397 15.9106 10.241C15.712 10.0423 15.3907 10.0424 15.1919 10.241L14.8384 10.5945L14.4888 10.2449C14.4874 10.2454 14.485 10.2463 14.4829 10.2478L14.2134 10.4578L13.9204 10.283Z" fill="url(#paint0_linear_6129_11020)"/>
<defs>
<linearGradient id="paint0_linear_6129_11020" x1="15.3859" y1="10.0455" x2="9.473" y2="26.4705" gradientUnits="userSpaceOnUse">
<stop stop-color="white"/>
<stop offset="1" stop-color="white" stop-opacity="0.3"/>
</linearGradient>
</defs>
</svg>
