<svg width="16" height="16" viewBox="0 0 16 16" fill="none" xmlns="http://www.w3.org/2000/svg">
<mask id="mask0_2075_2629" style="mask-type:alpha" maskUnits="userSpaceOnUse" x="0" y="0" width="16" height="16">
<path d="M8 16C12.4183 16 16 12.4183 16 8C16 3.58172 12.4183 0 8 0C3.58172 0 0 3.58172 0 8C0 12.4183 3.58172 16 8 16Z" fill="#615085"/>
</mask>
<g mask="url(#mask0_2075_2629)">
<path d="M9.0665 5.33398H4.2665C3.38285 5.33398 2.6665 6.05033 2.6665 6.93398V11.734C2.6665 12.6176 3.38285 13.334 4.2665 13.334H9.0665C9.95016 13.334 10.6665 12.6176 10.6665 11.734V6.93398C10.6665 6.05033 9.95016 5.33398 9.0665 5.33398Z" stroke="white"/>
<path d="M5.3335 5.4811V4.26699C5.3335 3.38334 6.04984 2.66699 6.9335 2.66699H11.7335C12.6172 2.66699 13.3335 3.38334 13.3335 4.26699V9.06699C13.3335 9.95065 12.6172 10.667 11.7335 10.667H10.412" stroke="white"/>
</g>
</svg>
