<svg width="24" height="24" viewBox="0 0 24 24" fill="#fff" xmlns="http://www.w3.org/2000/svg">
<path d="M16.909 3.818V5.45437C16.909 6.01414 16.6939 6.55249 16.3081 6.95808C15.9223 7.36367 15.3954 7.60547 14.8363 7.63346L14.7272 7.63619H9.27266C8.71289 7.63619 8.17454 7.42104 7.76895 7.03525C7.36335 6.64945 7.12156 6.12253 7.09357 5.56346L7.09084 5.45437V3.818H5.99993C5.42128 3.818 4.86633 4.04787 4.45716 4.45704C4.04798 4.86621 3.81812 5.42117 3.81812 5.99982V19.6362C3.81812 20.2148 4.04798 20.7698 4.45716 21.179C4.86633 21.5881 5.42128 21.818 5.99993 21.818H17.9999C18.5786 21.818 19.1335 21.5881 19.5427 21.179C19.9519 20.7698 20.1818 20.2148 20.1818 19.6362V5.99982C20.1818 5.42117 19.9519 4.86621 19.5427 4.45704C19.1335 4.04787 18.5786 3.818 17.9999 3.818H16.909ZM7.36357 14.9089H16.6363C16.8464 14.909 17.0484 14.99 17.2005 15.135C17.3526 15.28 17.443 15.4779 17.4531 15.6878C17.4632 15.8976 17.3922 16.1034 17.2547 16.2623C17.1173 16.4212 16.924 16.5212 16.7148 16.5415L16.6363 16.5453H7.36357C7.14657 16.5453 6.93847 16.4591 6.78503 16.3056C6.63159 16.1522 6.54539 15.9441 6.54539 15.7271C6.54539 15.5101 6.63159 15.302 6.78503 15.1486C6.93847 14.9951 7.14657 14.9089 7.36357 14.9089ZM7.36357 11.6362H16.6363C16.8464 11.6363 17.0484 11.7172 17.2005 11.8622C17.3526 12.0072 17.443 12.2052 17.4531 12.415C17.4632 12.6249 17.3922 12.8306 17.2547 12.9896C17.1173 13.1485 16.924 13.2485 16.7148 13.2687L16.6363 13.2725H7.36357C7.14657 13.2725 6.93847 13.1863 6.78503 13.0329C6.63159 12.8795 6.54539 12.6714 6.54539 12.4544C6.54539 12.2374 6.63159 12.0293 6.78503 11.8758C6.93847 11.7224 7.14657 11.6362 7.36357 11.6362ZM11.9999 2.18164C11.5162 2.1817 11.0462 2.34245 10.6637 2.63864C10.2812 2.93482 10.008 3.34966 9.88684 3.818H8.18175V5.18164C8.18175 5.36072 8.21702 5.53804 8.28555 5.70348C8.35408 5.86893 8.45453 6.01925 8.58115 6.14588C8.83688 6.40161 9.18373 6.54528 9.54539 6.54528H14.4545C14.8161 6.54528 15.163 6.40161 15.4187 6.14588C15.6744 5.89015 15.8181 5.5433 15.8181 5.18164V3.818H14.113C13.9919 3.34966 13.7187 2.93482 13.3362 2.63864C12.9537 2.34245 12.4837 2.1817 11.9999 2.18164Z" fill="fff"/>
</svg>
