<svg width="16" height="16" viewBox="0 0 16 16" fill="none" xmlns="http://www.w3.org/2000/svg">
<path d="M13.2956 6.68284C13.2078 6.40668 12.9822 6.20584 12.7001 6.1619L11.8352 6.0301L10.0488 5.72256C9.94223 5.70374 9.84821 5.6347 9.79806 5.53428V5.528C9.7918 5.50289 9.7918 5.48407 9.77926 5.45896L8.66356 3.09908C8.63222 3.03004 8.58834 2.96728 8.54447 2.91707C8.4003 2.76016 8.21227 2.66602 8.00542 2.66602C7.72336 2.66602 7.47264 2.8292 7.34728 3.0928L6.09369 5.74139L3.29817 6.16818C3.01611 6.21211 2.79046 6.40668 2.70271 6.68911C2.61496 6.97154 2.69018 7.27281 2.89075 7.47365L4.91531 9.53227L4.43894 12.4382C4.3888 12.7269 4.50162 13.0156 4.73354 13.1851C4.95918 13.3608 5.26005 13.3796 5.5045 13.2416L8.00542 11.867L10.5063 13.2416C10.6129 13.3043 10.732 13.3294 10.8448 13.3294C10.9952 13.3294 11.1457 13.2792 11.2773 13.1788C11.503 13.0031 11.6158 12.7206 11.5719 12.4319L11.0955 9.52599L13.1201 7.46737C13.3144 7.26653 13.3833 6.96527 13.2956 6.68284Z" fill="url(#paint0_linear_501_4564)"/>
<defs>
<linearGradient id="paint0_linear_501_4564" x1="3.73317" y1="5.59935" x2="9.8665" y2="11.466" gradientUnits="userSpaceOnUse">
<stop stop-color="#FF8C5B"/>
<stop offset="1" stop-color="#FFE45B"/>
</linearGradient>
</defs>
</svg>
