<svg width="108" height="108" viewBox="0 0 108 108" fill="none" xmlns="http://www.w3.org/2000/svg">
<g opacity="0.1">
<mask id="mask0_7637_5570" style="mask-type:alpha" maskUnits="userSpaceOnUse" x="0" y="0" width="108" height="108">
<rect width="108" height="108" rx="2" fill="#3E2D58"/>
</mask>
<g mask="url(#mask0_7637_5570)">
<path d="M79.1826 14.1345L75.0683 14.0679C74.9703 14.0679 69.5222 13.8769 60 10.1076C50.2337 6.23891 43.935 1.79615 43.8757 1.75335L41.3875 0L38.9192 1.75335C38.8605 1.79615 32.5612 6.23891 22.7949 10.1076C13.2724 13.8769 7.82446 14.0679 7.73634 14.0679L3.60254 14.1345V54.9961C3.60254 75.5079 37.4642 97.1613 41.3979 97.2C45.2383 97.2378 79.2025 75.5078 79.2025 54.9966L79.1826 14.1345Z" fill="url(#paint0_linear_7637_5570)"/>
<path opacity="0.7" d="M71.994 46.3442C71.9924 46.9968 71.6833 47.6223 71.1344 48.0838C70.5854 48.5452 69.8412 48.805 69.0649 48.8063H59.7476C59.5453 48.806 59.3472 48.7569 59.177 48.665C59.0067 48.573 58.8713 48.442 58.7868 48.2875L57.9657 46.7945C57.8897 46.6562 57.7694 46.5384 57.6184 46.4541C57.4673 46.3699 57.2914 46.3226 57.1102 46.3175C56.929 46.3124 56.7497 46.3498 56.5923 46.4254C56.4349 46.501 56.3055 46.6118 56.2187 46.7456L47.5537 60.3336C47.3876 60.5931 47.1416 60.8102 46.8414 60.9624C46.5412 61.1146 46.1979 61.1963 45.8474 61.1988C45.4968 61.2013 45.1519 61.1246 44.8487 60.9767C44.5455 60.8288 44.2951 60.6151 44.1238 60.3581L30.3576 39.7167C30.2665 39.581 30.1313 39.4698 29.968 39.3962C29.8046 39.3225 29.6197 39.2894 29.4348 39.3007C29.2499 39.312 29.0726 39.3672 28.9236 39.4599C28.7746 39.5526 28.66 39.679 28.5931 39.8243L25.0118 47.749C24.8703 48.0602 24.6197 48.3279 24.2932 48.5167C23.9666 48.7055 23.5796 48.8065 23.1833 48.8063H13.604C12.849 48.778 12.1361 48.506 11.6137 48.0469C11.0913 47.5878 10.7998 46.977 10.7998 46.3418C10.7998 45.7065 11.0913 45.0957 11.6137 44.6366C12.1361 44.1775 12.849 43.9055 13.604 43.8772H19.1361C19.9456 43.8772 20.6735 43.4563 20.9588 42.82L26.8112 29.8585C26.9435 29.5663 27.1722 29.3118 27.4705 29.1249C27.7688 28.938 28.1242 28.8264 28.4952 28.8033C28.8662 28.7802 29.2374 28.8465 29.5652 28.9944C29.893 29.1422 30.1638 29.3656 30.3459 29.6382L44.8808 51.4152C44.967 51.5431 45.0923 51.6491 45.2437 51.7225C45.3952 51.7958 45.5672 51.8337 45.742 51.8322C45.9168 51.8307 46.0879 51.7898 46.2375 51.7139C46.3871 51.638 46.5098 51.5298 46.5929 51.4006L55.6888 37.1567C55.8609 36.8885 56.1182 36.6658 56.4321 36.5134C56.7459 36.361 57.104 36.2848 57.4663 36.2935C57.8286 36.3021 58.181 36.3952 58.4841 36.5623C58.7871 36.7294 59.029 36.964 59.1828 37.2399L62.3041 42.9228C62.4604 43.207 62.7101 43.4478 63.0237 43.6169C63.3372 43.786 63.7018 43.8763 64.0743 43.8772H69.0649C70.6837 43.8772 71.9998 44.9835 71.9998 46.3442H71.994Z" fill="white"/>
<path d="M105.341 94.627C105.326 101.937 93.8347 107.858 79.6699 107.858C65.498 107.858 54.0151 101.93 54 94.627V90.6221C58.7902 95.8824 68.3778 99.4023 79.6699 99.4023C90.9622 99.4023 100.543 95.8825 105.341 90.6221V94.627ZM54 78.8691C55.2269 80.2136 56.7771 81.441 58.5771 82.5283C58.6432 82.565 58.7171 82.602 58.7832 82.6387C59.4515 83.0353 60.164 83.417 60.8984 83.7695C61.2656 83.9458 61.6552 84.1075 62.0371 84.2764C62.5807 84.5114 63.1321 84.7391 63.7051 84.9521C64.1018 85.0991 64.4988 85.2462 64.9102 85.3857C65.6669 85.6429 66.4531 85.8709 67.2539 86.084C67.5331 86.1575 67.8053 86.2381 68.0918 86.3115C69.0836 86.5539 70.1194 86.767 71.1699 86.9434C71.5446 87.0095 71.9193 87.0609 72.2939 87.1123C73.1315 87.2299 73.9768 87.3332 74.8438 87.4141C75.211 87.4434 75.5786 87.4794 75.9531 87.5088C77.1726 87.5969 78.4142 87.6562 79.6777 87.6562C80.9487 87.6562 82.1828 87.5969 83.4023 87.5088C83.7769 87.4868 84.1445 87.4508 84.5117 87.4141C85.3787 87.3332 86.224 87.2372 87.0615 87.1123C87.436 87.0536 87.8106 87.0094 88.1777 86.9434C89.2356 86.767 90.2792 86.554 91.2783 86.3115C91.5575 86.2454 91.8151 86.1643 92.0869 86.0908C92.8875 85.8778 93.6736 85.6506 94.4375 85.3936C94.8489 85.254 95.2459 85.1069 95.6426 84.96C96.2156 84.7469 96.7669 84.5193 97.3105 84.2842C97.6925 84.1152 98.0819 83.9536 98.4492 83.7773C99.1913 83.4173 99.8969 83.0422 100.565 82.6455C100.624 82.6088 100.698 82.5718 100.764 82.5352C102.571 81.4553 104.114 80.2286 105.333 78.877V82.8809C105.333 84.4751 104.753 85.9962 103.746 87.4141C103.717 87.4507 103.688 87.4951 103.658 87.5391C103.438 87.8402 103.195 88.1339 102.931 88.4277C102.894 88.4644 102.865 88.5014 102.828 88.5381C101.719 89.743 100.278 90.8378 98.5518 91.8076L98.1992 92.0059C97.854 92.1895 97.4937 92.3657 97.1338 92.542C96.9355 92.6301 96.7442 92.7253 96.5459 92.8135C96.208 92.9677 95.8629 93.1148 95.5029 93.2617C95.2531 93.3646 95.0032 93.4602 94.7461 93.5557C94.4082 93.6805 94.0704 93.8131 93.7178 93.9307C93.3798 94.0482 93.0196 94.1505 92.667 94.2607C92.2482 94.393 91.8294 94.5114 91.4033 94.6289C90.8891 94.7685 90.3746 94.9 89.8457 95.0176C89.5739 95.0763 89.2874 95.1278 89.001 95.1865C88.5602 95.282 88.1118 95.3709 87.6562 95.4443C87.3625 95.4957 87.0609 95.5399 86.7598 95.584C86.2897 95.6574 85.8192 95.7157 85.3418 95.7744C85.048 95.8038 84.7542 95.8407 84.4531 95.8701C83.9243 95.9215 83.3955 95.9584 82.8594 95.9951C82.6024 96.0098 82.3449 96.0322 82.0879 96.0469C81.2871 96.091 80.4859 96.1123 79.6631 96.1123C78.8476 96.1123 78.0391 96.0836 77.2383 96.0469C76.9812 96.0322 76.7239 96.0098 76.4668 95.9951C75.9306 95.9584 75.3945 95.9215 74.873 95.8701C74.5718 95.8407 74.2773 95.8111 73.9834 95.7744C73.506 95.7156 73.0355 95.6501 72.5654 95.584C72.2645 95.5399 71.9635 95.4957 71.6699 95.4443C71.2145 95.3635 70.766 95.2747 70.3252 95.1865C70.0461 95.1351 69.7595 95.0763 69.4805 95.0176C68.9516 94.8927 68.4297 94.7684 67.9229 94.6289C67.4895 94.5114 67.0705 94.3856 66.6592 94.2607C66.3066 94.1506 65.9536 94.0482 65.6084 93.9307C65.2559 93.8132 64.9179 93.6805 64.5801 93.5557C64.323 93.4602 64.073 93.3645 63.8232 93.2617C63.4706 93.1221 63.1246 92.9678 62.7793 92.8135C62.5811 92.7254 62.3823 92.6374 62.1914 92.542C61.8243 92.3658 61.472 92.1894 61.127 92.0059C61.0021 91.9397 60.891 91.8737 60.7734 91.8076C59.0471 90.8379 57.6074 89.7429 56.498 88.5381C56.4687 88.5087 56.4317 88.4713 56.4023 88.4346C56.138 88.1408 55.8951 87.8401 55.6748 87.5391C55.6455 87.4951 55.6163 87.458 55.5869 87.4141C54.5804 86.0035 54.0001 84.4751 54 82.8809V78.8691ZM79.6699 53.3301C93.8495 53.3301 105.341 59.2586 105.341 66.5762H105.355V71.1309C105.355 72.725 104.775 74.2462 103.769 75.6641C103.739 75.7007 103.71 75.7451 103.681 75.7891C103.46 76.0903 103.218 76.3848 102.953 76.6787C102.916 76.7154 102.886 76.7514 102.85 76.7881C101.74 77.9929 100.301 79.0879 98.5742 80.0576C98.4568 80.1237 98.3464 80.1898 98.2217 80.2559C97.8764 80.4395 97.5163 80.6166 97.1562 80.793C96.9652 80.8811 96.7736 80.9763 96.5752 81.0645C96.2302 81.2186 95.8851 81.3727 95.5254 81.5195C95.2829 81.615 95.0252 81.7111 94.7754 81.8066C94.4302 81.9388 94.0918 82.071 93.7393 82.1885C93.4014 82.2986 93.0488 82.4016 92.6963 82.5117C92.3732 82.6072 92.0648 82.7097 91.7344 82.7979C91.7197 82.7979 91.712 82.8057 91.6973 82.8057C91.6019 82.8277 91.4919 82.8496 91.3965 82.8789C90.897 83.0111 90.3897 83.1432 89.8682 83.2607C89.7507 83.2828 89.6404 83.3129 89.5303 83.335C89.4421 83.357 89.3533 83.371 89.2725 83.3857C89.1917 83.4077 89.1037 83.4228 89.0156 83.4375C88.5748 83.533 88.1264 83.6209 87.6709 83.6943C87.5167 83.7164 87.3622 83.7534 87.208 83.7754C87.0611 83.7974 86.9066 83.812 86.7598 83.834C86.297 83.9001 85.8265 83.9588 85.3564 84.0176C85.1656 84.0396 84.9819 84.0698 84.791 84.0918C84.6735 84.1065 84.556 84.1064 84.4385 84.1211C83.9243 84.1725 83.4029 84.2094 82.874 84.2461C82.6684 84.2608 82.4771 84.2827 82.2715 84.29C82.2054 84.2974 82.1462 84.2969 82.0801 84.2969C81.2866 84.3336 80.4854 84.3555 79.6699 84.3555C78.8546 84.3555 78.054 84.3336 77.2607 84.2969C77.1946 84.2895 77.1355 84.29 77.0693 84.29C76.8637 84.2827 76.6725 84.2608 76.4668 84.2461C75.938 84.2094 75.4165 84.1725 74.9023 84.1211C74.7849 84.1064 74.6672 84.1064 74.5498 84.0918C74.3588 84.0698 74.1744 84.0396 73.9834 84.0176C73.5133 83.9662 73.0428 83.9001 72.5801 83.834C72.4333 83.812 72.2786 83.7974 72.1318 83.7754C71.9705 83.7534 71.8239 83.7237 71.6699 83.6943C71.2145 83.6135 70.7659 83.5256 70.3252 83.4375C70.237 83.4155 70.1487 83.4004 70.0605 83.3857L69.8184 83.3418C69.7009 83.3198 69.5905 83.2906 69.4805 83.2686C68.9589 83.151 68.4516 83.0189 67.9521 82.8867C67.8493 82.8647 67.7459 82.8429 67.6504 82.8135C67.636 82.8134 67.6286 82.8058 67.6143 82.8057C67.2836 82.7175 66.9746 82.615 66.6514 82.5195C66.2988 82.4167 65.9463 82.3138 65.6084 82.1963C65.2557 82.0714 64.9176 81.9457 64.5723 81.8135C64.3226 81.718 64.0656 81.6301 63.8232 81.5273C63.4632 81.3804 63.1178 81.2256 62.7725 81.0713C62.5741 80.9831 62.3824 80.8953 62.1914 80.7998C61.8243 80.6236 61.472 80.4472 61.127 80.2637L60.7734 80.0654C59.0471 79.0957 57.6074 78.0007 56.498 76.7959C56.4687 76.7666 56.4317 76.73 56.4023 76.6934C56.1379 76.3995 55.8952 76.0981 55.6748 75.7969C55.6454 75.7528 55.6163 75.7159 55.5869 75.6719C54.5804 74.2613 54 72.733 54 71.1387V66.5762C54 59.2587 65.4905 53.3302 79.6699 53.3301Z" fill="url(#paint1_linear_7637_5570)"/>
</g>
</g>
<defs>
<linearGradient id="paint0_linear_7637_5570" x1="41.4025" y1="0" x2="41.4025" y2="97.2" gradientUnits="userSpaceOnUse">
<stop stop-color="#BAB6DA"/>
<stop offset="1" stop-color="#574970"/>
</linearGradient>
<linearGradient id="paint1_linear_7637_5570" x1="79.6777" y1="53.3301" x2="79.6777" y2="107.858" gradientUnits="userSpaceOnUse">
<stop stop-color="#BAB6DA"/>
<stop offset="1" stop-color="#574970"/>
</linearGradient>
</defs>
</svg>
