<svg width="27" height="26" viewBox="0 0 27 26" fill="none" xmlns="http://www.w3.org/2000/svg">
<path fill-rule="evenodd" clip-rule="evenodd" d="M13.5002 0C13.9973 0 14.4002 0.4014 14.4002 0.896552V8.06897C14.4002 8.56412 13.9973 8.96552 13.5002 8.96552C13.0031 8.96552 12.6002 8.56412 12.6002 8.06897V0.896552C12.6002 0.4014 13.0031 0 13.5002 0ZM24.8018 6.5C25.0504 6.92881 24.9029 7.47714 24.4724 7.72471L18.237 11.3109C17.8066 11.5585 17.2561 11.4116 17.0076 10.9828C16.7591 10.5539 16.9066 10.0056 17.337 9.75804L23.5724 6.17184C24.0029 5.92426 24.5533 6.07119 24.8018 6.5ZM20.0252 1.74167C20.4557 1.98924 20.6031 2.53757 20.3546 2.96638L16.7546 9.17789C16.5061 9.6067 15.9557 9.75363 15.5252 9.50605C15.0947 9.25848 14.9472 8.71015 15.1958 8.28134L18.7958 2.06983C19.0443 1.64101 19.5947 1.49409 20.0252 1.74167ZM26.5502 13C26.5502 13.4952 26.1473 13.8966 25.6502 13.8966H18.4502C17.9531 13.8966 17.5502 13.4952 17.5502 13C17.5502 12.5048 17.9531 12.1034 18.4502 12.1034H25.6502C26.1473 12.1034 26.5502 12.5048 26.5502 13ZM16.7546 16.8221L20.3546 23.0336C20.6031 23.4624 20.4557 24.0108 20.0252 24.2583C19.5947 24.5059 19.0443 24.359 18.7958 23.9302L15.1958 17.7187C14.9472 17.2898 15.0947 16.7415 15.5252 16.4939C15.9557 16.2464 16.5061 16.3933 16.7546 16.8221ZM18.237 14.6891L24.4724 18.2753C24.9029 18.5229 25.0504 19.0712 24.8018 19.5C24.5533 19.9288 24.0029 20.0757 23.5724 19.8282L17.337 16.242C16.9066 15.9944 16.7591 15.4461 17.0076 15.0172C17.2561 14.5884 17.8066 14.4415 18.237 14.6891ZM13.5002 26C13.0031 26 12.6002 25.5986 12.6002 25.1034V17.931C12.6002 17.4359 13.0031 17.0345 13.5002 17.0345C13.9973 17.0345 14.4002 17.4359 14.4002 17.931V25.1034C14.4002 25.5986 13.9973 26 13.5002 26ZM11.4752 16.4939C11.9057 16.7415 12.0531 17.2898 11.8046 17.7187L8.20462 23.9302C7.95609 24.359 7.40566 24.5059 6.97519 24.2583C6.54473 24.0108 6.39724 23.4624 6.64577 23.0336L10.2458 16.8221C10.4943 16.3933 11.0447 16.2464 11.4752 16.4939ZM9.9928 15.0172C10.2413 15.4461 10.0938 15.9944 9.66337 16.242L3.42798 19.8282C2.99752 20.0757 2.44709 19.9288 2.19856 19.5C1.95003 19.0712 2.09752 18.5229 2.52798 18.2753L8.76337 14.6891C9.19383 14.4415 9.74427 14.5884 9.9928 15.0172ZM0.450195 13C0.450195 12.5048 0.853139 12.1034 1.3502 12.1034H8.55019C9.04725 12.1034 9.4502 12.5048 9.4502 13C9.4502 13.4952 9.04725 13.8966 8.55019 13.8966H1.3502C0.853139 13.8966 0.450195 13.4952 0.450195 13ZM3.42798 6.17184L9.66337 9.75804C10.0938 10.0056 10.2413 10.5539 9.9928 10.9828C9.74427 11.4116 9.19383 11.5585 8.76337 11.3109L2.52798 7.72471C2.09752 7.47714 1.95003 6.92881 2.19856 6.5C2.44709 6.07119 2.99752 5.92426 3.42798 6.17184ZM8.20462 2.06983L11.8046 8.28134C12.0531 8.71015 11.9057 9.25848 11.4752 9.50605C11.0447 9.75363 10.4943 9.6067 10.2458 9.17789L6.64577 2.96638C6.39724 2.53757 6.54473 1.98924 6.97519 1.74167C7.40566 1.49409 7.95609 1.64101 8.20462 2.06983Z" fill="url(#paint0_linear_1069_674)"/>
<defs>
<linearGradient id="paint0_linear_1069_674" x1="0.450195" y1="13" x2="26.5502" y2="13" gradientUnits="userSpaceOnUse">
<stop stop-color="#8D42FF"/>
<stop offset="1" stop-color="#5A7EFF"/>
</linearGradient>
</defs>
</svg>
