<svg width="30" height="30" viewBox="0 0 30 30" fill="none" xmlns="http://www.w3.org/2000/svg">
<mask id="mask0_1341_3893" style="mask-type:alpha" maskUnits="userSpaceOnUse" x="0" y="0" width="30" height="30">
<rect width="30" height="30" fill="#D9D9D9"/>
</mask>
<g mask="url(#mask0_1341_3893)">
<circle cx="12" cy="12" r="12" fill="url(#paint0_linear_1341_3893)"/>
<path opacity="0.7" d="M4.09831 11.4311C4.24992 11.4607 4.3854 11.5449 4.47819 11.6684C4.57093 11.7918 4.61494 11.9453 4.60124 12.0991C4.60124 12.3331 4.66783 17.984 10.6198 19.2211C12.1135 19.5558 13.6758 19.3918 15.0671 18.7534C15.6403 18.4401 16.1884 18.082 16.7057 17.6831C17.8878 16.7397 18.7512 15.4558 19.1794 14.0053C19.2056 13.9221 19.2483 13.8447 19.3044 13.7778C19.3606 13.7108 19.4299 13.6551 19.5075 13.6147C19.5851 13.5743 19.6703 13.55 19.7575 13.5424C19.8445 13.5349 19.932 13.5445 20.0153 13.5708C20.0987 13.5971 20.1768 13.6395 20.2438 13.6958C20.3106 13.7519 20.3656 13.8206 20.4059 13.8979C20.4463 13.9755 20.4716 14.0607 20.4792 14.1479C20.4868 14.235 20.4772 14.3233 20.4508 14.4067C19.9469 16.1181 18.9317 17.6349 17.5417 18.7534C16.9572 19.2229 16.3298 19.6362 15.6686 19.9897C14.5664 20.493 13.3696 20.7556 12.1579 20.7592H12.1559C11.5488 20.7586 10.9437 20.6917 10.3512 20.559C5.8707 19.6228 4.23163 16.4795 3.62956 14.3061L3.29558 14.975C3.25856 15.0578 3.20485 15.1322 3.13835 15.1938C3.07184 15.2554 2.99321 15.3028 2.90788 15.3334C2.82238 15.364 2.73095 15.377 2.6403 15.3715C2.54975 15.3661 2.46073 15.3427 2.37956 15.3022C2.29852 15.2617 2.22633 15.2052 2.16765 15.1362C2.1089 15.067 2.06468 14.9865 2.03776 14.8999C2.01086 14.8131 2.00211 14.7216 2.0114 14.6313C2.02069 14.541 2.04844 14.4529 2.09245 14.3735L3.32878 11.7983C3.39807 11.6604 3.51183 11.5494 3.65105 11.4829C3.79021 11.4164 3.94758 11.3985 4.09831 11.4311ZM11.7214 5.88032C11.8091 5.88034 11.8961 5.89751 11.9772 5.9311C12.0582 5.96468 12.132 6.01364 12.194 6.07563C12.256 6.13761 12.3049 6.21148 12.3385 6.29243C12.3721 6.37345 12.3903 6.4606 12.3903 6.54829V7.62837C13.9498 7.82057 14.8539 8.67008 14.9977 10.1596H13.3591C13.2738 9.78685 13.0613 9.45534 12.7575 9.2231C12.6398 9.15642 12.5166 9.10128 12.3903 9.0561V11.1762C13.0574 11.3375 13.6991 11.5913 14.2956 11.9321C14.6054 12.1028 14.8629 12.3552 15.0397 12.6616C15.2165 12.9681 15.3058 13.3176 15.2985 13.6713C15.2984 15.2164 14.321 16.0989 12.3903 16.2768V17.2485C12.3897 17.4256 12.3183 17.5959 12.193 17.7211C12.0678 17.8462 11.8983 17.9168 11.7214 17.9174C11.5442 17.9169 11.374 17.8464 11.2487 17.7211C11.1234 17.5959 11.0529 17.4256 11.0524 17.2485V16.2875C9.14026 16.1339 8.09471 15.1748 7.94206 13.4038H9.61394C9.65858 13.8657 9.8736 14.2951 10.2165 14.6079C10.4752 14.7611 10.7589 14.8636 11.0524 14.9125V12.3657C10.1521 12.1425 9.49677 11.9196 9.14616 11.6645C8.85049 11.4974 8.60463 11.2542 8.43425 10.9604C8.26392 10.6666 8.17456 10.3322 8.17644 9.99263C8.16282 9.64111 8.24259 9.29196 8.4069 8.98091C8.57124 8.6699 8.81493 8.40799 9.11296 8.22114C9.70001 7.85377 10.3666 7.63997 11.0524 7.59224V6.54829C11.0525 6.4606 11.0696 6.37345 11.1032 6.29243C11.1368 6.21137 11.1867 6.13768 11.2487 6.07563C11.3107 6.01365 11.3845 5.96467 11.4655 5.9311C11.5466 5.89751 11.6336 5.88032 11.7214 5.88032ZM12.3903 14.8774C13.1768 14.738 13.5933 14.3715 13.5934 13.8051C13.5804 13.5929 13.5031 13.3893 13.3717 13.2221C13.2404 13.0549 13.0612 12.9315 12.8581 12.8686C12.7043 12.8048 12.5478 12.7477 12.3903 12.6948V14.8774ZM8.17644 3.8061C9.82989 3.0115 11.7036 2.79952 13.4928 3.20454C17.9733 4.14079 19.6115 7.28411 20.2135 9.45747L20.5485 8.78853C20.6304 8.63256 20.7705 8.51451 20.9382 8.4604C21.1057 8.40647 21.2875 8.42085 21.445 8.49946C21.6026 8.57827 21.7236 8.71562 21.7809 8.88228C21.8382 9.04873 21.8281 9.23108 21.7526 9.39009L20.5153 11.9663C20.4723 12.092 20.3906 12.201 20.2829 12.2788C20.1753 12.3564 20.0465 12.3994 19.9137 12.4008V12.3999C19.8562 12.402 19.7989 12.3909 19.7467 12.3666C19.5952 12.3371 19.4597 12.2527 19.3669 12.1293C19.274 12.0058 19.231 11.8516 19.2448 11.6977C19.2447 11.4587 19.1744 5.81217 13.2253 4.57563C11.7317 4.24103 10.1692 4.40519 8.778 5.04341C8.20475 5.35678 7.65673 5.71484 7.13933 6.11372C5.95707 7.05705 5.0938 8.34179 4.66569 9.79243C4.60963 9.95729 4.49096 10.0936 4.33562 10.1723C4.18013 10.2511 3.99986 10.2658 3.83366 10.2133C3.66745 10.1608 3.52801 10.0449 3.44597 9.89106C3.36414 9.73738 3.34628 9.55721 3.39519 9.39009C3.89902 7.67867 4.91346 6.16185 6.30339 5.04341C6.89334 4.58146 7.52009 4.16756 8.17644 3.8061ZM11.0524 8.9311C10.7856 8.96008 10.5248 9.03578 10.2829 9.15669C10.1462 9.22284 10.032 9.32772 9.95476 9.45845C9.87743 9.5893 9.84027 9.74025 9.84831 9.89204C9.84836 10.1929 10.0826 10.4258 10.5173 10.6274C10.6938 10.6965 10.8726 10.7591 11.0524 10.8188V8.9311Z" fill="white"/>
<path d="M19.3907 25.5615L16.4373 22.4366C16.3818 22.3781 16.3384 22.3081 16.3098 22.231C16.2811 22.1539 16.2679 22.0714 16.2709 21.9886C16.274 21.9058 16.2932 21.8246 16.3273 21.75C16.3615 21.6755 16.4099 21.6093 16.4695 21.5555C17.8309 20.3192 19.701 19.8979 21.4181 20.423L24.507 17.8671C24.4561 17.376 24.5104 16.8791 24.6658 16.4132C24.8211 15.9473 25.0736 15.5244 25.4045 15.1759C25.511 15.0633 25.6553 15 25.8058 15C25.9563 15 26.1006 15.0633 26.2071 15.1759L29.8336 19.0141C29.8864 19.0699 29.9282 19.1361 29.9568 19.209C29.9853 19.2819 30 19.3601 30 19.439C30 19.5179 29.9853 19.596 29.9568 19.669C29.9282 19.7419 29.8864 19.8081 29.8336 19.8639C29.5045 20.2143 29.1049 20.4816 28.6647 20.6461C28.2245 20.8105 27.7549 20.8679 27.2908 20.8138L24.9629 23.9656C25.5824 25.8454 25.2115 27.9824 23.9787 29.503C23.9278 29.5659 23.8652 29.6169 23.7947 29.6529C23.7243 29.689 23.6476 29.7092 23.5694 29.7123C23.4913 29.7155 23.4133 29.7015 23.3405 29.6713C23.2677 29.6411 23.2015 29.5952 23.1462 29.5366L20.1936 26.4109L16.9682 29.8246C16.8573 29.9415 16.712 30 16.5671 30C16.4549 29.9999 16.3453 29.9646 16.252 29.8986C16.1588 29.8326 16.0861 29.7388 16.0432 29.6291C16.0003 29.5194 15.989 29.3987 16.0109 29.2822C16.0327 29.1658 16.0867 29.0588 16.166 28.9748L19.3911 25.5615H19.3907Z" fill="url(#paint1_linear_1341_3893)"/>
</g>
<defs>
<linearGradient id="paint0_linear_1341_3893" x1="12" y1="0" x2="12" y2="24" gradientUnits="userSpaceOnUse">
<stop stop-color="#BAB6DA"/>
<stop offset="1" stop-color="#574970"/>
</linearGradient>
<linearGradient id="paint1_linear_1341_3893" x1="23" y1="15" x2="23" y2="30" gradientUnits="userSpaceOnUse">
<stop stop-color="#BAB6DA"/>
<stop offset="1" stop-color="#574970"/>
</linearGradient>
</defs>
</svg>
