<svg width="30" height="30" viewBox="0 0 30 30" fill="none" xmlns="http://www.w3.org/2000/svg">
<path d="M28.8184 0.181641C29.3706 0.181641 29.8183 0.629392 29.8184 1.18164C29.8184 1.73393 29.3706 2.18164 28.8184 2.18164C14.1074 2.18184 2.18184 14.1074 2.18164 28.8184C2.18164 29.3706 1.73393 29.8184 1.18164 29.8184C0.629392 29.8183 0.181641 29.3706 0.181641 28.8184C0.181838 13.0029 13.0029 0.181838 28.8184 0.181641ZM28.8184 7.80566C29.3706 7.80566 29.8184 8.25338 29.8184 8.80566C29.8181 9.35774 29.3705 9.80566 28.8184 9.80566C18.3181 9.80589 9.80583 18.3181 9.80566 28.8184C9.80541 29.3704 9.35779 29.8184 8.80566 29.8184C8.25359 29.8183 7.80591 29.3704 7.80566 28.8184C7.80583 17.2135 17.2135 7.80589 28.8184 7.80566ZM28.8184 15.4297C29.3704 15.4299 29.8183 15.8776 29.8184 16.4297C29.8184 16.9818 29.3704 17.4295 28.8184 17.4297C22.5287 17.4299 17.4299 22.5287 17.4297 28.8184C17.4297 29.3705 16.9818 29.8181 16.4297 29.8184C15.8774 29.8184 15.4297 29.3706 15.4297 28.8184C15.4299 21.4241 21.4241 15.4299 28.8184 15.4297Z" fill="url(#paint0_linear_1050_635)"/>
<defs>
<linearGradient id="paint0_linear_1050_635" x1="0.181641" y1="29.8184" x2="59.4551" y2="29.8184" gradientUnits="userSpaceOnUse">
<stop stop-color="#8D42FF"/>
<stop offset="1" stop-color="#5A7EFF"/>
</linearGradient>
</defs>
</svg>
