<svg width="11" height="11" viewBox="0 0 11 11" fill="none" xmlns="http://www.w3.org/2000/svg">
  <path
    d="M2.77246 0C3.0486 0 3.27246 0.223858 3.27246 0.5C3.27246 0.776142 3.0486 1 2.77246 1H2.5C1.67157 1 1 1.67157 1 2.5V7.59082C1 8.41925 1.67157 9.09082 2.5 9.09082H7.59082C8.41925 9.09082 9.09082 8.41925 9.09082 7.59082V7.31836C9.09082 7.04225 9.31472 6.81841 9.59082 6.81836C9.86696 6.81836 10.0908 7.04222 10.0908 7.31836V7.59082C10.0908 8.97153 8.97153 10.0908 7.59082 10.0908H2.5C1.11929 10.0908 0 8.97153 0 7.59082V2.5C0 1.11929 1.11929 0 2.5 0H2.77246ZM7.59082 0C8.97153 0 10.0908 1.11929 10.0908 2.5V5.0459C10.0906 5.32184 9.86681 5.5459 9.59082 5.5459C9.31487 5.54585 9.09106 5.32181 9.09082 5.0459V2.5C9.09082 2.26893 9.03669 2.05096 8.94336 1.85547L4.49023 6.30957C4.29503 6.50454 3.97841 6.50454 3.7832 6.30957C3.58802 6.11438 3.58816 5.79782 3.7832 5.60254L8.2373 1.14746C8.04141 1.05366 7.82252 1 7.59082 1H5.0459C4.76976 1 4.5459 0.776142 4.5459 0.5C4.5459 0.223858 4.76976 0 5.0459 0H7.59082Z"
    fill="currentColor" />
</svg>