<svg width="14" height="14" viewBox="0 0 14 14" fill="none" xmlns="http://www.w3.org/2000/svg">
<path d="M9.38467 2.91667C9.22997 2.91664 9.08162 2.85517 8.97225 2.74578C8.86287 2.63639 8.80142 2.48803 8.80142 2.33333C8.80142 2.17864 8.86287 2.03028 8.97225 1.92089C9.08162 1.81149 9.22997 1.75002 9.38467 1.75H10.8897C11.641 1.75 12.25 2.359 12.25 3.1115V4.6865C12.25 4.84119 12.1885 4.98954 12.0791 5.09892C11.9697 5.2083 11.8214 5.26974 11.6667 5.26974C11.512 5.26974 11.3636 5.2083 11.2542 5.09892C11.1448 4.98954 11.0834 4.84119 11.0833 4.6865V3.1115C11.0833 3.05983 11.0628 3.01027 11.0263 2.97373C10.9897 2.93719 10.9402 2.91667 10.8885 2.91667H9.3835H9.38467ZM11.0833 7.03033C11.0833 6.95372 11.0984 6.87786 11.1277 6.80707C11.157 6.73629 11.2 6.67197 11.2542 6.6178C11.3083 6.56362 11.3726 6.52064 11.4434 6.49132C11.5142 6.462 11.5901 6.44691 11.6667 6.44691C11.7433 6.44691 11.8191 6.462 11.8899 6.49132C11.9607 6.52064 12.025 6.56362 12.0792 6.6178C12.1333 6.67197 12.1763 6.73629 12.2056 6.80707C12.2349 6.87786 12.25 6.95372 12.25 7.03033V10.8885C12.25 11.641 11.641 12.25 10.8885 12.25H3.1115C2.75041 12.25 2.4041 12.1066 2.14877 11.8512C1.89344 11.5959 1.75 11.2496 1.75 10.8885V3.1115C1.75 2.359 2.359 1.75 3.1115 1.75H7.0105C7.16519 1.75002 7.31354 1.81149 7.42292 1.92089C7.5323 2.03028 7.59374 2.17864 7.59374 2.33333C7.59374 2.48803 7.5323 2.63639 7.42292 2.74578C7.31354 2.85517 7.16519 2.91664 7.0105 2.91667H3.1115C3.05983 2.91667 3.01027 2.93719 2.97373 2.97373C2.93719 3.01027 2.91667 3.05983 2.91667 3.1115V10.8885C2.91667 10.9958 3.00417 11.0833 3.1115 11.0833H10.8885C10.9402 11.0833 10.9897 11.0628 11.0263 11.0263C11.0628 10.9897 11.0833 10.9402 11.0833 10.8885V7.03033Z" fill="#fff"/>
<path d="M7.41175 7.41282L11.6187 3.22332C11.6731 3.16923 11.7162 3.10498 11.7457 3.03423C11.7751 2.96348 11.7904 2.88762 11.7906 2.81097C11.7907 2.73432 11.7758 2.6584 11.7466 2.58752C11.7174 2.51665 11.6746 2.45221 11.6205 2.3979C11.5664 2.34359 11.5022 2.30046 11.4314 2.27098C11.3607 2.2415 11.2848 2.22624 11.2081 2.22608C11.1315 2.22591 11.0556 2.24085 10.9847 2.27003C10.9138 2.29921 10.8494 2.34207 10.7951 2.39615L6.58808 6.58682C6.53229 6.64055 6.48777 6.70485 6.4571 6.77598C6.42643 6.8471 6.41023 6.92362 6.40945 7.00107C6.40867 7.07853 6.42332 7.15536 6.45255 7.22708C6.48178 7.29881 6.525 7.364 6.5797 7.41885C6.63439 7.47369 6.69945 7.5171 6.7711 7.54653C6.84274 7.57596 6.91953 7.59083 6.99698 7.59027C7.07444 7.58971 7.151 7.57373 7.22221 7.54326C7.29342 7.51279 7.35785 7.46845 7.41175 7.41282Z" fill="#fff"/>
</svg>
