<svg width="19" height="19" viewBox="0 0 19 19" fill="none" xmlns="http://www.w3.org/2000/svg">
<path opacity="0.2" fill-rule="evenodd" clip-rule="evenodd" d="M9.40992 18.8374C4.21297 18.8374 0 14.6245 0 9.4275C0 4.23054 4.21297 0.0175781 9.40992 0.0175781C14.6069 0.0175781 18.8198 4.23054 18.8198 9.4275C18.8198 14.6245 14.6069 18.8374 9.40992 18.8374Z" fill="#BFABFF"/>
<path d="M10.4557 4.7223V9.95004C10.4557 10.5275 9.98755 10.9956 9.41011 10.9956C8.83267 10.9956 8.36456 10.5275 8.36456 9.95004V4.7223C8.36456 4.14487 8.83267 3.67676 9.41011 3.67676C9.98755 3.67676 10.4557 4.14486 10.4557 4.7223Z" fill="#BFABFF"/>
<path d="M9.41011 15.1778C8.83267 15.1778 8.36456 14.7097 8.36456 14.1322C8.36456 13.5548 8.83267 13.0867 9.41011 13.0867C9.98755 13.0867 10.4557 13.5548 10.4557 14.1322C10.4557 14.7097 9.98755 15.1778 9.41011 15.1778Z" fill="#BFABFF"/>
</svg>
