<svg width="13" height="12" viewBox="0 0 13 12" fill="none" xmlns="http://www.w3.org/2000/svg">
<path d="M11.3398 7.25009C11.6622 7.25009 11.9483 7.45615 12.0508 7.7618C12.1531 8.06739 12.0491 8.40451 11.792 8.59872L7.81543 11.5987L7.75195 11.6417C7.42711 11.8384 6.99949 11.7618 6.76562 11.4522C6.51623 11.1217 6.5818 10.651 6.91211 10.4015L9.10059 8.75008H1.66016L1.58301 8.74618C1.20502 8.70764 0.910255 8.38822 0.910156 8.00009C0.910156 7.61187 1.20497 7.29255 1.58301 7.25399L1.66016 7.25009H11.3398ZM5.24805 0.358484C5.57292 0.161591 6.00047 0.238314 6.23438 0.547937C6.48364 0.878503 6.41829 1.34923 6.08789 1.59872L3.89941 3.25009H11.3398L11.417 3.25399C11.795 3.29255 12.0898 3.61187 12.0898 4.00009C12.0897 4.38822 11.795 4.70764 11.417 4.74618L11.3398 4.75009H1.66016C1.33786 4.75009 1.05173 4.5439 0.949219 4.23837C0.84685 3.93275 0.95084 3.59569 1.20801 3.40145L5.18457 0.401452L5.24805 0.358484Z" fill="white"/>
</svg>
