<svg width="22" height="22" viewBox="0 0 22 22" fill="none" xmlns="http://www.w3.org/2000/svg">
<path opacity="0.7" d="M11 13C12.1046 13 13 12.1046 13 11C13 9.89543 12.1046 9 11 9C9.89543 9 9 9.89543 9 11C9 12.1046 9.89543 13 11 13Z" stroke="white"/>
<path opacity="0.7" d="M13.3867 5.86594C13.7439 5.86594 14.0741 6.05654 14.2527 6.36594L16.6394 10.4999C16.8181 10.8093 16.8181 11.1905 16.6394 11.4999L14.2527 15.6338C14.0741 15.9432 13.7439 16.1338 13.3867 16.1338L8.6132 16.1338C8.25594 16.1338 7.92581 15.9432 7.74718 15.6338L5.36045 11.4999C5.18181 11.1905 5.18181 10.8093 5.36045 10.4999L7.74718 6.36594C7.92581 6.05654 8.25594 5.86594 8.6132 5.86594L13.3867 5.86594Z" stroke="white" stroke-linejoin="round"/>
</svg>
