<svg width="108" height="108" viewBox="0 0 108 108" fill="none" xmlns="http://www.w3.org/2000/svg">
<g opacity="0.1">
<mask id="mask0_7637_5579" style="mask-type:alpha" maskUnits="userSpaceOnUse" x="0" y="0" width="108" height="108">
<rect width="108" height="108" rx="2" fill="#3E2D58"/>
</mask>
<g mask="url(#mask0_7637_5579)">
<path d="M64.8028 0C67.2194 0 69.4185 1.34453 70.4491 3.45189L80.2226 23.5232L102.704 26.8313C105.014 27.1672 106.935 28.7341 107.677 30.8629C108.419 33.0026 107.86 35.3594 106.227 36.9657L89.7517 53.2435L93.5723 75.813C93.9611 78.091 92.966 80.3692 91.0134 81.7037C89.9383 82.4271 88.6812 82.8 87.4195 82.8C86.3844 82.8 85.3426 82.5484 84.3986 82.0541L64.8005 71.6119L45.1979 82.054C44.2562 82.5483 43.2165 82.7999 42.1836 82.7999C40.9197 82.7999 39.6626 82.427 38.5875 81.7036C36.635 80.3691 35.642 78.0909 36.0284 75.8129L39.8491 53.2435L23.3718 36.9656C21.7414 35.3582 21.1796 33.0025 21.9237 30.8628C22.6677 28.734 24.5891 27.1672 26.8992 26.8312L49.3806 23.5232L59.1542 3.45189C60.178 1.34464 62.3816 0 64.8028 0Z" fill="url(#paint0_linear_7637_5579)"/>
<path d="M72.802 29.0381C73.2613 28.7729 73.8072 28.7012 74.3195 28.8385L100.579 35.874C101.646 36.1599 102.279 37.2571 101.994 38.3241L94.9567 64.5832C94.8195 65.0955 94.4845 65.5324 94.0251 65.7976L22.9552 106.83C21.9986 107.382 20.7754 107.054 20.2231 106.098L1 72.8024C0.447715 71.8458 0.775466 70.6226 1.73205 70.0703L72.802 29.0381ZM89.3643 39.0843C87.3341 40.2564 86.6384 42.853 87.8105 44.8832C88.9826 46.9134 91.5788 47.6083 93.6089 46.4362C95.6391 45.2641 96.3345 42.6688 95.1624 40.6386C93.9903 38.6084 91.3945 37.9122 89.3643 39.0843Z" fill="url(#paint1_linear_7637_5579)"/>
<path opacity="0.7" d="M29.8869 72.8403L22.4978 77.1064L24.0017 79.7112L29.3171 76.6424L31.8796 81.0808L26.5642 84.1496L30.6614 91.2461L24.7607 94.6529L13.8965 75.8354L27.1863 68.1626L29.8869 72.8403ZM37.9534 61.9427C39.4773 61.063 40.9383 60.5854 42.3363 60.5106C43.7241 60.4182 44.9552 60.6884 46.029 61.3206C47.1101 61.9249 47.9882 62.8117 48.6633 63.981C49.3896 65.239 49.6799 66.5602 49.5338 67.9439C49.4054 69.3173 48.8086 70.5955 47.743 71.7777L55.9942 76.618L49.5091 80.3621L42.0761 75.6517L42.0498 75.6668L45.9478 82.4183L40.0471 85.825L29.1824 67.0067L37.9534 61.9427ZM62.2527 54.1866L55.6078 58.023L56.9428 60.3352L62.7902 56.9593L65.3527 61.3976L59.5053 64.7736L61.04 67.4317L67.6849 63.5953L70.4007 68.2992L57.8551 75.5424L46.9909 56.725L59.5364 49.4818L62.2527 54.1866ZM77.0182 45.6595L70.3733 49.4959L71.7082 51.8082L77.5556 48.4322L80.1186 52.8714L74.2712 56.2474L75.8054 58.9047L82.4503 55.0682L85.1666 59.773L72.6211 67.0162L61.7568 48.1987L74.3023 40.9556L77.0182 45.6595ZM39.7788 71.7333L42.1181 70.3827C42.6849 70.0555 43.0384 69.6859 43.1786 69.2743C43.3087 68.8448 43.2151 68.3551 42.898 67.8058C42.6116 67.3098 42.2359 67.0064 41.7711 66.8969C41.324 66.7771 40.8259 66.8766 40.2768 67.1935L37.9375 68.5441L39.7788 71.7333Z" fill="white"/>
</g>
</g>
<defs>
<linearGradient id="paint0_linear_7637_5579" x1="64.8" y1="0" x2="64.8" y2="82.8" gradientUnits="userSpaceOnUse">
<stop stop-color="#BAB6DA"/>
<stop offset="1" stop-color="#574970"/>
</linearGradient>
<linearGradient id="paint1_linear_7637_5579" x1="77.8791" y1="30.3217" x2="41.8947" y2="95.5238" gradientUnits="userSpaceOnUse">
<stop stop-color="#BAB6DA"/>
<stop offset="1" stop-color="#574970"/>
</linearGradient>
</defs>
</svg>
