<svg viewBox="0 0 12 12" fill="none" xmlns="http://www.w3.org/2000/svg">
  <path
    d="M10.9518 5.29313C10.9933 5.33462 11.0297 5.37932 11.0623 5.42571C11.0665 5.43161 11.0714 5.43698 11.0754 5.44297C11.0844 5.45639 11.092 5.47066 11.1003 5.48441C11.1093 5.49932 11.119 5.51388 11.1272 5.52929C11.1368 5.54734 11.145 5.56604 11.1535 5.58453C11.1578 5.59398 11.1625 5.60324 11.1666 5.61284C11.1731 5.62834 11.1788 5.64406 11.1845 5.6598C11.2013 5.7062 11.2147 5.75412 11.2246 5.80343C11.2508 5.93492 11.2508 6.0705 11.2239 6.20187C11.2086 6.27626 11.1842 6.34719 11.1535 6.41455C11.1052 6.52039 11.0389 6.62027 10.9518 6.70734L6.70711 10.9521C6.31667 11.3421 5.68333 11.3421 5.29289 10.9521C4.90248 10.5616 4.9027 9.92839 5.29289 9.53784L7.83061 7.00013H1.75529C1.20325 6.99999 0.755613 6.55225 0.755395 6.00023C0.755395 5.44803 1.20312 5.00048 1.75529 5.00034H7.83061L5.29289 2.46263C4.90239 2.07213 4.90244 1.43895 5.29289 1.04842C5.68342 0.657891 6.31658 0.657891 6.70711 1.04842L10.9518 5.29313Z"
    fill="currentColor" />
</svg>