<svg width="16" height="16" viewBox="0 0 16 16" fill="none" xmlns="http://www.w3.org/2000/svg">
<mask id="mask0_2075_2635" style="mask-type:alpha" maskUnits="userSpaceOnUse" x="0" y="0" width="16" height="16">
<path d="M8 16C12.4183 16 16 12.4183 16 8C16 3.58172 12.4183 0 8 0C3.58172 0 0 3.58172 0 8C0 12.4183 3.58172 16 8 16Z" fill="#615084"/>
</mask>
<g mask="url(#mask0_2075_2635)">
<path d="M13.3334 9.06699V11.9114C13.3334 12.6969 12.6967 13.3337 11.9112 13.3337H4.08897C3.3035 13.3337 2.66675 12.6969 2.66675 11.9114V4.08921C2.66675 3.30374 3.3035 2.66699 4.08897 2.66699H6.93341" stroke="white" stroke-linecap="round"/>
<mask id="path-3-inside-1_2075_2635" fill="white">
<path d="M12.971 3.94281C13.1446 3.76924 13.1446 3.48784 12.971 3.31427C12.7974 3.1407 12.516 3.1407 12.3425 3.31427L7.31415 8.34258C7.14059 8.51615 7.14059 8.79756 7.31415 8.97112C7.48772 9.14469 7.76913 9.14469 7.94269 8.97112L12.971 3.94281Z"/>
</mask>
<path d="M12.971 3.31427L12.2639 4.02138C12.0469 3.80442 12.0469 3.45266 12.2639 3.2357L12.971 3.94281L13.6781 4.64992C14.2422 4.08583 14.2422 3.17125 13.6781 2.60716L12.971 3.31427ZM12.971 3.94281L12.2639 3.2357L7.23559 8.26402L7.94269 8.97112L8.6498 9.67823L13.6781 4.64992L12.971 3.94281ZM7.94269 8.97112L7.23559 8.26402C7.45254 8.04706 7.8043 8.04706 8.02126 8.26402L7.31415 8.97112L6.60705 9.67823C7.17114 10.2423 8.08571 10.2423 8.6498 9.67823L7.94269 8.97112ZM7.31415 8.97112L8.02126 8.26402C8.23822 8.48097 8.23822 8.83273 8.02126 9.04969L7.31415 8.34258L6.60705 7.63548C6.04296 8.19957 6.04296 9.11414 6.60705 9.67823L7.31415 8.97112ZM7.31415 8.34258L8.02126 9.04969L13.0496 4.02138L12.3425 3.31427L11.6354 2.60716L6.60705 7.63548L7.31415 8.34258ZM12.3425 3.31427L13.0496 4.02138C12.8326 4.23833 12.4809 4.23833 12.2639 4.02138L12.971 3.31427L13.6781 2.60716C13.114 2.04307 12.1995 2.04307 11.6354 2.60716L12.3425 3.31427Z" fill="white" mask="url(#path-3-inside-1_2075_2635)"/>
<path d="M9.77759 2.66699H12.148C12.8025 2.66699 13.3331 3.19762 13.3331 3.85218V6.22255" stroke="white" stroke-linecap="round"/>
</g>
</svg>
