<svg width="30" height="27" viewBox="0 0 30 27" fill="none" xmlns="http://www.w3.org/2000/svg">
<path d="M24.2741 0.00585938C25.0506 0.0665841 25.7273 0.575566 25.9968 1.31641L29.6062 11.2402C29.8715 11.9704 29.6897 12.7885 29.1404 13.3379L16.7566 25.7217L16.6052 25.8584C15.8721 26.4565 14.814 26.4562 14.0808 25.8584L13.9284 25.7217L1.54466 13.3379C1.0296 12.8228 0.838064 12.0715 1.03489 11.3779L1.07981 11.2402L4.68821 1.31641C4.95767 0.575591 5.63448 0.0666457 6.41087 0.00585938L6.56809 0H24.1179L24.2741 0.00585938ZM2.95872 11.9238L15.3425 24.3066L27.7263 11.9238L24.1179 2H6.56809L2.95872 11.9238ZM19.1579 11.7305C19.5484 11.34 20.1815 11.3401 20.572 11.7305C20.9623 12.121 20.9624 12.7541 20.572 13.1445L16.0495 17.667C15.6835 18.0329 15.1044 18.0555 14.7116 17.7354L14.6355 17.667L10.113 13.1445L10.0447 13.0684C9.72436 12.6757 9.74708 12.0966 10.113 11.7305C10.4791 11.3644 11.0581 11.3418 11.4509 11.6621L11.5271 11.7305L15.3425 15.5459L19.1579 11.7305Z" fill="url(#paint0_linear_1054_9688)"/>
<defs>
<linearGradient id="paint0_linear_1054_9688" x1="0.958984" y1="2.0236" x2="29.7264" y2="2.0236" gradientUnits="userSpaceOnUse">
<stop stop-color="#8D42FF"/>
<stop offset="1" stop-color="#5A7EFF"/>
</linearGradient>
</defs>
</svg>
