<svg width="35" height="31" viewBox="0 0 35 31" fill="none" xmlns="http://www.w3.org/2000/svg">
<mask id="path-1-inside-1_1054_1010" fill="white">
<path d="M30.667 0C32.876 0.00017595 34.667 1.79097 34.667 4V26.667C34.6666 28.8757 32.8758 30.6668 30.667 30.667H4.66699C2.45807 30.667 0.667344 28.8758 0.666992 26.667V4C0.666992 1.79086 2.45786 5.63723e-08 4.66699 0H30.667ZM4.46289 2.01074C3.45421 2.113 2.66699 2.96435 2.66699 4V26.667L2.67773 26.8711C2.77348 27.8123 3.52155 28.5608 4.46289 28.6562L4.66699 28.667H30.667L30.8711 28.6562C31.8123 28.5607 32.5605 27.8123 32.6562 26.8711L32.667 26.667V4C32.667 2.96447 31.8796 2.11317 30.8711 2.01074L30.667 2H4.66699L4.46289 2.01074ZM7.57812 8.79297C7.96864 8.40246 8.60166 8.40248 8.99219 8.79297L14.6113 14.4111C15.0018 14.8016 15.0017 15.4347 14.6113 15.8252L8.99219 21.4443C8.60165 21.8347 7.96861 21.8348 7.57812 21.4443C7.18793 21.0538 7.18782 20.4207 7.57812 20.0303L12.4902 15.1182L7.57812 10.207C7.18776 9.81663 7.18798 9.18351 7.57812 8.79297ZM27.7686 19.3379C28.2728 19.3891 28.666 19.8152 28.666 20.333C28.666 20.8508 28.2728 21.2769 27.7686 21.3281L27.666 21.333H19.333C18.7809 21.3328 18.333 20.8852 18.333 20.333C18.333 19.7808 18.7809 19.3332 19.333 19.333H27.666L27.7686 19.3379Z"/>
</mask>
<path d="M30.667 0L30.6672 -2H30.667V0ZM34.667 4H36.667H34.667ZM34.667 26.667L36.667 26.6673V26.667H34.667ZM30.667 30.667V32.667H30.6672L30.667 30.667ZM0.666992 26.667H-1.33301V26.6673L0.666992 26.667ZM4.66699 0V-2V0ZM4.46289 2.01074L4.35777 0.0135065L4.30938 0.0160537L4.26116 0.0209421L4.46289 2.01074ZM2.66699 26.667H0.666992V26.7196L0.669757 26.7721L2.66699 26.667ZM2.67773 26.8711L0.680499 26.9762L0.683064 27.0249L0.688003 27.0735L2.67773 26.8711ZM4.46289 28.6562L4.26119 30.6461L4.30939 30.6509L4.35777 30.6535L4.46289 28.6562ZM4.66699 28.667L4.56187 30.6642L4.6144 30.667H4.66699V28.667ZM30.667 28.667V30.667H30.7196L30.7721 30.6642L30.667 28.667ZM30.8711 28.6562L30.9762 30.6535L31.0247 30.6509L31.0731 30.646L30.8711 28.6562ZM32.6562 26.8711L34.646 27.0734L34.6509 27.0249L34.6535 26.9762L32.6562 26.8711ZM32.667 26.667L34.6642 26.7721L34.667 26.7196V26.667H32.667ZM32.667 4H34.667H32.667ZM30.8711 2.01074L31.0732 0.020978L31.0248 0.0160631L30.9762 0.0135065L30.8711 2.01074ZM30.667 2L30.7721 0.00276434L30.7196 0H30.667V2ZM4.66699 2V0H4.6144L4.56187 0.00276434L4.66699 2ZM7.57812 8.79297L6.16391 7.37876L6.1632 7.37947L7.57812 8.79297ZM8.99219 8.79297L7.57805 10.2073L7.5781 10.2073L8.99219 8.79297ZM14.6113 14.4111L16.0255 12.9969L16.0254 12.9968L14.6113 14.4111ZM14.6113 15.8252L16.0255 17.2394L16.0258 17.2391L14.6113 15.8252ZM8.99219 21.4443L10.4062 22.8588L10.4064 22.8585L8.99219 21.4443ZM7.57812 21.4443L6.16335 22.858L6.16391 22.8585L7.57812 21.4443ZM7.57812 20.0303L6.16391 18.6161L6.16367 18.6163L7.57812 20.0303ZM12.4902 15.1182L13.9044 16.5324L15.3188 15.118L13.9043 13.7038L12.4902 15.1182ZM7.57812 10.207L6.16383 11.6212L6.16405 11.6214L7.57812 10.207ZM27.7686 19.3379L27.9705 17.3481L27.9172 17.3427L27.8637 17.3402L27.7686 19.3379ZM27.7686 21.3281L27.8637 23.3259L27.9172 23.3233L27.9705 23.3179L27.7686 21.3281ZM27.666 21.333V23.333H27.7136L27.7611 23.3307L27.666 21.333ZM19.333 21.333L19.3324 23.333H19.333V21.333ZM19.333 19.333V17.333H19.3324L19.333 19.333ZM27.666 19.333L27.7611 17.3353L27.7136 17.333H27.666V19.333ZM30.667 0L30.6668 2C31.7715 2.00009 32.667 2.8957 32.667 4H34.667H36.667C36.667 0.686242 33.9804 -1.99974 30.6672 -2L30.667 0ZM34.667 4H32.667V26.667H34.667H36.667V4H34.667ZM34.667 26.667L32.667 26.6667C32.6668 27.7712 31.771 28.6669 30.6668 28.667L30.667 30.667L30.6672 32.667C33.9805 32.6667 36.6665 29.9802 36.667 26.6673L34.667 26.667ZM30.667 30.667V28.667H4.66699V30.667V32.667H30.667V30.667ZM4.66699 30.667V28.667C3.56296 28.667 2.66717 27.7715 2.66699 26.6667L0.666992 26.667L-1.33301 26.6673C-1.33248 29.9802 1.35318 32.667 4.66699 32.667V30.667ZM0.666992 26.667H2.66699V4H0.666992H-1.33301V26.667H0.666992ZM0.666992 4H2.66699C2.66699 2.89543 3.56242 2 4.66699 2V0V-2C1.35329 -2 -1.33301 0.686287 -1.33301 4H0.666992ZM4.66699 0V2H30.667V0V-2H4.66699V0ZM4.46289 2.01074L4.26116 0.0209421C2.2423 0.22562 0.666992 1.92684 0.666992 4H2.66699H4.66699C4.66699 3.99751 4.6672 3.99697 4.66704 3.99783C4.66689 3.9986 4.66661 3.99959 4.66624 4.00054C4.66555 4.00229 4.66526 4.00213 4.66637 4.00091C4.66758 3.99958 4.66848 3.99916 4.66799 3.99941C4.66761 3.99961 4.66688 3.99993 4.66591 4.00022C4.66486 4.00053 4.66429 4.00058 4.66462 4.00054L4.46289 2.01074ZM2.66699 4H0.666992V26.667H2.66699H4.66699V4H2.66699ZM2.66699 26.667L0.669757 26.7721L0.680499 26.9762L2.67773 26.8711L4.67497 26.766L4.66423 26.5619L2.66699 26.667ZM2.67773 26.8711L0.688003 27.0735C0.879764 28.9586 2.37419 30.4548 4.26119 30.6461L4.46289 28.6562L4.66459 26.6664C4.66438 26.6664 4.66499 26.6665 4.66606 26.6668C4.66707 26.6671 4.6679 26.6674 4.66845 26.6677C4.66935 26.6681 4.66875 26.668 4.66755 26.6668C4.66634 26.6656 4.66611 26.6649 4.66644 26.6656C4.66666 26.666 4.66695 26.6667 4.6672 26.6676C4.66747 26.6685 4.6675 26.669 4.66747 26.6687L2.67773 26.8711ZM4.46289 28.6562L4.35777 30.6535L4.56187 30.6642L4.66699 28.667L4.77211 26.6698L4.56801 26.659L4.46289 28.6562ZM4.66699 28.667V30.667H30.667V28.667V26.667H4.66699V28.667ZM30.667 28.667L30.7721 30.6642L30.9762 30.6535L30.8711 28.6562L30.766 26.659L30.5619 26.6698L30.667 28.667ZM30.8711 28.6562L31.0731 30.646C32.9594 30.4545 34.4543 28.9588 34.646 27.0734L32.6562 26.8711L30.6665 26.6688C30.6665 26.669 30.6665 26.6685 30.6668 26.6675C30.6671 26.6666 30.6674 26.6659 30.6676 26.6654C30.6679 26.6647 30.6677 26.6654 30.6665 26.6666C30.6652 26.6679 30.6646 26.6681 30.6654 26.6677C30.6659 26.6674 30.6667 26.6671 30.6677 26.6668C30.6687 26.6665 30.6693 26.6665 30.6691 26.6665L30.8711 28.6562ZM32.6562 26.8711L34.6535 26.9762L34.6642 26.7721L32.667 26.667L30.6698 26.5619L30.659 26.766L32.6562 26.8711ZM32.667 26.667H34.667V4H32.667H30.667V26.667H32.667ZM32.667 4H34.667C34.667 1.92663 33.0913 0.225938 31.0732 0.020978L30.8711 2.01074L30.669 4.00051C30.6693 4.00054 30.6688 4.0005 30.6678 4.00019C30.6668 3.99991 30.6661 3.9996 30.6658 3.99943C30.6654 3.99922 30.6663 3.9997 30.6676 4.00108C30.6688 4.00235 30.6685 4.00253 30.6678 4.00076C30.6674 3.9998 30.6671 3.99878 30.667 3.99798C30.6668 3.99708 30.667 3.99757 30.667 4H32.667ZM30.8711 2.01074L30.9762 0.0135065L30.7721 0.00276434L30.667 2L30.5619 3.99724L30.766 4.00798L30.8711 2.01074ZM30.667 2V0H4.66699V2V4H30.667V2ZM4.66699 2L4.56187 0.00276434L4.35777 0.0135065L4.46289 2.01074L4.56801 4.00798L4.77211 3.99724L4.66699 2ZM7.57812 8.79297L8.99234 10.2072C8.60172 10.5978 7.96848 10.5976 7.57805 10.2073L8.99219 8.79297L10.4063 7.37868C9.23484 6.20733 7.33555 6.20712 6.16391 7.37876L7.57812 8.79297ZM8.99219 8.79297L7.5781 10.2073L13.1972 15.8255L14.6113 14.4111L16.0254 12.9968L10.4063 7.37863L8.99219 8.79297ZM14.6113 14.4111L13.1971 15.8253C12.8063 15.4345 12.8068 14.8014 13.1968 14.4113L14.6113 15.8252L16.0258 17.2391C17.1966 16.0679 17.1973 14.1687 16.0255 12.9969L14.6113 14.4111ZM14.6113 15.8252L13.1971 14.411L7.57797 20.0301L8.99219 21.4443L10.4064 22.8585L16.0255 17.2394L14.6113 15.8252ZM8.99219 21.4443L7.57821 20.0299C7.96843 19.6398 8.60154 19.6393 8.99234 20.0301L7.57812 21.4443L6.16391 22.8585C7.33568 24.0303 9.23487 24.0297 10.4062 22.8588L8.99219 21.4443ZM7.57812 21.4443L8.9929 20.0307C9.38268 20.4208 9.38332 21.0534 8.99258 21.4442L7.57812 20.0303L6.16367 18.6163C4.99232 19.788 4.99317 21.6869 6.16335 22.858L7.57812 21.4443ZM7.57812 20.0303L8.99234 21.4445L13.9044 16.5324L12.4902 15.1182L11.076 13.704L6.16391 18.6161L7.57812 20.0303ZM12.4902 15.1182L13.9043 13.7038L8.9922 8.79268L7.57812 10.207L6.16405 11.6214L11.0762 16.5325L12.4902 15.1182ZM7.57812 10.207L8.99242 8.7929C9.38363 9.18416 9.38237 9.81676 8.99305 10.2065L7.57812 8.79297L6.1632 7.37947C4.99359 8.55026 4.99189 10.4491 6.16383 11.6212L7.57812 10.207ZM27.7686 19.3379L27.5666 21.3277C27.0585 21.2761 26.666 20.8504 26.666 20.333H28.666H30.666C30.666 18.7801 29.4872 17.502 27.9705 17.3481L27.7686 19.3379ZM28.666 20.333H26.666C26.666 19.8157 27.0585 19.3899 27.5666 19.3383L27.7686 21.3281L27.9705 23.3179C29.4872 23.164 30.666 21.8859 30.666 20.333H28.666ZM27.7686 21.3281L27.6734 19.3304L27.5709 19.3353L27.666 21.333L27.7611 23.3307L27.8637 23.3259L27.7686 21.3281ZM27.666 21.333V19.333H19.333V21.333V23.333H27.666V21.333ZM19.333 21.333L19.3336 19.333C19.8849 19.3332 20.333 19.78 20.333 20.333H18.333H16.333C16.333 21.9904 17.6768 23.3325 19.3324 23.333L19.333 21.333ZM18.333 20.333H20.333C20.333 20.886 19.8849 21.3328 19.3336 21.333L19.333 19.333L19.3324 17.333C17.6768 17.3335 16.333 18.6756 16.333 20.333H18.333ZM19.333 19.333V21.333H27.666V19.333V17.333H19.333V19.333ZM27.666 19.333L27.5709 21.3307L27.6734 21.3356L27.7686 19.3379L27.8637 17.3402L27.7611 17.3353L27.666 19.333Z" fill="url(#paint0_linear_1054_1010)" mask="url(#path-1-inside-1_1054_1010)"/>
<defs>
<linearGradient id="paint0_linear_1054_1010" x1="0.666992" y1="15.3335" x2="34.667" y2="15.3335" gradientUnits="userSpaceOnUse">
<stop stop-color="#5A7EFF"/>
<stop offset="1" stop-color="#6142FF"/>
</linearGradient>
</defs>
</svg>
