<svg width="8" height="8" viewBox="0 0 8 8" fill="none" xmlns="http://www.w3.org/2000/svg">
  <path opacity="0.7" fill-rule="evenodd" clip-rule="evenodd"
    d="M7.81359 0.813592C8.05522 1.05522 8.05523 1.44699 7.81359 1.68862L5.18894 4.31327L7.81359 6.93879C8.05523 7.18043 8.05522 7.57219 7.81359 7.81382C7.57196 8.05546 7.1802 8.05546 6.93856 7.81382L4.31391 5.1883L1.68839 7.81382C1.44676 8.05546 1.05499 8.05546 0.813361 7.81382C0.571728 7.57219 0.571728 7.18043 0.81336 6.93879L3.43888 4.31327L0.813361 1.68862C0.571728 1.44699 0.571728 1.05522 0.813361 0.813592C1.05499 0.57196 1.44676 0.571959 1.68839 0.813592L4.31391 3.43824L6.93856 0.813592C7.1802 0.571959 7.57196 0.57196 7.81359 0.813592Z"
    fill="#fff" />
</svg>