<svg width="108" height="108" viewBox="0 0 108 108" fill="none" xmlns="http://www.w3.org/2000/svg">
<g opacity="0.1">
<mask id="mask0_6361_4276" style="mask-type:alpha" maskUnits="userSpaceOnUse" x="0" y="0" width="108" height="108">
<rect width="108" height="108" fill="#D9D9D9"/>
</mask>
<g mask="url(#mask0_6361_4276)">
<circle cx="49.2" cy="49.2" r="39.2" fill="url(#paint0_linear_6361_4276)"/>
<path opacity="0.7" d="M22.3125 47.624C22.7672 47.3892 23.2818 47.3244 23.7744 47.4395C24.2698 47.5436 24.7124 47.8427 25.0156 48.2783C25.3186 48.7139 25.461 49.2553 25.416 49.7979C25.416 50.6232 25.6351 70.557 45.0781 74.9209C49.9575 76.1012 55.0608 75.5214 59.6055 73.2695C61.4782 72.1644 63.268 70.9023 64.958 69.4951C68.8202 66.1673 71.6422 61.6377 73.041 56.5205C73.127 56.2263 73.2655 55.9531 73.4492 55.7168C73.6329 55.4806 73.858 55.286 74.1113 55.1436C74.3648 55.0012 74.6421 54.9136 74.9268 54.8867C75.2115 54.8599 75.4989 54.8944 75.7715 54.9873C76.0438 55.0802 76.2969 55.2295 76.5156 55.4277C76.7345 55.6262 76.915 55.8698 77.0469 56.1436C77.1787 56.4172 77.2593 56.7162 77.2842 57.0234C77.309 57.3309 77.2774 57.6412 77.1914 57.9355C75.5454 63.9729 72.2303 69.3231 67.6895 73.2686C65.7802 74.9247 63.732 76.385 61.5723 77.6318C57.9717 79.4072 54.0617 80.3329 50.1035 80.3457L50.0977 80.3467C48.1136 80.3444 46.1353 80.107 44.1992 79.6387C29.5631 76.3361 24.2109 65.2484 22.2441 57.582L21.1514 59.9404C21.0303 60.2329 20.8553 60.4962 20.6377 60.7139C20.4201 60.9314 20.164 61.0991 19.8848 61.207C19.6055 61.315 19.3088 61.3609 19.0127 61.3418C18.7167 61.3227 18.4274 61.2387 18.1621 61.0957C17.8967 60.9526 17.6608 60.7529 17.4688 60.5088C17.2767 60.2647 17.1319 59.9816 17.0439 59.6758C16.956 59.3698 16.9267 59.0472 16.957 58.7285C16.9874 58.41 17.077 58.1014 17.2207 57.8213L21.2617 48.7373C21.488 48.251 21.8578 47.8589 22.3125 47.624ZM48.6768 27.8604C48.9635 27.8604 49.2478 27.9216 49.5127 28.04C49.7774 28.1585 50.018 28.332 50.2207 28.5508C50.4235 28.7698 50.5846 29.0302 50.6943 29.3164C50.8041 29.6025 50.8603 29.9091 50.8604 30.2188V34.0215C55.9574 34.699 58.9131 37.7015 59.3818 42.959L59.3799 42.9551H54.0283C53.7498 41.6402 53.0539 40.4716 52.0615 39.6523C51.6762 39.4166 51.2738 39.2191 50.8604 39.0596V46.5391C53.0402 47.1079 55.1358 48.0065 57.085 49.209C58.0974 49.8111 58.938 50.7011 59.5156 51.7822C60.0932 52.8632 60.3863 54.0941 60.3623 55.3418C60.3623 60.793 57.1692 63.9122 50.8604 64.5391V67.9629C50.8584 68.5877 50.6279 69.1861 50.2188 69.6279C49.8096 70.0697 49.2554 70.3191 48.6768 70.3213C48.098 70.3195 47.5431 70.0707 47.1338 69.6289C46.7245 69.187 46.4938 68.5878 46.4922 67.9629V64.5811C40.2451 64.0394 36.8306 60.6463 36.332 54.3984H41.793C41.9387 56.028 42.6397 57.5412 43.7598 58.6445C44.6053 59.1855 45.5326 59.5479 46.4922 59.7207V50.7412C43.5505 49.954 41.4111 49.1646 40.2656 48.2646C39.2993 47.6752 38.4962 46.8179 37.9395 45.7812C37.3828 44.7447 37.0926 43.5664 37.0986 42.3682C37.0539 41.1277 37.3126 39.8955 37.8496 38.7979C38.3866 37.7003 39.1831 36.7754 40.1572 36.1162C42.0751 34.8203 44.2519 34.0608 46.4922 33.8926V30.2188C46.4922 29.9091 46.5485 29.6025 46.6582 29.3164C46.768 29.0302 46.929 28.7698 47.1318 28.5508C47.3346 28.3318 47.5759 28.1585 47.8408 28.04C48.1058 27.9216 48.39 27.8604 48.6768 27.8604ZM50.8604 59.6016C53.4315 59.1101 54.792 57.8125 54.792 55.8135C54.7494 55.0648 54.4965 54.3477 54.0674 53.7578C53.6382 53.1681 53.0531 52.7335 52.3896 52.5117C51.8866 52.2864 51.3759 52.0816 50.8604 51.8945V59.6016ZM37.0957 20.5449C42.4972 17.7416 48.6187 16.9941 54.4639 18.4229C69.0997 21.7255 74.4521 32.8122 76.4189 40.4785L77.5117 38.1201C77.779 37.5696 78.2354 37.1539 78.7832 36.9629C79.3311 36.7719 79.9274 36.8206 80.4424 37.0986C80.9573 37.3766 81.3507 37.8624 81.5381 38.4502C81.7253 39.038 81.6917 39.6819 81.4443 40.2432L77.4033 49.3271C77.2628 49.7709 76.9976 50.157 76.6455 50.4316C76.2936 50.706 75.8716 50.8557 75.4375 50.8604L75.4395 50.8594C75.2515 50.8671 75.0642 50.8268 74.8936 50.7412C74.3983 50.6371 73.9565 50.3379 73.6533 49.9023C73.3501 49.4667 73.2069 48.9246 73.252 48.3818C73.2519 47.5494 73.0292 27.6228 53.5898 23.2598C48.7105 22.0793 43.6074 22.6588 39.0625 24.9102C37.1899 26.0156 35.4001 27.2776 33.71 28.6846C29.8477 32.0121 27.0265 36.542 25.6279 41.6592C25.4449 42.2412 25.0575 42.7222 24.5498 43C24.0419 43.2778 23.4531 43.3297 22.9102 43.1445C22.3674 42.9593 21.9135 42.5521 21.6455 42.0098C21.3775 41.4674 21.3167 40.8332 21.4766 40.2432C23.1223 34.2053 26.4384 28.8549 30.9795 24.9092C32.9066 23.2797 34.9517 21.8199 37.0957 20.5449ZM46.4922 38.6191C45.6206 38.7213 44.7689 38.9895 43.9785 39.416C43.5315 39.6494 43.1579 40.0208 42.9053 40.4824C42.6528 40.9438 42.5324 41.4756 42.5586 42.0107C42.5586 43.0721 43.3232 43.8942 44.7432 44.6055C45.3205 44.8496 45.9041 45.0755 46.4922 45.2861V38.6191Z" fill="white"/>
<path d="M73.3429 83.5009L63.6952 73.2928C63.514 73.1018 63.3721 72.8732 63.2786 72.6213C63.1851 72.3694 63.1419 72.0998 63.1518 71.8293C63.1616 71.5589 63.2244 71.2936 63.336 71.0501C63.4476 70.8066 63.6057 70.5902 63.8003 70.4147C68.2477 66.3762 74.3565 64.9999 79.9659 66.715L90.0561 58.3659C89.89 56.7615 90.0673 55.1382 90.5748 53.6163C91.0824 52.0945 91.9072 50.713 92.9881 49.5745C93.3358 49.2067 93.8073 49 94.2989 49C94.7906 49 95.2621 49.2067 95.6098 49.5745L107.457 62.1126C107.629 62.2949 107.765 62.5112 107.859 62.7494C107.952 62.9876 108 63.2429 108 63.5007C108 63.7585 107.952 64.0137 107.859 64.2519C107.765 64.4901 107.629 64.7065 107.457 64.8887C106.381 66.0333 105.076 66.9066 103.638 67.4438C102.2 67.9811 100.666 68.1684 99.15 67.9918L91.5456 78.2876C93.569 84.4284 92.3577 91.4091 88.3305 96.3765C88.1642 96.5818 87.9596 96.7486 87.7295 96.8662C87.4994 96.9839 87.2488 97.05 86.9935 97.0603C86.7381 97.0706 86.4835 97.025 86.2456 96.9262C86.0077 96.8274 85.7917 96.6777 85.6111 96.4864L75.9659 86.2756L65.4294 97.427C65.0673 97.809 64.5926 98 64.1192 98C63.7527 97.9997 63.3945 97.8844 63.0899 97.6687C62.7853 97.4531 62.5479 97.1467 62.4077 96.7884C62.2675 96.43 62.2308 96.0357 62.3022 95.6553C62.3736 95.2749 62.5499 94.9254 62.8089 94.6509L73.3441 83.5009H73.3429Z" fill="url(#paint1_linear_6361_4276)"/>
</g>
</g>
<defs>
<linearGradient id="paint0_linear_6361_4276" x1="49.2" y1="10" x2="49.2" y2="88.4" gradientUnits="userSpaceOnUse">
<stop stop-color="#BAB6DA"/>
<stop offset="1" stop-color="#574970"/>
</linearGradient>
<linearGradient id="paint1_linear_6361_4276" x1="85.1333" y1="49" x2="85.1333" y2="98" gradientUnits="userSpaceOnUse">
<stop stop-color="#BAB6DA"/>
<stop offset="1" stop-color="#574970"/>
</linearGradient>
</defs>
</svg>
