<svg width="11" height="11" viewBox="0 0 11 11" fill="none" xmlns="http://www.w3.org/2000/svg">
<path d="M2.87305 0.0107422C3.10109 0.0572069 3.27246 0.259207 3.27246 0.500977C3.27223 0.742564 3.10099 0.944814 2.87305 0.991211L2.77246 1.00098H2.5C1.67157 1.00098 1 1.67255 1 2.50098V7.5918C1.00026 8.42 1.67174 9.0918 2.5 9.0918H7.59082C8.41909 9.0918 9.09056 8.42 9.09082 7.5918V7.31934C9.09082 7.04322 9.31472 6.81938 9.59082 6.81934C9.86696 6.81934 10.0908 7.04319 10.0908 7.31934V7.5918C10.0906 8.97228 8.97137 10.0918 7.59082 10.0918H2.5C1.11945 10.0918 0.00026385 8.97228 0 7.5918V2.50098C0 1.12026 1.11929 0 2.5 0H2.77246L2.87305 0.0107422ZM7.59082 0C8.97153 0 10.0908 1.12026 10.0908 2.50098V5.04688C10.0903 5.32259 9.86665 5.54688 9.59082 5.54688C9.31503 5.54683 9.09132 5.32256 9.09082 5.04688V2.50098C9.09082 2.26975 9.03681 2.05106 8.94336 1.85547L4.49023 6.30957C4.29509 6.50421 3.97835 6.50421 3.7832 6.30957C3.5881 6.11446 3.58841 5.79784 3.7832 5.60254L8.23633 1.14844C8.04058 1.05481 7.82228 1.00098 7.59082 1.00098H5.0459C4.76992 1.00098 4.54616 0.776895 4.5459 0.500977C4.5459 0.224834 4.76976 0 5.0459 0H7.59082Z" fill="white"/>
</svg>
