<svg viewBox="0 0 16 16" fill="none" xmlns="http://www.w3.org/2000/svg">
  <path
    d="M14.4068 7.33727C14.4361 7.37034 14.4641 7.40477 14.4889 7.44154L14.4945 7.44983C14.5017 7.46079 14.5077 7.47248 14.5145 7.48366C14.5237 7.49891 14.533 7.51416 14.5414 7.52993C14.6513 7.73578 14.6838 7.97165 14.6395 8.1956C14.6297 8.24494 14.6162 8.2928 14.5994 8.33924C14.5834 8.38374 14.5646 8.42743 14.5421 8.46975C14.5339 8.48518 14.5242 8.49969 14.5152 8.51463C14.474 8.58309 14.4251 8.64894 14.366 8.70798L8.70711 14.3669C8.31654 14.7569 7.68324 14.7573 7.29289 14.3669C6.90264 13.9766 6.90293 13.3432 7.29289 12.9527L11.2448 9.00077H2.34107C1.78921 9.00048 1.34147 8.55274 1.34118 8.00087C1.34119 7.44877 1.78904 7.00127 2.34107 7.00098H11.2448L7.29289 3.04905C6.90248 2.65865 6.90271 2.02539 7.29289 1.63484C7.68342 1.24432 8.31727 1.24363 8.7078 1.63415L14.3667 7.29308C14.3809 7.30723 14.3936 7.32251 14.4068 7.33727Z"
    fill="currentColor" />
</svg>