<svg width="17" height="17" viewBox="0 0 17 17" fill="none" xmlns="http://www.w3.org/2000/svg">
  <path
    d="M3.20462 10.7784H0.590109C0.590109 10.7784 0.451329 10.7711 0.391383 11.0438C0.341197 11.2726 0.495561 11.4917 0.495561 11.4917C0.564201 11.5885 3.76615 16.1038 3.76615 16.1038C3.76615 16.1038 3.98659 16.5352 4.42201 16.5352C4.84737 16.5352 5.02076 16.2293 5.02076 16.2293L8.20423 11.5904C8.20423 11.5904 8.31167 11.2964 8.25868 11.046C8.20139 10.7756 8.0036 10.7784 8.0036 10.7784H5.55631L5.55631 6.26516C5.55631 6.26516 6.03432 2.70679 7.35354 2.70679C7.35354 2.70679 3.20464 2.76656 3.20464 6.37994V10.7784H3.20462ZM13.7493 6.16252L16.3664 6.16252C16.3664 6.16252 16.5257 6.11455 16.5639 5.82428C16.5893 5.63055 16.4908 5.50975 16.4609 5.46736C16.3921 5.37034 13.1874 0.850924 13.1874 0.850924C13.1874 0.850924 12.9667 0.41926 12.5309 0.41926C12.1052 0.41926 11.9316 0.725272 11.9316 0.725272L8.74531 5.36855C8.74531 5.36855 8.62829 5.56178 8.69682 5.82428C8.78141 6.14868 8.94621 6.16254 8.94621 6.16254H11.3955V10.6986C11.3955 10.6986 10.9172 14.2602 9.59679 14.2602C9.59679 14.2602 13.7493 14.2004 13.7493 10.5837V6.16252H13.7493Z"
    fill="currentColor" />
</svg>