<svg width="20" height="20" viewBox="0 0 20 20" fill="#fff" xmlns="http://www.w3.org/2000/svg">
<path d="M15.3573 17.5C15.3573 17.1055 15.0375 16.7857 14.643 16.7857H5.35728C4.96279 16.7857 4.643 17.1055 4.643 17.5C4.643 17.8945 4.96279 18.2143 5.35728 18.2143H14.643C15.0375 18.2143 15.3573 17.8945 15.3573 17.5ZM17.8573 2.5H2.143C1.75014 2.5 1.42871 2.82143 1.42871 3.21429V15.3571C1.42871 15.75 1.75014 16.0714 2.143 16.0714H17.8573C18.2501 16.0714 18.5716 15.75 18.5716 15.3571V3.21429C18.5716 2.82143 18.2501 2.5 17.8573 2.5ZM14.643 10.3571H13.3573C13.0716 10.3571 12.7859 10.1786 12.6787 9.89286L12.2859 8.82143L10.7859 12.1429C10.6787 12.3929 10.4287 12.5714 10.143 12.5714C9.85728 12.5714 9.60728 12.3929 9.50014 12.1429L8.53585 10.0714L8.03585 11.3214C7.92871 11.6071 7.67871 11.7857 7.35728 11.7857H5.35728V10.3571H6.893L7.82157 8.03572C7.92871 7.78571 8.17871 7.60714 8.46443 7.57143C8.75014 7.57143 9.00014 7.71429 9.143 8L10.143 10.1786L11.6787 6.71429C11.7859 6.46429 12.0716 6.28571 12.3573 6.28571C12.643 6.28571 12.893 6.46429 13.0001 6.75L13.8573 8.96429H14.643V10.3571Z" fill="#fff"/>
</svg>
