<svg width="9" height="10" viewBox="0 0 9 10" fill="none" xmlns="http://www.w3.org/2000/svg">
<path d="M4.44406 9.95068C2.61719 9.95068 1.06029 8.79012 0.460119 7.16935C0.459517 7.16772 0.46031 7.16591 0.461914 7.16525C0.463643 7.16454 0.464407 7.16252 0.463582 7.16084C0.427164 7.08679 0.402344 7.00643 0.402344 6.91832C0.402344 6.60944 0.652727 6.35904 0.961628 6.35904C1.20856 6.35904 1.41112 6.52175 1.48518 6.74377C1.48591 6.74597 1.48836 6.74711 1.4905 6.74623C1.49261 6.74537 1.49501 6.74645 1.49577 6.74859C1.92864 7.9608 3.08497 8.83211 4.44406 8.83211C6.17162 8.83211 7.57693 7.4268 7.57693 5.69924C7.57693 3.97167 6.17162 2.56636 4.44406 2.56636C4.32994 2.56636 4.21749 2.57305 4.10687 2.58579C3.70518 2.63205 3.53317 3.0817 3.72015 3.44022C3.74786 3.49336 3.78698 3.54057 3.81169 3.59517C3.82758 3.63027 3.83645 3.66928 3.83645 3.71035C3.83645 3.86654 3.68051 3.98722 3.55134 3.98998H3.54561C3.54152 3.98998 3.53767 3.98998 3.53359 3.98973L0.739631 3.86981C0.639949 3.86546 0.549817 3.80838 0.503678 3.71964C0.457539 3.63114 0.462172 3.52464 0.515697 3.44028L2.01659 1.0805C2.07012 0.996391 2.16515 0.947803 2.26458 0.951354C2.36426 0.955702 2.45436 1.01282 2.5005 1.10156C2.6959 1.47623 3.14347 1.63153 3.55652 1.54242C3.84276 1.48067 4.13957 1.44783 4.44408 1.44783C6.78825 1.44783 8.69552 3.35509 8.69552 5.69927C8.69552 8.04346 6.78823 9.95068 4.44406 9.95068Z" fill="white"/>
</svg>
