<svg width="30" height="30" viewBox="0 0 30 30" fill="none" xmlns="http://www.w3.org/2000/svg">
<mask id="mask0_1341_3914" style="mask-type:alpha" maskUnits="userSpaceOnUse" x="0" y="0" width="30" height="30">
<rect width="30" height="30" rx="2" fill="#3E2D58"/>
</mask>
<g mask="url(#mask0_1341_3914)">
<path d="M18.0008 0C18.6721 0 19.2829 0.373482 19.5692 0.958858L22.2841 6.53421L28.5289 7.45313C29.1706 7.54644 29.7043 7.9817 29.9104 8.57303C30.1165 9.16739 29.961 9.82206 29.5075 10.2682L24.931 14.7899L25.9923 21.0592C26.1003 21.6919 25.8239 22.3248 25.2815 22.6955C24.9829 22.8964 24.6337 23 24.2832 23C23.9957 23 23.7063 22.9301 23.4441 22.7928L18.0001 19.8922L12.555 22.7928C12.2934 22.9301 12.0046 23 11.7177 23C11.3666 23 11.0174 22.8964 10.7188 22.6954C10.1764 22.3248 9.90056 21.6919 10.0079 21.0591L11.0692 14.7898L6.49217 10.2682C6.03928 9.82172 5.88323 9.16736 6.08991 8.573C6.29658 7.98167 6.8303 7.54644 7.47201 7.45311L13.7168 6.53421L16.4317 0.958858C16.7161 0.373511 17.3282 0 18.0008 0Z" fill="url(#paint0_linear_1341_3914)"/>
<path d="M19.7046 8.36572C20.164 8.10051 20.7098 8.02885 21.2222 8.16613L26.5436 9.59198C27.6104 9.87795 28.2435 10.9743 27.9576 12.0412L26.5318 17.3626C26.3944 17.8748 26.0594 18.3119 25.6001 18.577L7.62756 28.9535C6.67107 29.5057 5.44787 29.1778 4.89551 28.2215L1 21.4742C0.447716 20.5177 0.775468 19.2945 1.73205 18.7422L19.7046 8.36572ZM24.8235 10.8568C24.2595 11.1824 24.0656 11.9035 24.3912 12.4675C24.7168 13.0314 25.4382 13.224 26.0022 12.8984C26.5658 12.5727 26.7591 11.8521 26.4336 11.2883C26.1081 10.7245 25.3873 10.5316 24.8235 10.8568Z" fill="url(#paint1_linear_1341_3914)"/>
<path opacity="0.7" d="M8.30195 20.2338L6.24937 21.4189L6.66685 22.142L8.14349 21.2895L8.85541 22.5225L7.37877 23.3751L8.51695 25.3465L6.87793 26.2927L3.85986 21.0653L7.55147 18.934L8.30195 20.2338ZM10.5428 17.2069C10.9659 16.9626 11.3715 16.8296 11.7597 16.8088C12.1452 16.7831 12.4878 16.8581 12.7861 17.0338C13.0864 17.2016 13.3298 17.4482 13.5173 17.773C13.7191 18.1225 13.7999 18.4893 13.7593 18.8737C13.7236 19.2552 13.5583 19.6104 13.2623 19.9387L15.5538 21.2826L13.7524 22.3227L11.688 21.0146L11.6803 21.019L12.7629 22.8939L11.1238 23.8402L8.10626 18.6136L10.5428 17.2069ZM17.2926 15.0521L15.4463 16.118L15.8169 16.7599L17.4416 15.822L18.1535 17.055L16.5289 17.993L16.9551 18.7313L18.8014 17.6654L19.5557 18.9721L16.0705 20.9843L13.0524 15.7568L16.5377 13.7446L17.2926 15.0521ZM21.3939 12.6831L19.5476 13.749L19.9187 14.3918L21.5434 13.4538L22.2553 14.6869L20.6306 15.6249L21.0569 16.3632L22.9031 15.2973L23.6575 16.6039L20.1723 18.6161L17.1542 13.3887L20.6395 11.3765L21.3939 12.6831ZM11.0495 19.9263L11.6998 19.5508C11.8571 19.4599 11.9557 19.3573 11.9946 19.243C12.0307 19.1238 12.004 18.9877 11.9159 18.8352C11.8364 18.6975 11.7323 18.6131 11.6032 18.5827C11.4791 18.5494 11.341 18.5774 11.1886 18.6653L10.5383 19.0408L11.0495 19.9263Z" fill="white"/>
</g>
<defs>
<linearGradient id="paint0_linear_1341_3914" x1="18" y1="0" x2="18" y2="23" gradientUnits="userSpaceOnUse">
<stop stop-color="#BAB6DA"/>
<stop offset="1" stop-color="#574970"/>
</linearGradient>
<linearGradient id="paint1_linear_1341_3914" x1="21.2008" y1="8.67273" x2="11.1941" y2="26.4202" gradientUnits="userSpaceOnUse">
<stop stop-color="#BAB6DA"/>
<stop offset="1" stop-color="#574970"/>
</linearGradient>
</defs>
</svg>
