<svg width="20" height="20" viewBox="0 0 20 20" fill="none" xmlns="http://www.w3.org/2000/svg">
<path d="M16.6371 10.9497H8.65793C8.18256 10.9497 7.79688 10.564 7.79688 10.0886C7.79688 9.61322 8.18256 9.22754 8.65793 9.22754H16.6371C17.1124 9.22754 17.4981 9.61322 17.4981 10.0886C17.4981 10.564 17.1124 10.9497 16.6371 10.9497Z" fill="#131414"/>
<path d="M14.4099 14.1767C14.1892 14.1767 13.9686 14.0924 13.8018 13.9237C13.4645 13.5865 13.4645 13.0429 13.8018 12.7057L17.0289 9.47852C17.3662 9.14127 17.9097 9.14127 18.247 9.47852C18.5842 9.81577 18.5842 10.3593 18.247 10.6966L15.018 13.9237C14.8512 14.0924 14.6305 14.1767 14.4099 14.1767Z" fill="white"/>
<path d="M17.6371 10.9493C17.4164 10.9493 17.1958 10.865 17.0289 10.6963L13.8018 7.47097C13.4645 7.13372 13.4645 6.59018 13.8018 6.25294C14.139 5.91569 14.6826 5.91569 15.0198 6.25294L18.247 9.4801C18.5842 9.81735 18.5842 10.3609 18.247 10.6981C18.0783 10.865 17.8577 10.9493 17.6371 10.9493Z" fill="white"/>
<rect x="7.5" y="9.16309" width="9" height="2" rx="1" fill="white"/>
<path d="M9.5 15C10.0523 15 10.5 15.4477 10.5 16C10.5 16.5523 10.0523 17 9.5 17H3.5C2.39543 17 1.5 16.1046 1.5 15V5C1.5 3.89543 2.39543 3 3.5 3H9.5C10.0523 3 10.5 3.44772 10.5 4C10.5 4.55228 10.0523 5 9.5 5H3.5V15H9.5Z" fill="white"/>
</svg>
