<svg width="30" height="30" viewBox="0 0 30 30" fill="none" xmlns="http://www.w3.org/2000/svg">
<mask id="mask0_1341_3935" style="mask-type:alpha" maskUnits="userSpaceOnUse" x="0" y="0" width="30" height="30">
<rect width="30" height="30" rx="2" fill="#3E2D58"/>
</mask>
<g mask="url(#mask0_1341_3935)">
<path d="M21.9945 3.92625L20.8516 3.90774C20.8244 3.90774 19.311 3.8547 16.666 2.80768C13.9531 1.73303 12.2035 0.498931 12.187 0.487043L11.4958 0L10.8102 0.487043C10.7939 0.498931 9.04408 1.73303 6.33121 2.80768C3.68608 3.8547 2.17276 3.90774 2.14828 3.90774L1 3.92625V15.2767C1 20.9744 10.406 26.9892 11.4987 27C12.5655 27.0105 22 20.9744 22 15.2768L21.9945 3.92625Z" fill="url(#paint0_linear_1341_3935)"/>
<path opacity="0.7" d="M19.9984 12.8737C19.998 13.055 19.9121 13.2287 19.7596 13.3569C19.6071 13.4851 19.4004 13.5573 19.1847 13.5576H16.5966C16.5404 13.5575 16.4854 13.5439 16.4381 13.5184C16.3908 13.4928 16.3532 13.4564 16.3297 13.4135L16.1016 12.9988C16.0805 12.9604 16.0471 12.9276 16.0052 12.9042C15.9632 12.8808 15.9143 12.8677 15.864 12.8663C15.8137 12.8649 15.7639 12.8753 15.7201 12.8963C15.6764 12.9173 15.6405 12.9481 15.6164 12.9852L13.2094 16.7597C13.1633 16.8317 13.0949 16.8921 13.0116 16.9343C12.9282 16.9766 12.8328 16.9993 12.7354 17C12.6381 17.0007 12.5423 16.9794 12.458 16.9383C12.3738 16.8972 12.3043 16.8379 12.2567 16.7665L8.43272 11.0327C8.4074 10.995 8.36987 10.9642 8.32449 10.9437C8.27911 10.9232 8.22774 10.9141 8.17638 10.9172C8.12502 10.9203 8.07578 10.9357 8.03439 10.9614C7.993 10.9872 7.96116 11.0223 7.94259 11.0626L6.94778 13.2639C6.90847 13.3504 6.83885 13.4247 6.74815 13.4772C6.65746 13.5296 6.54995 13.5577 6.43986 13.5576H3.77895C3.56923 13.5498 3.37119 13.4742 3.22609 13.3467C3.08098 13.2192 3 13.0495 3 12.873C3 12.6966 3.08098 12.5269 3.22609 12.3994C3.37119 12.2719 3.56923 12.1963 3.77895 12.1884H5.31565C5.54049 12.1884 5.74269 12.0715 5.82195 11.8948L7.44761 8.29436C7.48437 8.21317 7.5479 8.14248 7.63075 8.09057C7.7136 8.03866 7.81234 8.00767 7.91539 8.00125C8.01845 7.99483 8.12155 8.01324 8.2126 8.05431C8.30365 8.09539 8.37889 8.15743 8.42948 8.23317L12.467 14.2823C12.4909 14.3178 12.5257 14.3473 12.5678 14.3677C12.6098 14.388 12.6576 14.3986 12.7062 14.3982C12.7547 14.3977 12.8022 14.3864 12.8438 14.3653C12.8854 14.3442 12.9195 14.3142 12.9425 14.2783L15.4692 10.3216C15.517 10.2471 15.5884 10.1853 15.6756 10.1429C15.7628 10.1006 15.8623 10.0794 15.9629 10.0818C16.0636 10.0842 16.1614 10.1101 16.2456 10.1565C16.3298 10.2029 16.397 10.2681 16.4397 10.3447L17.3067 11.9233C17.3502 12.0023 17.4195 12.0692 17.5066 12.1161C17.5937 12.1631 17.695 12.1882 17.7985 12.1884H19.1847C19.6344 12.1884 20 12.4957 20 12.8737H19.9984Z" fill="white"/>
<path d="M29.2617 26.2861C29.2576 28.3167 26.0654 29.9619 22.1309 29.9619C18.1941 29.9619 15.0041 28.3147 15 26.2861V25.1738C16.3306 26.6351 18.9941 27.6123 22.1309 27.6123C25.2675 27.6123 27.9291 26.635 29.2617 25.1738V26.2861ZM15 21.9082C15.3408 22.2817 15.7715 22.6228 16.2715 22.9248C16.2897 22.9349 16.3099 22.945 16.3281 22.9551C16.5138 23.0652 16.712 23.1716 16.916 23.2695C17.018 23.3185 17.1264 23.3633 17.2324 23.4102C17.3834 23.4755 17.5371 23.5385 17.6963 23.5977C17.8064 23.6384 17.9161 23.68 18.0303 23.7188C18.2405 23.7902 18.4592 23.8529 18.6816 23.9121C18.7591 23.9325 18.8346 23.9552 18.9141 23.9756C19.1896 24.0429 19.4777 24.1024 19.7695 24.1514C19.8736 24.1697 19.978 24.184 20.082 24.1982C20.3146 24.2309 20.5494 24.2588 20.79 24.2812C20.8919 24.2894 20.9937 24.3004 21.0977 24.3086C21.4364 24.3331 21.7818 24.3486 22.1328 24.3486C22.4857 24.3486 22.8284 24.3331 23.167 24.3086C23.2711 24.3025 23.3735 24.2915 23.4756 24.2812C23.7163 24.2588 23.951 24.2329 24.1836 24.1982C24.2877 24.1819 24.3921 24.1697 24.4941 24.1514C24.788 24.1024 25.078 24.0429 25.3555 23.9756C25.4329 23.9572 25.5047 23.9344 25.5801 23.9141C25.8022 23.8549 26.0204 23.792 26.2324 23.7207C26.3467 23.6819 26.4572 23.6404 26.5674 23.5996C26.7264 23.5405 26.8794 23.4774 27.0303 23.4121C27.1363 23.3652 27.2447 23.3204 27.3467 23.2715C27.5528 23.1715 27.7489 23.0672 27.9346 22.957C27.9509 22.9468 27.9719 22.937 27.9902 22.9268C28.4921 22.6268 28.9201 22.2855 29.2588 21.9102V23.0225C29.2588 23.4652 29.0978 23.8874 28.8184 24.2812C28.8102 24.2915 28.8021 24.3042 28.7939 24.3164C28.7327 24.4001 28.6653 24.4818 28.5918 24.5635C28.5817 24.5736 28.5736 24.5836 28.5635 24.5938C28.2554 24.9284 27.8554 25.2326 27.376 25.502L27.2773 25.5576C27.1815 25.6086 27.0813 25.6571 26.9814 25.7061C26.9264 25.7305 26.8734 25.7568 26.8184 25.7812C26.7245 25.8241 26.6283 25.8654 26.5283 25.9062C26.459 25.9348 26.3897 25.9618 26.3184 25.9883C26.2245 26.023 26.1301 26.0592 26.0322 26.0918C25.9386 26.1244 25.8389 26.1531 25.7412 26.1836C25.6249 26.2203 25.508 26.2535 25.3896 26.2861C25.2469 26.3249 25.1039 26.3609 24.957 26.3936C24.8816 26.4099 24.8021 26.4241 24.7227 26.4404C24.6002 26.467 24.4752 26.4923 24.3486 26.5127C24.2671 26.5269 24.1831 26.5386 24.0996 26.5508C23.9691 26.5712 23.8386 26.5882 23.7061 26.6045C23.6245 26.6127 23.5426 26.6227 23.459 26.6309C23.3122 26.6451 23.1654 26.6548 23.0166 26.665C22.9452 26.6691 22.8732 26.6756 22.8018 26.6797C22.5795 26.6919 22.3573 26.6982 22.1289 26.6982C21.9024 26.6982 21.6775 26.6899 21.4551 26.6797C21.3838 26.6756 21.3125 26.6691 21.2412 26.665C21.0922 26.6548 20.9427 26.6451 20.7979 26.6309C20.7142 26.6227 20.6324 26.6147 20.5508 26.6045C20.4182 26.5882 20.2878 26.5691 20.1572 26.5508C20.0736 26.5385 19.9898 26.527 19.9082 26.5127C19.7818 26.4903 19.6575 26.4649 19.5352 26.4404C19.4576 26.4261 19.3774 26.4099 19.2998 26.3936C19.153 26.3589 19.0079 26.3249 18.8672 26.2861C18.7469 26.2535 18.6308 26.2183 18.5166 26.1836C18.4187 26.153 18.3205 26.1244 18.2246 26.0918C18.1266 26.0591 18.0324 26.023 17.9385 25.9883C17.8671 25.9618 17.7979 25.9348 17.7285 25.9062C17.6306 25.8675 17.5344 25.8241 17.4385 25.7812C17.3835 25.7568 17.3283 25.7325 17.2754 25.7061C17.1734 25.6571 17.0753 25.6086 16.9795 25.5576C16.9448 25.5393 16.9145 25.5203 16.8818 25.502C16.4023 25.2326 16.0025 24.9284 15.6943 24.5938C15.6862 24.5856 15.6752 24.5756 15.667 24.5654C15.5936 24.4838 15.526 24.4 15.4648 24.3164C15.4567 24.3042 15.4485 24.2934 15.4404 24.2812C15.161 23.8895 15 23.4651 15 23.0225V21.9082ZM22.1309 14.8135C26.0695 14.8135 29.2617 16.4605 29.2617 18.4932H29.2656V19.7588C29.2655 20.2015 29.1037 20.6238 28.8242 21.0176C28.8161 21.0278 28.8079 21.0406 28.7998 21.0527C28.7387 21.1362 28.671 21.2173 28.5977 21.2988C28.5875 21.309 28.5795 21.3199 28.5693 21.3301C28.2612 21.6647 27.8613 21.9689 27.3818 22.2383C27.3493 22.2566 27.3187 22.2747 27.2842 22.293C27.1883 22.3439 27.0882 22.3934 26.9883 22.4424C26.9352 22.4669 26.8813 22.4931 26.8262 22.5176C26.7304 22.5604 26.635 22.6038 26.5352 22.6445C26.4678 22.6711 26.3956 22.6971 26.3262 22.7236C26.2304 22.7603 26.1369 22.7975 26.0391 22.8301C25.9452 22.8607 25.847 22.8893 25.749 22.9199C25.6593 22.9464 25.5733 22.9745 25.4814 22.999C25.4776 22.9991 25.4755 23.0009 25.4717 23.001C25.4451 23.0071 25.4142 23.0133 25.3877 23.0215C25.2489 23.0582 25.1078 23.0953 24.9629 23.1279C24.9304 23.134 24.8996 23.1423 24.8691 23.1484C24.8448 23.1545 24.8202 23.158 24.7979 23.1621C24.7754 23.1682 24.751 23.1727 24.7266 23.1768C24.6043 23.2033 24.4799 23.2277 24.3535 23.248C24.3107 23.2542 24.2674 23.2644 24.2246 23.2705C24.1838 23.2766 24.1404 23.281 24.0996 23.2871C23.9712 23.3055 23.8404 23.3216 23.71 23.3379C23.657 23.344 23.6057 23.3523 23.5527 23.3584C23.5202 23.3624 23.4876 23.3621 23.4551 23.3662C23.3122 23.3805 23.1674 23.3912 23.0205 23.4014C22.9635 23.4054 22.9105 23.411 22.8535 23.4131C22.8351 23.4151 22.8182 23.416 22.7998 23.416C22.5795 23.4262 22.3572 23.4316 22.1309 23.4316C21.9043 23.4316 21.6813 23.4262 21.4609 23.416C21.4427 23.414 21.4265 23.4131 21.4082 23.4131C21.3512 23.411 21.2982 23.4054 21.2412 23.4014C21.0943 23.3912 20.9485 23.3805 20.8057 23.3662C20.7732 23.3622 20.7405 23.3625 20.708 23.3584C20.655 23.3523 20.6038 23.344 20.5508 23.3379C20.4203 23.3236 20.2896 23.3055 20.1611 23.2871C20.1205 23.281 20.0778 23.2766 20.0371 23.2705C19.9922 23.2644 19.9511 23.2562 19.9082 23.248C19.7818 23.2256 19.6575 23.2012 19.5352 23.1768C19.5107 23.1706 19.4854 23.1662 19.4609 23.1621L19.3936 23.1504C19.361 23.1443 19.3303 23.136 19.2998 23.1299C19.1551 23.0973 19.0146 23.0601 18.876 23.0234C18.8474 23.0173 18.8185 23.0111 18.792 23.0029C18.7879 23.0029 18.7853 23.001 18.7812 23.001C18.6897 22.9765 18.6042 22.9483 18.5146 22.9219C18.4167 22.8933 18.3184 22.8647 18.2246 22.832C18.1266 22.7973 18.0324 22.7623 17.9365 22.7256C17.8672 22.6991 17.7958 22.675 17.7285 22.6465C17.6285 22.6057 17.5324 22.5624 17.4365 22.5195C17.3815 22.4951 17.3284 22.4708 17.2754 22.4443C17.1734 22.3954 17.0754 22.3459 16.9795 22.2949L16.8818 22.2402C16.4024 21.9709 16.0025 21.6666 15.6943 21.332C15.6862 21.3239 15.6751 21.3139 15.667 21.3037C15.5935 21.2221 15.5261 21.1384 15.4648 21.0547C15.4567 21.0424 15.4486 21.0318 15.4404 21.0195C15.161 20.6279 15.0001 20.2034 15 19.7607V18.4932C15 16.4605 18.1921 14.8135 22.1309 14.8135Z" fill="url(#paint1_linear_1341_3935)"/>
</g>
<defs>
<linearGradient id="paint0_linear_1341_3935" x1="11.5" y1="0" x2="11.5" y2="27" gradientUnits="userSpaceOnUse">
<stop stop-color="#BAB6DA"/>
<stop offset="1" stop-color="#574970"/>
</linearGradient>
<linearGradient id="paint1_linear_1341_3935" x1="22.1328" y1="14.8135" x2="22.1328" y2="29.9619" gradientUnits="userSpaceOnUse">
<stop stop-color="#BAB6DA"/>
<stop offset="1" stop-color="#574970"/>
</linearGradient>
</defs>
</svg>
