<svg width="8" height="8" viewBox="0 0 8 8" fill="none" xmlns="http://www.w3.org/2000/svg">
<path d="M7.01074 0.000976563C7.02833 0.00133208 7.04592 0.0016505 7.06348 0.00292969L7.09277 0.00488281C7.16189 0.0119102 7.22875 0.0264876 7.29297 0.046875C7.30375 0.0502902 7.31451 0.0538273 7.3252 0.0576172C7.34469 0.0645494 7.3639 0.0719911 7.38281 0.0800781C7.39004 0.0831606 7.39713 0.0865831 7.4043 0.0898438C7.42183 0.0978398 7.43908 0.106272 7.45605 0.115234C7.4612 0.117945 7.46657 0.12024 7.47168 0.123047L7.52441 0.154297C7.52976 0.157681 7.53477 0.161557 7.54004 0.165039C7.54839 0.170553 7.55623 0.176826 7.56445 0.182617C7.58296 0.195654 7.60159 0.208424 7.61914 0.222656C7.62451 0.227007 7.62947 0.231849 7.63477 0.236328C7.65257 0.251382 7.66982 0.266959 7.68652 0.283203C7.68995 0.286536 7.69387 0.289577 7.69727 0.292969C7.70036 0.296068 7.70301 0.299605 7.70605 0.302734C7.7435 0.341216 7.77768 0.38266 7.80859 0.426758C7.81453 0.435209 7.82053 0.443559 7.82617 0.452148C7.83539 0.466198 7.84402 0.480587 7.85254 0.495117C7.85809 0.504581 7.86393 0.513835 7.86914 0.523438C7.92266 0.622062 7.95972 0.730596 7.97754 0.845703C7.97946 0.858048 7.98096 0.870416 7.98242 0.882813C7.98386 0.895109 7.98437 0.907494 7.98535 0.919922C7.98697 0.940114 7.98886 0.960227 7.98926 0.980469C7.98938 0.986936 7.99023 0.993504 7.99023 1V6.99023C7.99018 7.54244 7.54244 7.99018 6.99023 7.99023C6.4381 7.99009 5.99029 7.54239 5.99023 6.99023V3.41406L1.70703 7.69727C1.31654 8.08776 0.683501 8.08769 0.292969 7.69727C-0.0974238 7.30673 -0.0975116 6.67368 0.292969 6.2832L4.57617 2L1 2C0.447748 2 5.36678e-05 1.55224 0 1C0 0.447715 0.447715 0 1 0L6.99023 0L7.01074 0.000976563Z" fill="#A7A2C9"/>
</svg>
