<svg width="18" height="18" viewBox="0 0 18 18" fill="none" xmlns="http://www.w3.org/2000/svg">
<path d="M3.52219 11.3578H0.817523C0.817523 11.3578 0.673957 11.3501 0.611944 11.6323C0.560027 11.869 0.719714 12.0956 0.719714 12.0956C0.790721 12.1958 4.10309 16.8668 4.10309 16.8668C4.10309 16.8668 4.33113 17.313 4.78156 17.313C5.22159 17.313 5.40095 16.9966 5.40095 16.9966L8.6942 12.1977C8.6942 12.1977 8.80535 11.8936 8.75053 11.6345C8.69126 11.3548 8.48665 11.3577 8.48665 11.3577H5.95497L5.95497 6.68885C5.95497 6.68885 6.44946 3.00778 7.81417 3.00778C7.81417 3.00778 3.52221 3.06961 3.52221 6.80759V11.3578H3.52219ZM14.4305 6.58268L17.1378 6.58268C17.1378 6.58268 17.3026 6.53305 17.3421 6.23277C17.3684 6.03236 17.2666 5.90739 17.2356 5.86355C17.1644 5.76318 13.8492 1.08792 13.8492 1.08792C13.8492 1.08792 13.6209 0.641373 13.1701 0.641373C12.7297 0.641373 12.5501 0.957935 12.5501 0.957935L9.25394 5.76133C9.25394 5.76133 9.13288 5.96122 9.20378 6.23277C9.29129 6.56835 9.46176 6.5827 9.46176 6.5827H11.9955V11.2752C11.9955 11.2752 11.5007 14.9596 10.1348 14.9596C10.1348 14.9596 14.4305 14.8978 14.4305 11.1563V6.58268H14.4305Z" fill="white"/>
</svg>
