<svg width="280" height="240" viewBox="0 0 280 240" fill="none" xmlns="http://www.w3.org/2000/svg">
<mask id="mask0_5943_4650" style="mask-type:alpha" maskUnits="userSpaceOnUse" x="0" y="0" width="280" height="240">
<rect width="280" height="240" fill="#D9D9D9"/>
</mask>
<g mask="url(#mask0_5943_4650)">
<rect x="98" width="2" height="30" rx="1" fill="url(#paint0_linear_5943_4650)"/>
<path d="M254 97.8562C254 97.2054 253.683 96.5953 253.151 96.2207L223 75V181C223 182.105 223.895 183 225 183H252C253.105 183 254 182.105 254 181V97.8562Z" fill="url(#paint1_linear_5943_4650)"/>
<rect x="183" y="42" width="40" height="130" rx="10" fill="url(#paint2_linear_5943_4650)"/>
<path d="M91 27C91 25.8954 91.8954 25 93 25H105C106.105 25 107 25.8954 107 27V31C107 32.1046 106.105 33 105 33H93C91.8954 33 91 32.1046 91 31V27Z" fill="url(#paint3_linear_5943_4650)"/>
<rect x="84" y="31" width="30" height="10" rx="2" fill="url(#paint4_linear_5943_4650)"/>
<path d="M79 51H58C56.8954 51 56 51.8954 56 53V165C56 166.105 56.8954 167 58 167H77C78.1046 167 79 166.105 79 165V51Z" fill="url(#paint5_linear_5943_4650)"/>
<rect x="79" y="37" width="40" height="144" rx="2" fill="url(#paint6_linear_5943_4650)"/>
<ellipse cx="140" cy="200" rx="140" ry="40" fill="url(#paint7_linear_5943_4650)"/>
<g opacity="0.5" filter="url(#filter0_f_5943_4650)">
<ellipse cx="140" cy="174" rx="70" ry="6" fill="#33254E"/>
</g>
<rect x="27.1621" y="197.623" width="3.09434" height="12.3774" rx="1.54717" fill="url(#paint8_linear_5943_4650)"/>
<path d="M28.7093 169L37.4186 198.009L28.7093 204.198L20 198.009L28.7093 169Z" fill="url(#paint9_linear_5943_4650)"/>
<path d="M28.7103 169V204.198L20.001 198.009L28.7103 169Z" fill="url(#paint10_linear_5943_4650)"/>
<rect x="53.1201" y="165.459" width="2.21186" height="8.84745" rx="1.10593" fill="url(#paint11_linear_5943_4650)"/>
<path d="M54.2255 145L60.4509 165.736L54.2255 170.16L48 165.736L54.2255 145Z" fill="url(#paint12_linear_5943_4650)"/>
<path d="M54.2264 145V170.16L48.001 165.736L54.2264 145Z" fill="url(#paint13_linear_5943_4650)"/>
<rect x="249.402" y="184.516" width="3.19763" height="12.7905" rx="1.59882" fill="url(#paint14_linear_5943_4650)"/>
<path d="M251 154.936L260.001 184.915L251 191.311L242 184.915L251 154.936Z" fill="url(#paint15_linear_5943_4650)"/>
<path d="M251.001 154.936V191.311L242.001 184.915L251.001 154.936Z" fill="url(#paint16_linear_5943_4650)"/>
<rect x="82" y="67" width="120" height="8.88889" rx="2" fill="url(#paint17_linear_5943_4650)"/>
<rect x="82.25" y="67.25" width="119.5" height="8.38889" rx="1.75" stroke="url(#paint18_linear_5943_4650)" stroke-opacity="0.5" stroke-width="0.5"/>
<rect x="82" y="163.667" width="120" height="8.88889" rx="2" fill="url(#paint19_linear_5943_4650)"/>
<rect x="82.25" y="163.917" width="119.5" height="8.38889" rx="1.75" stroke="url(#paint20_linear_5943_4650)" stroke-opacity="0.5" stroke-width="0.5"/>
<path d="M186.191 76.1392C186.057 100.432 166.325 120.083 142 120.083C117.676 120.083 97.9432 100.432 97.8086 76.1392H186.191Z" fill="url(#paint21_linear_5943_4650)" stroke="url(#paint22_linear_5943_4650)" stroke-width="0.5"/>
<path d="M186.191 163.417C186.057 139.124 166.325 119.473 142 119.473C117.676 119.473 97.9432 139.124 97.8086 163.417L186.191 163.417Z" fill="url(#paint23_linear_5943_4650)" stroke="url(#paint24_linear_5943_4650)" stroke-width="0.5"/>
<path d="M107.359 159.222C128.3 145.118 155.701 145.118 176.641 159.222H107.359Z" fill="url(#paint25_linear_5943_4650)"/>
<path d="M179.777 92.5559C164.824 124.661 119.175 124.661 104.222 92.5559L179.777 92.5559Z" fill="url(#paint26_linear_5943_4650)"/>
<circle cx="142" cy="124.778" r="3.33333" fill="url(#paint27_linear_5943_4650)"/>
<circle cx="142" cy="133.667" r="2.22222" fill="url(#paint28_linear_5943_4650)"/>
<circle cx="142" cy="141.445" r="1.11111" fill="url(#paint29_linear_5943_4650)"/>
</g>
<defs>
<filter id="filter0_f_5943_4650" x="66" y="164" width="148" height="20" filterUnits="userSpaceOnUse" color-interpolation-filters="sRGB">
<feFlood flood-opacity="0" result="BackgroundImageFix"/>
<feBlend mode="normal" in="SourceGraphic" in2="BackgroundImageFix" result="shape"/>
<feGaussianBlur stdDeviation="2" result="effect1_foregroundBlur_5943_4650"/>
</filter>
<linearGradient id="paint0_linear_5943_4650" x1="99" y1="15" x2="99" y2="0" gradientUnits="userSpaceOnUse">
<stop stop-color="#1E1432"/>
<stop offset="1" stop-color="#33254E"/>
</linearGradient>
<linearGradient id="paint1_linear_5943_4650" x1="238.5" y1="129" x2="238.5" y2="75" gradientUnits="userSpaceOnUse">
<stop stop-color="#0A0118" stop-opacity="0"/>
<stop offset="1" stop-color="#33254E"/>
</linearGradient>
<linearGradient id="paint2_linear_5943_4650" x1="203" y1="107" x2="203" y2="42" gradientUnits="userSpaceOnUse">
<stop stop-color="#0A0118" stop-opacity="0"/>
<stop offset="1" stop-color="#33254E"/>
</linearGradient>
<linearGradient id="paint3_linear_5943_4650" x1="99" y1="29" x2="99" y2="25" gradientUnits="userSpaceOnUse">
<stop stop-color="#1F1533"/>
<stop offset="1" stop-color="#33254E"/>
</linearGradient>
<linearGradient id="paint4_linear_5943_4650" x1="99" y1="36" x2="99" y2="31" gradientUnits="userSpaceOnUse">
<stop stop-color="#1F1533"/>
<stop offset="1" stop-color="#33254E"/>
</linearGradient>
<linearGradient id="paint5_linear_5943_4650" x1="67.5" y1="109" x2="67.5" y2="51" gradientUnits="userSpaceOnUse">
<stop stop-color="#0A0118" stop-opacity="0"/>
<stop offset="1" stop-color="#33254E"/>
</linearGradient>
<linearGradient id="paint6_linear_5943_4650" x1="99" y1="109" x2="99" y2="37" gradientUnits="userSpaceOnUse">
<stop stop-color="#0A0118" stop-opacity="0"/>
<stop offset="1" stop-color="#33254E"/>
</linearGradient>
<linearGradient id="paint7_linear_5943_4650" x1="140" y1="200" x2="140" y2="160" gradientUnits="userSpaceOnUse">
<stop stop-color="#0A0118" stop-opacity="0"/>
<stop offset="1" stop-color="#33254E"/>
</linearGradient>
<linearGradient id="paint8_linear_5943_4650" x1="28.7093" y1="210" x2="28.7093" y2="197.623" gradientUnits="userSpaceOnUse">
<stop stop-color="#33254E"/>
<stop offset="1" stop-color="#1B0D31"/>
</linearGradient>
<linearGradient id="paint9_linear_5943_4650" x1="28.7096" y1="169.774" x2="28.7096" y2="198.009" gradientUnits="userSpaceOnUse">
<stop stop-color="#33254E"/>
<stop offset="1" stop-color="#443564"/>
</linearGradient>
<linearGradient id="paint10_linear_5943_4650" x1="24.3556" y1="169" x2="24.3556" y2="198.009" gradientUnits="userSpaceOnUse">
<stop stop-color="#443564"/>
<stop offset="1" stop-color="#524B71"/>
</linearGradient>
<linearGradient id="paint11_linear_5943_4650" x1="54.226" y1="174.306" x2="54.226" y2="165.459" gradientUnits="userSpaceOnUse">
<stop stop-color="#33254E"/>
<stop offset="1" stop-color="#1B0D31"/>
</linearGradient>
<linearGradient id="paint12_linear_5943_4650" x1="54.2257" y1="145.553" x2="54.2257" y2="165.736" gradientUnits="userSpaceOnUse">
<stop stop-color="#33254E"/>
<stop offset="1" stop-color="#443564"/>
</linearGradient>
<linearGradient id="paint13_linear_5943_4650" x1="51.1137" y1="145" x2="51.1137" y2="165.736" gradientUnits="userSpaceOnUse">
<stop stop-color="#443564"/>
<stop offset="1" stop-color="#524B71"/>
</linearGradient>
<linearGradient id="paint14_linear_5943_4650" x1="251.001" y1="197.306" x2="251.001" y2="184.516" gradientUnits="userSpaceOnUse">
<stop stop-color="#33254E"/>
<stop offset="1" stop-color="#1B0D31"/>
</linearGradient>
<linearGradient id="paint15_linear_5943_4650" x1="251.001" y1="155.735" x2="251.001" y2="184.915" gradientUnits="userSpaceOnUse">
<stop stop-color="#33254E"/>
<stop offset="1" stop-color="#443564"/>
</linearGradient>
<linearGradient id="paint16_linear_5943_4650" x1="246.501" y1="154.936" x2="246.501" y2="184.915" gradientUnits="userSpaceOnUse">
<stop stop-color="#443564"/>
<stop offset="1" stop-color="#524B71"/>
</linearGradient>
<linearGradient id="paint17_linear_5943_4650" x1="142" y1="67" x2="142" y2="75.8889" gradientUnits="userSpaceOnUse">
<stop stop-color="#4D01B9"/>
<stop offset="1" stop-color="#2D0073"/>
</linearGradient>
<linearGradient id="paint18_linear_5943_4650" x1="142" y1="69.1728" x2="142" y2="75.8889" gradientUnits="userSpaceOnUse">
<stop stop-color="white" stop-opacity="0.2"/>
<stop offset="1" stop-color="white" stop-opacity="0.05"/>
</linearGradient>
<linearGradient id="paint19_linear_5943_4650" x1="142" y1="163.667" x2="142" y2="172.556" gradientUnits="userSpaceOnUse">
<stop stop-color="#4D01B9"/>
<stop offset="1" stop-color="#2D0073"/>
</linearGradient>
<linearGradient id="paint20_linear_5943_4650" x1="142" y1="165.84" x2="142" y2="172.556" gradientUnits="userSpaceOnUse">
<stop stop-color="white" stop-opacity="0.2"/>
<stop offset="1" stop-color="white" stop-opacity="0.05"/>
</linearGradient>
<linearGradient id="paint21_linear_5943_4650" x1="115.333" y1="75.8892" x2="122.44" y2="123.268" gradientUnits="userSpaceOnUse">
<stop stop-color="#A783FF"/>
<stop offset="1" stop-color="#6227FF"/>
</linearGradient>
<linearGradient id="paint22_linear_5943_4650" x1="142" y1="75.8892" x2="142" y2="120.334" gradientUnits="userSpaceOnUse">
<stop stop-color="white" stop-opacity="0.2"/>
<stop offset="1" stop-color="white" stop-opacity="0.05"/>
</linearGradient>
<linearGradient id="paint23_linear_5943_4650" x1="115.333" y1="163.667" x2="122.44" y2="116.289" gradientUnits="userSpaceOnUse">
<stop stop-color="#A783FF"/>
<stop offset="1" stop-color="#6227FF"/>
</linearGradient>
<linearGradient id="paint24_linear_5943_4650" x1="142" y1="163.667" x2="142" y2="119.223" gradientUnits="userSpaceOnUse">
<stop stop-color="white" stop-opacity="0.2"/>
<stop offset="1" stop-color="white" stop-opacity="0.05"/>
</linearGradient>
<linearGradient id="paint25_linear_5943_4650" x1="103.481" y1="124.645" x2="108.702" y2="161.5" gradientUnits="userSpaceOnUse">
<stop stop-color="#E4D9FF"/>
<stop offset="1" stop-color="#A783FF"/>
</linearGradient>
<linearGradient id="paint26_linear_5943_4650" x1="184.007" y1="212.755" x2="134.989" y2="104.203" gradientUnits="userSpaceOnUse">
<stop stop-color="#E4D9FF"/>
<stop offset="1" stop-color="#A783FF"/>
</linearGradient>
<linearGradient id="paint27_linear_5943_4650" x1="138.294" y1="118.232" x2="142.133" y2="127.359" gradientUnits="userSpaceOnUse">
<stop stop-color="#E4D9FF"/>
<stop offset="1" stop-color="#A783FF"/>
</linearGradient>
<linearGradient id="paint28_linear_5943_4650" x1="139.529" y1="129.303" x2="142.088" y2="135.387" gradientUnits="userSpaceOnUse">
<stop stop-color="#E4D9FF"/>
<stop offset="1" stop-color="#A783FF"/>
</linearGradient>
<linearGradient id="paint29_linear_5943_4650" x1="140.764" y1="139.263" x2="142.044" y2="142.305" gradientUnits="userSpaceOnUse">
<stop stop-color="#E4D9FF"/>
<stop offset="1" stop-color="#A783FF"/>
</linearGradient>
</defs>
</svg>
