<svg width="280" height="240" viewBox="0 0 280 240" fill="none" xmlns="http://www.w3.org/2000/svg">
<mask id="mask0_4115_2948" style="mask-type:alpha" maskUnits="userSpaceOnUse" x="0" y="0" width="280" height="240">
<rect width="280" height="240" fill="#D9D9D9"/>
</mask>
<g mask="url(#mask0_4115_2948)">
<path d="M239 65C240.105 65 241 65.8954 241 67V182C241 183.105 240.105 184 239 184H193C191.895 184 191 183.105 191 182V67C191 65.8954 191.895 65 193 65H239ZM234 45C235.105 45 236 45.8954 236 47V59C236 60.1046 235.105 61 234 61H198C196.895 61 196 60.1046 196 59V47C196 45.8954 196.895 45 198 45H234Z" fill="url(#paint0_linear_4115_2948)"/>
<path d="M46 81C46 79.8954 46.8954 79 48 79H74C75.1046 79 76 79.8954 76 81V193C76 194.105 75.1046 195 74 195H48C46.8954 195 46 194.105 46 193V81Z" fill="url(#paint1_linear_4115_2948)"/>
<path d="M173.464 2.71973C174.263 1.76022 175.737 1.76022 176.536 2.71973L199.536 30.3193C199.836 30.6787 200 31.1318 200 31.5996V188.876C200 189.98 199.104 190.876 198 190.876H152C150.896 190.876 150 189.98 150 188.876V31.5996C150 31.1318 150.164 30.6787 150.464 30.3193L173.464 2.71973ZM162 81.876C160.895 81.876 160 82.7714 160 83.876C160 84.9804 160.896 85.876 162 85.876H188C189.104 85.876 190 84.9804 190 83.876C190 82.7714 189.105 81.876 188 81.876H162ZM162 67.876C160.895 67.876 160 68.7714 160 69.876C160 70.9804 160.896 71.876 162 71.876H188C189.104 71.876 190 70.9804 190 69.876C190 68.7714 189.105 67.876 188 67.876H162ZM162 53.876C160.895 53.876 160 54.7714 160 55.876C160 56.9804 160.896 57.876 162 57.876H188C189.104 57.876 190 56.9804 190 55.876C190 54.7714 189.105 53.876 188 53.876H162ZM162 39.876C160.895 39.876 160 40.7714 160 41.876C160 42.9804 160.896 43.876 162 43.876H188C189.104 43.876 190 42.9804 190 41.876C190 40.7714 189.105 39.876 188 39.876H162Z" fill="url(#paint2_linear_4115_2948)"/>
<path d="M71 63C71 61.8954 71.8954 61 73 61H109C110.105 61 111 61.8954 111 63V203C111 204.105 110.105 205 109 205H73C71.8954 205 71 204.105 71 203V63Z" fill="url(#paint3_linear_4115_2948)"/>
<ellipse cx="140" cy="200" rx="140" ry="40" fill="url(#paint4_linear_4115_2948)"/>
<rect x="27.1621" y="197.623" width="3.09434" height="12.3774" rx="1.54717" fill="url(#paint5_linear_4115_2948)"/>
<path d="M28.7093 169L37.4186 198.009L28.7093 204.198L20 198.009L28.7093 169Z" fill="url(#paint6_linear_4115_2948)"/>
<path d="M28.7103 169V204.198L20.001 198.009L28.7103 169Z" fill="url(#paint7_linear_4115_2948)"/>
<rect x="53.1201" y="165.459" width="2.21186" height="8.84745" rx="1.10593" fill="url(#paint8_linear_4115_2948)"/>
<path d="M54.2255 145L60.4509 165.736L54.2255 170.16L48 165.736L54.2255 145Z" fill="url(#paint9_linear_4115_2948)"/>
<path d="M54.2264 145V170.16L48.001 165.736L54.2264 145Z" fill="url(#paint10_linear_4115_2948)"/>
<g opacity="0.5" filter="url(#filter0_f_4115_2948)">
<ellipse cx="140" cy="186" rx="85" ry="6" fill="#33254E"/>
</g>
<rect x="249.402" y="184.516" width="3.19763" height="12.7905" rx="1.59882" fill="url(#paint11_linear_4115_2948)"/>
<path d="M251 154.936L260.001 184.915L251 191.311L242 184.915L251 154.936Z" fill="url(#paint12_linear_4115_2948)"/>
<path d="M251.001 154.936V191.311L242.001 184.915L251.001 154.936Z" fill="url(#paint13_linear_4115_2948)"/>
<path fill-rule="evenodd" clip-rule="evenodd" d="M141.25 160.939V164.625H118.463H105.688L114.008 152.178C116.798 148.005 121.396 145.514 126.307 145.514C134.56 145.514 141.25 152.42 141.25 160.939Z" fill="url(#paint14_linear_4115_2948)"/>
<path d="M126.308 145.764C134.415 145.764 141 152.55 141 160.938V164.375H106.155L114.216 152.317C116.96 148.212 121.482 145.764 126.308 145.764Z" stroke="url(#paint15_linear_4115_2948)" stroke-opacity="0.5" stroke-width="0.5"/>
<path fill-rule="evenodd" clip-rule="evenodd" d="M141.28 183.14H138.641V158.009C138.641 152.165 133.914 147.427 128.083 147.427C123.922 147.427 120.779 149.907 118.646 153.352L117.845 154.685L116.913 156.185L115.415 158.521L114.888 159.331C113.048 162.15 108.647 164.622 104.329 164.622C97.1644 164.622 91.3331 158.899 91.1374 151.765L91.1324 151.395L91.1311 101.132H73.9766V85.9204C73.9766 80.8895 77.7128 76.7333 82.5559 76.0872C82.3383 76.0585 82.1172 76.0364 81.8942 76.0217L81.8946 76H145.239C153.257 76 159.756 82.5142 159.756 90.5499V144.782H93.7718V151.395C93.7718 157.239 98.4985 161.977 104.329 161.977C108.18 161.977 111.549 159.911 113.393 156.824L114.22 155.357L114.514 154.846L115.007 154.014L115.571 153.09L115.993 152.416L116.457 151.691L116.967 150.91L117.527 150.07C119.576 147.02 123.767 144.782 128.083 144.782C135.372 144.782 141.28 150.704 141.28 158.009V183.14Z" fill="url(#paint16_linear_4115_2948)"/>
<path d="M147.878 76.25C155.757 76.25 162.144 82.6517 162.145 90.5498V144.531H126.957L126.897 144.568L126.861 144.59C123.057 144.949 119.489 146.944 117.531 149.627L117.528 149.631L117.321 149.927L117.318 149.932L116.759 150.771L116.758 150.773L116.248 151.554L116.247 151.556L115.782 152.281L115.781 152.283L115.358 152.957L115.357 152.96L114.793 153.884L114.791 153.887L114.299 154.719L114.298 154.722L114.003 155.232L114.002 155.234L113.178 156.696C111.377 159.71 108.088 161.726 104.329 161.727C98.9188 161.727 94.4808 157.548 94.0547 152.234L94.0264 151.717L94.0215 151.392V85.9209C94.0215 81.405 91.0841 77.5772 87.0195 76.25H147.878Z" fill="url(#paint17_linear_4115_2948)" stroke="url(#paint18_linear_4115_2948)" stroke-width="0.5"/>
<path d="M76.6162 85.9234C76.6162 81.9056 79.8658 78.6484 83.8745 78.6484C87.8831 78.6484 91.1327 81.9056 91.1327 85.9234V101.135H76.6162V85.9234Z" fill="url(#paint19_linear_4115_2948)"/>
<path d="M83.874 78.8984C87.744 78.8984 90.8828 82.0435 90.8828 85.9238V100.885H76.8662V85.9238C76.8662 82.0436 80.0042 78.8987 83.874 78.8984Z" stroke="url(#paint20_linear_4115_2948)" stroke-opacity="0.5" stroke-width="0.5"/>
<path d="M192.748 145.031C200.627 145.031 207.015 151.433 207.015 159.331V182.891H141.531V158.009C141.531 151.83 137.382 146.622 131.724 145.031H192.748Z" fill="url(#paint21_linear_4115_2948)" stroke="url(#paint22_linear_4115_2948)" stroke-width="0.5"/>
<path d="M150.518 94.5195H108.288V98.4877H150.518V94.5195Z" fill="url(#paint23_linear_4115_2948)"/>
<path d="M132.042 107.746H108.288V111.714H132.042V107.746Z" fill="url(#paint24_linear_4115_2948)"/>
<path d="M128.083 123.619H108.288V127.587H128.083V123.619Z" fill="url(#paint25_linear_4115_2948)"/>
<path d="M169.75 133.314C171.068 132.176 173.032 132.264 174.243 133.479L174.404 133.652L182.864 143.575C184.056 144.951 183.905 147.032 182.526 148.223C181.208 149.361 179.244 149.273 178.033 148.058L177.872 147.885L169.412 137.962C168.22 136.586 168.371 134.505 169.75 133.314Z" fill="url(#paint26_linear_4115_2948)"/>
<path fill-rule="evenodd" clip-rule="evenodd" d="M161.297 138.672C161.584 138.672 161.87 138.665 162.155 138.651C162.441 138.637 162.727 138.616 163.011 138.588C163.296 138.56 163.58 138.525 163.863 138.483C164.146 138.441 164.428 138.392 164.709 138.336C164.99 138.281 165.269 138.218 165.546 138.149C165.824 138.079 166.1 138.003 166.374 137.92C166.648 137.837 166.919 137.747 167.189 137.651C167.458 137.555 167.725 137.452 167.99 137.343C168.254 137.233 168.516 137.118 168.774 136.995C169.033 136.873 169.288 136.745 169.541 136.61C169.793 136.475 170.042 136.334 170.288 136.187C170.533 136.041 170.775 135.888 171.013 135.729C171.251 135.57 171.485 135.406 171.715 135.235C171.945 135.065 172.17 134.889 172.391 134.708C172.613 134.527 172.829 134.34 173.041 134.148C173.253 133.956 173.461 133.759 173.663 133.557C173.865 133.355 174.063 133.148 174.255 132.936C174.447 132.724 174.634 132.508 174.815 132.287C174.997 132.066 175.173 131.841 175.344 131.611C175.514 131.382 175.679 131.148 175.838 130.911C175.997 130.673 176.15 130.432 176.297 130.186C176.444 129.941 176.585 129.693 176.72 129.441C176.855 129.188 176.984 128.933 177.106 128.675C177.228 128.417 177.344 128.155 177.454 127.891C177.563 127.627 177.666 127.361 177.763 127.092C177.859 126.822 177.949 126.551 178.032 126.278C178.115 126.004 178.191 125.729 178.261 125.452C178.33 125.174 178.393 124.895 178.449 124.615C178.505 124.335 178.554 124.053 178.596 123.771C178.638 123.488 178.673 123.204 178.701 122.92C178.729 122.635 178.75 122.35 178.764 122.065C178.778 121.78 178.785 121.494 178.785 121.208C178.785 120.922 178.778 120.637 178.764 120.351C178.75 120.066 178.729 119.781 178.701 119.496C178.673 119.212 178.638 118.928 178.596 118.646C178.554 118.363 178.505 118.081 178.449 117.801C178.393 117.521 178.33 117.242 178.261 116.965C178.191 116.687 178.115 116.412 178.032 116.139C177.949 115.865 177.859 115.594 177.763 115.325C177.666 115.056 177.563 114.789 177.454 114.525C177.344 114.261 177.228 114 177.106 113.741C176.984 113.483 176.855 113.228 176.72 112.976C176.585 112.724 176.444 112.475 176.297 112.23C176.15 111.985 175.997 111.743 175.838 111.506C175.679 111.268 175.514 111.034 175.344 110.805C175.173 110.575 174.997 110.35 174.815 110.129C174.634 109.908 174.447 109.692 174.255 109.48C174.063 109.268 173.865 109.061 173.663 108.859C173.461 108.657 173.253 108.46 173.041 108.268C172.829 108.076 172.613 107.89 172.391 107.708C172.17 107.527 171.945 107.351 171.715 107.181C171.485 107.011 171.251 106.846 171.013 106.687C170.775 106.529 170.533 106.376 170.288 106.229C170.042 106.082 169.793 105.941 169.541 105.806C169.288 105.672 169.033 105.543 168.774 105.421C168.516 105.299 168.254 105.183 167.99 105.074C167.725 104.964 167.458 104.861 167.189 104.765C166.919 104.669 166.648 104.579 166.374 104.496C166.1 104.413 165.824 104.337 165.546 104.268C165.269 104.198 164.99 104.135 164.709 104.08C164.428 104.024 164.146 103.975 163.863 103.933C163.58 103.891 163.296 103.856 163.011 103.828C162.727 103.8 162.441 103.779 162.155 103.765C161.87 103.751 161.584 103.744 161.297 103.744C161.011 103.744 160.725 103.751 160.439 103.765C160.153 103.779 159.868 103.8 159.583 103.828C159.298 103.856 159.014 103.891 158.731 103.933C158.448 103.975 158.166 104.024 157.886 104.08C157.605 104.135 157.326 104.198 157.048 104.268C156.77 104.337 156.495 104.413 156.221 104.496C155.947 104.579 155.675 104.669 155.406 104.765C155.136 104.861 154.869 104.964 154.605 105.074C154.341 105.183 154.079 105.299 153.82 105.421C153.562 105.543 153.306 105.672 153.054 105.806C152.801 105.941 152.552 106.082 152.307 106.229C152.061 106.376 151.82 106.529 151.582 106.687C151.344 106.846 151.11 107.011 150.88 107.181C150.65 107.351 150.424 107.527 150.203 107.708C149.982 107.89 149.765 108.076 149.553 108.268C149.341 108.46 149.134 108.657 148.932 108.859C148.729 109.061 148.532 109.268 148.34 109.48C148.148 109.692 147.961 109.908 147.779 110.129C147.598 110.35 147.422 110.575 147.251 110.805C147.081 111.034 146.916 111.268 146.757 111.506C146.598 111.743 146.445 111.985 146.298 112.23C146.15 112.475 146.009 112.724 145.874 112.976C145.74 113.228 145.611 113.483 145.489 113.741C145.366 114 145.25 114.261 145.141 114.525C145.031 114.789 144.928 115.056 144.832 115.325C144.735 115.594 144.646 115.865 144.563 116.139C144.48 116.412 144.403 116.687 144.334 116.965C144.264 117.242 144.201 117.521 144.146 117.801C144.09 118.081 144.041 118.363 143.999 118.646C143.957 118.928 143.922 119.212 143.894 119.496C143.866 119.781 143.845 120.066 143.831 120.351C143.817 120.637 143.81 120.922 143.81 121.208C143.81 121.494 143.817 121.78 143.831 122.065C143.845 122.35 143.866 122.635 143.894 122.92C143.922 123.204 143.957 123.488 143.999 123.771C144.041 124.053 144.09 124.335 144.146 124.615C144.201 124.895 144.264 125.174 144.334 125.452C144.403 125.729 144.48 126.004 144.563 126.278C144.646 126.551 144.735 126.822 144.832 127.092C144.928 127.361 145.031 127.627 145.141 127.891C145.25 128.155 145.366 128.417 145.489 128.675C145.611 128.933 145.74 129.188 145.874 129.441C146.009 129.693 146.15 129.941 146.298 130.186C146.445 130.432 146.598 130.673 146.757 130.911C146.916 131.148 147.081 131.382 147.251 131.611C147.422 131.841 147.598 132.066 147.779 132.287C147.961 132.508 148.148 132.724 148.34 132.936C148.532 133.148 148.729 133.355 148.932 133.557C149.134 133.759 149.341 133.956 149.553 134.148C149.765 134.34 149.982 134.527 150.203 134.708C150.424 134.889 150.65 135.065 150.88 135.235C151.11 135.406 151.344 135.57 151.582 135.729C151.82 135.888 152.061 136.041 152.307 136.187C152.552 136.334 152.801 136.475 153.054 136.61C153.306 136.745 153.562 136.873 153.82 136.995C154.079 137.118 154.341 137.233 154.605 137.343C154.869 137.452 155.136 137.555 155.406 137.651C155.675 137.747 155.947 137.837 156.221 137.92C156.495 138.003 156.77 138.079 157.048 138.149C157.326 138.218 157.605 138.281 157.886 138.336C158.166 138.392 158.448 138.441 158.731 138.483C159.014 138.525 159.298 138.56 159.583 138.588C159.868 138.616 160.153 138.637 160.439 138.651C160.725 138.665 161.011 138.672 161.297 138.672ZM161.945 134.791C162.157 134.791 162.369 134.786 162.581 134.776C162.792 134.765 163.004 134.75 163.215 134.729C163.426 134.708 163.636 134.682 163.846 134.651C164.056 134.62 164.264 134.584 164.472 134.543C164.68 134.501 164.887 134.455 165.093 134.403C165.298 134.352 165.503 134.296 165.705 134.234C165.908 134.173 166.109 134.106 166.309 134.035C166.509 133.964 166.706 133.888 166.902 133.807C167.098 133.725 167.292 133.64 167.484 133.549C167.675 133.459 167.865 133.363 168.051 133.264C168.238 133.164 168.423 133.06 168.605 132.951C168.787 132.842 168.966 132.729 169.142 132.611C169.318 132.493 169.491 132.372 169.662 132.245C169.832 132.119 169.999 131.989 170.163 131.855C170.327 131.721 170.487 131.582 170.644 131.44C170.801 131.298 170.955 131.152 171.105 131.002C171.255 130.853 171.401 130.699 171.543 130.542C171.686 130.385 171.824 130.225 171.959 130.062C172.093 129.898 172.223 129.731 172.35 129.561C172.476 129.391 172.598 129.218 172.716 129.042C172.834 128.866 172.947 128.687 173.056 128.506C173.165 128.324 173.269 128.14 173.369 127.953C173.469 127.766 173.565 127.577 173.655 127.386C173.746 127.194 173.832 127.001 173.913 126.805C173.994 126.61 174.07 126.412 174.142 126.213C174.213 126.014 174.28 125.813 174.341 125.61C174.403 125.408 174.459 125.204 174.511 124.998C174.562 124.793 174.609 124.586 174.65 124.379C174.691 124.171 174.728 123.962 174.759 123.753C174.79 123.544 174.816 123.334 174.837 123.123C174.857 122.912 174.873 122.701 174.883 122.49C174.894 122.278 174.899 122.067 174.899 121.855C174.899 121.643 174.894 121.432 174.883 121.22C174.873 121.009 174.857 120.798 174.837 120.587C174.816 120.376 174.79 120.166 174.759 119.957C174.728 119.747 174.691 119.539 174.65 119.331C174.609 119.124 174.562 118.917 174.511 118.712C174.459 118.506 174.403 118.302 174.341 118.1C174.28 117.897 174.213 117.696 174.142 117.497C174.07 117.297 173.994 117.1 173.913 116.904C173.832 116.709 173.746 116.515 173.655 116.324C173.565 116.133 173.469 115.944 173.369 115.757C173.269 115.57 173.165 115.386 173.056 115.204C172.947 115.023 172.834 114.844 172.716 114.668C172.598 114.492 172.476 114.319 172.35 114.149C172.223 113.979 172.093 113.812 171.959 113.648C171.824 113.485 171.686 113.324 171.543 113.167C171.401 113.011 171.255 112.857 171.105 112.708C170.955 112.558 170.801 112.412 170.644 112.27C170.487 112.128 170.327 111.989 170.163 111.855C169.999 111.721 169.832 111.591 169.662 111.464C169.491 111.338 169.318 111.216 169.142 111.099C168.966 110.981 168.787 110.868 168.605 110.759C168.423 110.65 168.238 110.546 168.051 110.446C167.865 110.346 167.675 110.251 167.484 110.161C167.292 110.07 167.098 109.984 166.902 109.903C166.706 109.822 166.509 109.746 166.309 109.675C166.109 109.604 165.908 109.537 165.705 109.476C165.503 109.414 165.298 109.358 165.093 109.306C164.887 109.255 164.68 109.209 164.472 109.167C164.264 109.126 164.056 109.09 163.846 109.059C163.636 109.028 163.426 109.002 163.215 108.981C163.004 108.96 162.792 108.945 162.581 108.934C162.369 108.924 162.157 108.919 161.945 108.919C161.733 108.919 161.521 108.924 161.309 108.934C161.098 108.945 160.886 108.96 160.675 108.981C160.464 109.002 160.254 109.028 160.044 109.059C159.835 109.09 159.626 109.126 159.418 109.167C159.21 109.209 159.003 109.255 158.798 109.306C158.592 109.358 158.388 109.414 158.185 109.476C157.982 109.537 157.781 109.604 157.581 109.675C157.381 109.746 157.184 109.822 156.988 109.903C156.792 109.984 156.598 110.07 156.407 110.161C156.215 110.251 156.026 110.346 155.839 110.446C155.652 110.546 155.467 110.65 155.285 110.759C155.104 110.868 154.925 110.981 154.748 111.099C154.572 111.216 154.399 111.338 154.228 111.464C154.058 111.591 153.891 111.721 153.727 111.855C153.563 111.989 153.403 112.128 153.246 112.27C153.089 112.412 152.935 112.558 152.785 112.708C152.635 112.857 152.489 113.011 152.347 113.167C152.205 113.324 152.066 113.485 151.932 113.648C151.797 113.812 151.667 113.979 151.54 114.149C151.414 114.319 151.292 114.492 151.174 114.668C151.057 114.844 150.943 115.023 150.834 115.204C150.725 115.386 150.621 115.57 150.521 115.757C150.421 115.944 150.326 116.133 150.235 116.324C150.144 116.515 150.058 116.709 149.977 116.904C149.896 117.1 149.82 117.297 149.748 117.497C149.677 117.696 149.611 117.897 149.549 118.1C149.487 118.302 149.431 118.506 149.379 118.712C149.328 118.917 149.282 119.124 149.24 119.331C149.199 119.539 149.163 119.747 149.131 119.957C149.1 120.166 149.074 120.376 149.054 120.587C149.033 120.798 149.017 121.009 149.007 121.22C148.996 121.432 148.991 121.643 148.991 121.855C148.991 122.067 148.996 122.278 149.007 122.49C149.017 122.701 149.033 122.912 149.054 123.123C149.074 123.334 149.1 123.544 149.131 123.753C149.163 123.962 149.199 124.171 149.24 124.379C149.282 124.586 149.328 124.793 149.379 124.998C149.431 125.204 149.487 125.408 149.549 125.61C149.611 125.813 149.677 126.014 149.748 126.213C149.82 126.412 149.896 126.61 149.977 126.805C150.058 127.001 150.144 127.194 150.235 127.386C150.326 127.577 150.421 127.766 150.521 127.953C150.621 128.14 150.725 128.324 150.834 128.506C150.943 128.687 151.057 128.866 151.174 129.042C151.292 129.218 151.414 129.391 151.54 129.561C151.667 129.731 151.797 129.898 151.932 130.062C152.066 130.225 152.205 130.385 152.347 130.542C152.489 130.699 152.635 130.853 152.785 131.002C152.935 131.152 153.089 131.298 153.246 131.44C153.403 131.582 153.563 131.721 153.727 131.855C153.891 131.989 154.058 132.119 154.228 132.245C154.399 132.372 154.572 132.493 154.748 132.611C154.925 132.729 155.104 132.842 155.285 132.951C155.467 133.06 155.652 133.164 155.839 133.264C156.026 133.363 156.215 133.459 156.407 133.549C156.598 133.64 156.792 133.725 156.988 133.807C157.184 133.888 157.381 133.964 157.581 134.035C157.781 134.106 157.982 134.173 158.185 134.234C158.388 134.296 158.592 134.352 158.798 134.403C159.003 134.455 159.21 134.501 159.418 134.543C159.626 134.584 159.835 134.62 160.044 134.651C160.254 134.682 160.464 134.708 160.675 134.729C160.886 134.75 161.098 134.765 161.309 134.776C161.521 134.786 161.733 134.791 161.945 134.791Z" fill="url(#paint27_linear_4115_2948)"/>
<path fill-rule="evenodd" clip-rule="evenodd" d="M163.871 139.595C164.163 139.595 164.454 139.588 164.746 139.573C165.037 139.559 165.328 139.538 165.618 139.509C165.908 139.481 166.197 139.445 166.486 139.402C166.774 139.359 167.061 139.31 167.347 139.253C167.633 139.196 167.918 139.132 168.201 139.061C168.484 138.991 168.764 138.913 169.044 138.829C169.323 138.744 169.599 138.653 169.874 138.555C170.148 138.456 170.42 138.352 170.69 138.24C170.959 138.129 171.226 138.011 171.489 137.886C171.753 137.762 172.013 137.631 172.271 137.494C172.528 137.356 172.781 137.213 173.031 137.063C173.282 136.914 173.528 136.758 173.77 136.596C174.013 136.434 174.251 136.267 174.485 136.093C174.72 135.92 174.949 135.741 175.175 135.556C175.4 135.371 175.621 135.181 175.837 134.985C176.053 134.79 176.264 134.589 176.47 134.383C176.677 134.177 176.878 133.966 177.073 133.751C177.269 133.535 177.46 133.314 177.645 133.089C177.83 132.864 178.009 132.635 178.183 132.401C178.356 132.167 178.524 131.929 178.686 131.687C178.848 131.445 179.004 131.199 179.154 130.949C179.304 130.699 179.448 130.446 179.585 130.189C179.723 129.932 179.854 129.672 179.978 129.409C180.103 129.146 180.221 128.88 180.333 128.611C180.444 128.341 180.549 128.07 180.647 127.796C180.746 127.522 180.837 127.245 180.922 126.966C181.006 126.688 181.084 126.407 181.155 126.125C181.226 125.842 181.29 125.558 181.347 125.273C181.404 124.987 181.453 124.7 181.496 124.412C181.539 124.124 181.575 123.835 181.603 123.545C181.632 123.256 181.653 122.965 181.668 122.674C181.682 122.383 181.689 122.092 181.689 121.801C181.689 121.51 181.682 121.219 181.668 120.928C181.653 120.637 181.632 120.347 181.603 120.057C181.575 119.767 181.539 119.479 181.496 119.19C181.453 118.902 181.404 118.616 181.347 118.33C181.29 118.044 181.226 117.76 181.155 117.478C181.084 117.195 181.006 116.915 180.922 116.636C180.837 116.357 180.746 116.081 180.647 115.807C180.549 115.533 180.444 115.261 180.333 114.992C180.221 114.723 180.103 114.457 179.978 114.194C179.854 113.93 179.723 113.67 179.585 113.413C179.448 113.157 179.304 112.903 179.154 112.654C179.004 112.404 178.848 112.158 178.686 111.916C178.524 111.674 178.356 111.436 178.183 111.202C178.009 110.968 177.83 110.738 177.645 110.513C177.46 110.288 177.269 110.068 177.073 109.852C176.878 109.636 176.677 109.425 176.47 109.219C176.264 109.013 176.053 108.813 175.837 108.617C175.621 108.422 175.4 108.231 175.175 108.047C174.949 107.862 174.72 107.683 174.485 107.509C174.251 107.336 174.013 107.168 173.77 107.007C173.528 106.845 173.282 106.689 173.031 106.539C172.781 106.39 172.528 106.246 172.271 106.109C172.013 105.972 171.753 105.841 171.489 105.716C171.226 105.592 170.959 105.474 170.69 105.362C170.42 105.251 170.148 105.146 169.874 105.048C169.599 104.95 169.323 104.859 169.044 104.774C168.764 104.689 168.484 104.612 168.201 104.541C167.918 104.47 167.633 104.407 167.347 104.35C167.061 104.293 166.774 104.243 166.486 104.2C166.197 104.158 165.908 104.122 165.618 104.093C165.328 104.065 165.037 104.044 164.746 104.029C164.454 104.015 164.163 104.008 163.871 104.008C163.58 104.008 163.288 104.015 162.997 104.029C162.706 104.044 162.415 104.065 162.125 104.093C161.835 104.122 161.545 104.158 161.257 104.2C160.969 104.243 160.681 104.293 160.395 104.35C160.109 104.407 159.825 104.47 159.542 104.541C159.259 104.612 158.978 104.689 158.699 104.774C158.42 104.859 158.143 104.95 157.869 105.048C157.594 105.146 157.322 105.251 157.053 105.362C156.783 105.474 156.517 105.592 156.253 105.716C155.99 105.841 155.729 105.972 155.472 106.109C155.215 106.246 154.961 106.39 154.711 106.539C154.461 106.689 154.215 106.845 153.972 107.007C153.73 107.168 153.492 107.336 153.257 107.509C153.023 107.683 152.793 107.862 152.568 108.047C152.343 108.231 152.122 108.422 151.906 108.617C151.69 108.813 151.479 109.013 151.272 109.219C151.066 109.425 150.865 109.636 150.669 109.852C150.474 110.068 150.283 110.288 150.098 110.513C149.913 110.738 149.734 110.968 149.56 111.202C149.386 111.436 149.219 111.674 149.057 111.916C148.895 112.158 148.739 112.404 148.589 112.654C148.439 112.903 148.295 113.157 148.158 113.413C148.02 113.67 147.889 113.93 147.764 114.194C147.64 114.457 147.522 114.723 147.41 114.992C147.298 115.261 147.193 115.533 147.095 115.807C146.997 116.081 146.906 116.357 146.821 116.636C146.736 116.915 146.659 117.195 146.588 117.478C146.517 117.76 146.453 118.044 146.396 118.33C146.339 118.616 146.289 118.902 146.247 119.19C146.204 119.479 146.168 119.767 146.14 120.057C146.111 120.347 146.089 120.637 146.075 120.928C146.061 121.219 146.054 121.51 146.054 121.801C146.054 122.092 146.061 122.383 146.075 122.674C146.089 122.965 146.111 123.256 146.14 123.545C146.168 123.835 146.204 124.124 146.247 124.412C146.289 124.7 146.339 124.987 146.396 125.273C146.453 125.558 146.517 125.842 146.588 126.125C146.659 126.407 146.736 126.688 146.821 126.966C146.906 127.245 146.997 127.522 147.095 127.796C147.193 128.07 147.298 128.341 147.41 128.611C147.522 128.88 147.64 129.146 147.764 129.409C147.889 129.672 148.02 129.932 148.158 130.189C148.295 130.446 148.439 130.699 148.589 130.949C148.739 131.199 148.895 131.445 149.057 131.687C149.219 131.929 149.386 132.167 149.56 132.401C149.734 132.635 149.913 132.864 150.098 133.089C150.283 133.314 150.474 133.535 150.669 133.751C150.865 133.966 151.066 134.177 151.272 134.383C151.479 134.589 151.69 134.79 151.906 134.985C152.122 135.181 152.343 135.371 152.568 135.556C152.793 135.741 153.023 135.92 153.257 136.093C153.492 136.267 153.73 136.434 153.972 136.596C154.215 136.758 154.461 136.914 154.711 137.063C154.961 137.213 155.215 137.356 155.472 137.494C155.729 137.631 155.99 137.762 156.253 137.886C156.517 138.011 156.783 138.129 157.053 138.24C157.322 138.352 157.594 138.456 157.869 138.555C158.143 138.653 158.42 138.744 158.699 138.829C158.978 138.913 159.259 138.991 159.542 139.061C159.825 139.132 160.109 139.196 160.395 139.253C160.681 139.31 160.969 139.359 161.257 139.402C161.545 139.445 161.835 139.481 162.125 139.509C162.415 139.538 162.706 139.559 162.997 139.573C163.288 139.588 163.58 139.595 163.871 139.595ZM163.871 134.982C164.087 134.982 164.303 134.976 164.519 134.966C164.735 134.955 164.95 134.939 165.165 134.918C165.38 134.897 165.594 134.871 165.808 134.839C166.022 134.807 166.234 134.77 166.446 134.728C166.658 134.686 166.869 134.639 167.078 134.587C167.288 134.534 167.496 134.477 167.703 134.414C167.909 134.351 168.114 134.284 168.318 134.211C168.521 134.138 168.723 134.061 168.922 133.978C169.122 133.896 169.319 133.808 169.514 133.716C169.71 133.624 169.903 133.527 170.093 133.425C170.284 133.324 170.471 133.217 170.657 133.106C170.842 132.996 171.024 132.88 171.204 132.76C171.384 132.64 171.56 132.516 171.734 132.388C171.907 132.259 172.077 132.127 172.244 131.99C172.411 131.853 172.575 131.712 172.735 131.567C172.895 131.422 173.051 131.274 173.204 131.121C173.357 130.969 173.506 130.812 173.651 130.653C173.796 130.493 173.937 130.33 174.074 130.163C174.211 129.996 174.344 129.826 174.472 129.653C174.601 129.48 174.725 129.303 174.845 129.124C174.965 128.945 175.081 128.762 175.192 128.577C175.303 128.392 175.409 128.205 175.511 128.014C175.613 127.824 175.71 127.632 175.802 127.437C175.895 127.242 175.982 127.044 176.065 126.845C176.148 126.646 176.225 126.445 176.298 126.242C176.371 126.039 176.439 125.834 176.501 125.627C176.564 125.421 176.622 125.213 176.674 125.004C176.727 124.795 176.774 124.584 176.816 124.373C176.858 124.161 176.895 123.949 176.927 123.735C176.959 123.522 176.985 123.308 177.006 123.093C177.027 122.879 177.043 122.663 177.054 122.448C177.064 122.233 177.07 122.017 177.07 121.801C177.07 121.586 177.064 121.37 177.054 121.155C177.043 120.939 177.027 120.724 177.006 120.509C176.985 120.295 176.959 120.081 176.927 119.867C176.895 119.654 176.858 119.442 176.816 119.23C176.774 119.018 176.727 118.808 176.674 118.599C176.622 118.389 176.564 118.182 176.501 117.975C176.439 117.769 176.371 117.564 176.298 117.361C176.225 117.158 176.148 116.957 176.065 116.757C175.982 116.558 175.895 116.361 175.802 116.166C175.71 115.971 175.613 115.778 175.511 115.588C175.409 115.398 175.303 115.21 175.192 115.025C175.081 114.84 174.965 114.658 174.845 114.479C174.725 114.299 174.601 114.123 174.472 113.95C174.344 113.776 174.211 113.606 174.074 113.44C173.937 113.273 173.796 113.11 173.651 112.95C173.506 112.79 173.357 112.634 173.204 112.481C173.051 112.329 172.895 112.18 172.735 112.035C172.575 111.89 172.411 111.75 172.244 111.613C172.077 111.476 171.907 111.343 171.734 111.215C171.56 111.086 171.384 110.962 171.204 110.842C171.024 110.722 170.842 110.607 170.657 110.496C170.471 110.385 170.284 110.279 170.093 110.177C169.903 110.076 169.71 109.979 169.514 109.886C169.319 109.794 169.122 109.707 168.922 109.624C168.723 109.542 168.521 109.464 168.318 109.391C168.114 109.319 167.909 109.251 167.703 109.188C167.496 109.126 167.288 109.068 167.078 109.016C166.869 108.964 166.658 108.916 166.446 108.874C166.234 108.832 166.022 108.795 165.808 108.764C165.594 108.732 165.38 108.706 165.165 108.684C164.95 108.663 164.735 108.647 164.519 108.637C164.303 108.626 164.087 108.621 163.871 108.621C163.655 108.621 163.439 108.626 163.224 108.637C163.008 108.647 162.793 108.663 162.578 108.684C162.363 108.706 162.148 108.732 161.935 108.764C161.721 108.795 161.508 108.832 161.297 108.874C161.085 108.916 160.874 108.964 160.664 109.016C160.455 109.068 160.247 109.126 160.04 109.188C159.833 109.251 159.628 109.319 159.425 109.391C159.222 109.464 159.02 109.542 158.821 109.624C158.621 109.707 158.424 109.794 158.228 109.886C158.033 109.979 157.84 110.076 157.65 110.177C157.459 110.279 157.271 110.385 157.086 110.496C156.901 110.607 156.718 110.722 156.539 110.842C156.359 110.962 156.183 111.086 156.009 111.215C155.836 111.343 155.665 111.476 155.498 111.613C155.332 111.75 155.168 111.89 155.008 112.035C154.848 112.18 154.692 112.329 154.539 112.481C154.386 112.634 154.237 112.79 154.092 112.95C153.947 113.11 153.806 113.273 153.669 113.44C153.532 113.606 153.399 113.776 153.27 113.95C153.142 114.123 153.017 114.299 152.897 114.479C152.777 114.658 152.662 114.84 152.551 115.025C152.44 115.21 152.333 115.398 152.232 115.588C152.13 115.778 152.033 115.971 151.94 116.166C151.848 116.361 151.76 116.558 151.678 116.757C151.595 116.957 151.517 117.158 151.445 117.361C151.372 117.564 151.304 117.769 151.241 117.975C151.179 118.182 151.121 118.389 151.069 118.599C151.016 118.808 150.969 119.018 150.927 119.23C150.885 119.442 150.848 119.654 150.816 119.867C150.784 120.081 150.758 120.295 150.737 120.509C150.715 120.724 150.7 120.939 150.689 121.155C150.678 121.37 150.673 121.586 150.673 121.801C150.673 122.017 150.678 122.233 150.689 122.448C150.7 122.663 150.715 122.879 150.737 123.093C150.758 123.308 150.784 123.522 150.816 123.735C150.848 123.949 150.885 124.161 150.927 124.373C150.969 124.584 151.016 124.795 151.069 125.004C151.121 125.213 151.179 125.421 151.241 125.627C151.304 125.834 151.372 126.039 151.445 126.242C151.517 126.445 151.595 126.646 151.678 126.845C151.76 127.044 151.848 127.242 151.94 127.437C152.033 127.632 152.13 127.824 152.232 128.014C152.333 128.205 152.44 128.392 152.551 128.577C152.662 128.762 152.777 128.945 152.897 129.124C153.017 129.303 153.142 129.48 153.27 129.653C153.399 129.826 153.532 129.996 153.669 130.163C153.806 130.33 153.947 130.493 154.092 130.653C154.237 130.812 154.386 130.969 154.539 131.121C154.692 131.274 154.848 131.422 155.008 131.567C155.168 131.712 155.332 131.853 155.498 131.99C155.665 132.127 155.836 132.259 156.009 132.388C156.183 132.516 156.359 132.64 156.539 132.76C156.718 132.88 156.901 132.996 157.086 133.106C157.271 133.217 157.459 133.324 157.65 133.425C157.84 133.527 158.033 133.624 158.228 133.716C158.424 133.808 158.621 133.896 158.821 133.978C159.02 134.061 159.222 134.138 159.425 134.211C159.628 134.284 159.833 134.351 160.04 134.414C160.247 134.477 160.455 134.534 160.664 134.587C160.874 134.639 161.085 134.686 161.297 134.728C161.508 134.77 161.721 134.807 161.935 134.839C162.148 134.871 162.363 134.897 162.578 134.918C162.793 134.939 163.008 134.955 163.224 134.966C163.439 134.976 163.655 134.982 163.871 134.982Z" fill="url(#paint28_linear_4115_2948)"/>
</g>
<defs>
<filter id="filter0_f_4115_2948" x="51" y="176" width="178" height="20" filterUnits="userSpaceOnUse" color-interpolation-filters="sRGB">
<feFlood flood-opacity="0" result="BackgroundImageFix"/>
<feBlend mode="normal" in="SourceGraphic" in2="BackgroundImageFix" result="shape"/>
<feGaussianBlur stdDeviation="2" result="effect1_foregroundBlur_4115_2948"/>
</filter>
<linearGradient id="paint0_linear_4115_2948" x1="216" y1="110" x2="216" y2="45" gradientUnits="userSpaceOnUse">
<stop stop-color="#0A0118"/>
<stop offset="1" stop-color="#33254E"/>
</linearGradient>
<linearGradient id="paint1_linear_4115_2948" x1="61" y1="137" x2="61" y2="79" gradientUnits="userSpaceOnUse">
<stop stop-color="#0A0118"/>
<stop offset="1" stop-color="#33254E"/>
</linearGradient>
<linearGradient id="paint2_linear_4115_2948" x1="175" y1="110.875" x2="175" y2="30.875" gradientUnits="userSpaceOnUse">
<stop stop-color="#0A0118"/>
<stop offset="1" stop-color="#33254E"/>
</linearGradient>
<linearGradient id="paint3_linear_4115_2948" x1="91" y1="133" x2="91" y2="61" gradientUnits="userSpaceOnUse">
<stop stop-color="#0A0118"/>
<stop offset="1" stop-color="#33254E"/>
</linearGradient>
<linearGradient id="paint4_linear_4115_2948" x1="140" y1="191.5" x2="140" y2="160" gradientUnits="userSpaceOnUse">
<stop stop-color="#0A0118"/>
<stop offset="1" stop-color="#33254E"/>
</linearGradient>
<linearGradient id="paint5_linear_4115_2948" x1="28.7093" y1="210" x2="28.7093" y2="197.623" gradientUnits="userSpaceOnUse">
<stop stop-color="#33254E"/>
<stop offset="1" stop-color="#1B0D31"/>
</linearGradient>
<linearGradient id="paint6_linear_4115_2948" x1="28.7096" y1="169.774" x2="28.7096" y2="198.009" gradientUnits="userSpaceOnUse">
<stop stop-color="#33254E"/>
<stop offset="1" stop-color="#443564"/>
</linearGradient>
<linearGradient id="paint7_linear_4115_2948" x1="24.3556" y1="169" x2="24.3556" y2="198.009" gradientUnits="userSpaceOnUse">
<stop stop-color="#443564"/>
<stop offset="1" stop-color="#524B71"/>
</linearGradient>
<linearGradient id="paint8_linear_4115_2948" x1="54.226" y1="174.306" x2="54.226" y2="165.459" gradientUnits="userSpaceOnUse">
<stop stop-color="#33254E"/>
<stop offset="1" stop-color="#1B0D31"/>
</linearGradient>
<linearGradient id="paint9_linear_4115_2948" x1="54.2257" y1="145.553" x2="54.2257" y2="165.736" gradientUnits="userSpaceOnUse">
<stop stop-color="#33254E"/>
<stop offset="1" stop-color="#443564"/>
</linearGradient>
<linearGradient id="paint10_linear_4115_2948" x1="51.1137" y1="145" x2="51.1137" y2="165.736" gradientUnits="userSpaceOnUse">
<stop stop-color="#443564"/>
<stop offset="1" stop-color="#524B71"/>
</linearGradient>
<linearGradient id="paint11_linear_4115_2948" x1="251.001" y1="197.306" x2="251.001" y2="184.516" gradientUnits="userSpaceOnUse">
<stop stop-color="#33254E"/>
<stop offset="1" stop-color="#1B0D31"/>
</linearGradient>
<linearGradient id="paint12_linear_4115_2948" x1="251.001" y1="155.735" x2="251.001" y2="184.915" gradientUnits="userSpaceOnUse">
<stop stop-color="#33254E"/>
<stop offset="1" stop-color="#443564"/>
</linearGradient>
<linearGradient id="paint13_linear_4115_2948" x1="246.501" y1="154.936" x2="246.501" y2="184.915" gradientUnits="userSpaceOnUse">
<stop stop-color="#443564"/>
<stop offset="1" stop-color="#524B71"/>
</linearGradient>
<linearGradient id="paint14_linear_4115_2948" x1="123.469" y1="145.514" x2="123.469" y2="164.625" gradientUnits="userSpaceOnUse">
<stop stop-color="#4D01B9"/>
<stop offset="1" stop-color="#2D0073"/>
</linearGradient>
<linearGradient id="paint15_linear_4115_2948" x1="123.469" y1="150.185" x2="123.469" y2="164.625" gradientUnits="userSpaceOnUse">
<stop stop-color="white" stop-opacity="0.2"/>
<stop offset="1" stop-color="white" stop-opacity="0.05"/>
</linearGradient>
<linearGradient id="paint16_linear_4115_2948" x1="116.866" y1="76" x2="116.866" y2="183.14" gradientUnits="userSpaceOnUse">
<stop stop-color="#A38AFF"/>
<stop offset="1" stop-color="#601CFF"/>
</linearGradient>
<linearGradient id="paint17_linear_4115_2948" x1="123.464" y1="76" x2="123.464" y2="161.977" gradientUnits="userSpaceOnUse">
<stop stop-color="#734DFF"/>
<stop offset="1" stop-color="#4D00B8"/>
</linearGradient>
<linearGradient id="paint18_linear_4115_2948" x1="123.464" y1="97.0166" x2="123.464" y2="161.977" gradientUnits="userSpaceOnUse">
<stop stop-color="white" stop-opacity="0.2"/>
<stop offset="1" stop-color="white" stop-opacity="0.05"/>
</linearGradient>
<linearGradient id="paint19_linear_4115_2948" x1="83.8745" y1="78.6484" x2="83.8745" y2="101.135" gradientUnits="userSpaceOnUse">
<stop stop-color="#4D01B9"/>
<stop offset="1" stop-color="#2D0073"/>
</linearGradient>
<linearGradient id="paint20_linear_4115_2948" x1="83.8745" y1="84.1451" x2="83.8745" y2="101.135" gradientUnits="userSpaceOnUse">
<stop stop-color="white" stop-opacity="0.2"/>
<stop offset="1" stop-color="white" stop-opacity="0.05"/>
</linearGradient>
<linearGradient id="paint21_linear_4115_2948" x1="167.674" y1="144.781" x2="167.674" y2="183.14" gradientUnits="userSpaceOnUse">
<stop stop-color="#734DFF"/>
<stop offset="1" stop-color="#4D00B8"/>
</linearGradient>
<linearGradient id="paint22_linear_4115_2948" x1="167.674" y1="154.158" x2="167.674" y2="183.14" gradientUnits="userSpaceOnUse">
<stop stop-color="white" stop-opacity="0.2"/>
<stop offset="1" stop-color="white" stop-opacity="0.05"/>
</linearGradient>
<linearGradient id="paint23_linear_4115_2948" x1="116.734" y1="94.5195" x2="116.856" y2="98.8414" gradientUnits="userSpaceOnUse">
<stop stop-color="#E4D9FF"/>
<stop offset="1" stop-color="#A783FF"/>
</linearGradient>
<linearGradient id="paint24_linear_4115_2948" x1="113.039" y1="107.746" x2="113.255" y2="112.061" gradientUnits="userSpaceOnUse">
<stop stop-color="#E4D9FF"/>
<stop offset="1" stop-color="#A783FF"/>
</linearGradient>
<linearGradient id="paint25_linear_4115_2948" x1="112.247" y1="123.619" x2="112.506" y2="127.929" gradientUnits="userSpaceOnUse">
<stop stop-color="#E4D9FF"/>
<stop offset="1" stop-color="#A783FF"/>
</linearGradient>
<linearGradient id="paint26_linear_4115_2948" x1="171.62" y1="132.512" x2="176.963" y2="148.754" gradientUnits="userSpaceOnUse">
<stop stop-color="#6227FF"/>
<stop offset="1" stop-color="#A783FF"/>
</linearGradient>
<linearGradient id="paint27_linear_4115_2948" x1="150.805" y1="103.744" x2="161.271" y2="138.68" gradientUnits="userSpaceOnUse">
<stop stop-color="#A783FF"/>
<stop offset="1" stop-color="#6227FF"/>
</linearGradient>
<linearGradient id="paint28_linear_4115_2948" x1="153.181" y1="104.008" x2="163.845" y2="139.603" gradientUnits="userSpaceOnUse">
<stop stop-color="#E4D9FF"/>
<stop offset="1" stop-color="#A783FF"/>
</linearGradient>
</defs>
</svg>
