<svg width="30" height="30" viewBox="0 0 30 30" fill="none" xmlns="http://www.w3.org/2000/svg">
<path opacity="0.9" d="M15 1.80078C15.3183 1.80078 15.6235 1.92721 15.8486 2.15225C16.0736 2.3773 16.2 2.68252 16.2 3.00078V6.60078C16.2 6.91904 16.0736 7.22427 15.8486 7.44931C15.6235 7.67435 15.3183 7.80078 15 7.80078C14.6818 7.80078 14.3766 7.67435 14.1515 7.44931C13.9265 7.22427 13.8 6.91904 13.8 6.60078V3.00078C13.8 2.68252 13.9265 2.3773 14.1515 2.15225C14.3766 1.92721 14.6818 1.80078 15 1.80078Z" fill="white"/>
<path opacity="0.8" d="M21.6001 3.56897C21.8757 3.72811 22.0768 3.9902 22.1592 4.29761C22.2415 4.60502 22.1984 4.93256 22.0393 5.20817L20.2393 8.32637C20.1611 8.46394 20.0564 8.58469 19.9313 8.68165C19.8062 8.77861 19.6632 8.84988 19.5105 8.89134C19.3578 8.93281 19.1984 8.94365 19.0414 8.92325C18.8845 8.90286 18.7331 8.85162 18.5961 8.77249C18.459 8.69336 18.339 8.5879 18.2429 8.46219C18.1467 8.33647 18.0764 8.19298 18.036 8.03999C17.9955 7.88699 17.9857 7.7275 18.0072 7.5707C18.0286 7.4139 18.0808 7.26289 18.1609 7.12637L19.9609 4.00817C20.12 3.73256 20.3821 3.53146 20.6895 3.44909C20.9969 3.36673 21.3245 3.40985 21.6001 3.56897Z" fill="white"/>
<path opacity="0.7" d="M26.4318 8.40075C26.5909 8.67636 26.6341 9.0039 26.5517 9.31131C26.4693 9.61871 26.2682 9.88081 25.9926 10.0399L22.8744 11.8399C22.5989 11.9966 22.2727 12.0379 21.9669 11.9548C21.6611 11.8718 21.4005 11.6712 21.2421 11.3968C21.0836 11.1224 21.0402 10.7964 21.1212 10.49C21.2022 10.1837 21.401 9.92181 21.6744 9.76155L24.7926 7.96155C25.0682 7.80243 25.3958 7.7593 25.7032 7.84167C26.0106 7.92403 26.2727 8.12514 26.4318 8.40075Z" fill="white"/>
<path opacity="0.6" d="M28.2 15.0008C28.2 15.1584 28.1689 15.3144 28.1086 15.46C28.0483 15.6056 27.9599 15.7379 27.8485 15.8493C27.737 15.9607 27.6048 16.0491 27.4592 16.1094C27.3136 16.1697 27.1575 16.2008 27 16.2008H23.4C23.0817 16.2008 22.7765 16.0744 22.5514 15.8493C22.3264 15.6243 22.2 15.319 22.2 15.0008C22.2 14.6825 22.3264 14.3773 22.5514 14.1523C22.7765 13.9272 23.0817 13.8008 23.4 13.8008H27C27.1575 13.8008 27.3136 13.8318 27.4592 13.8921C27.6048 13.9524 27.737 14.0408 27.8485 14.1523C27.9599 14.2637 28.0483 14.396 28.1086 14.5416C28.1689 14.6872 28.2 14.8432 28.2 15.0008Z" fill="white"/>
<path opacity="0.6" d="M26.4319 21.6001C26.2728 21.8757 26.0107 22.0768 25.7033 22.1592C25.3959 22.2415 25.0683 22.1984 24.7927 22.0393L21.6745 20.2393C21.5369 20.1611 21.4162 20.0564 21.3192 19.9313C21.2223 19.8062 21.151 19.6632 21.1095 19.5105C21.0681 19.3578 21.0572 19.1984 21.0776 19.0414C21.098 18.8845 21.1493 18.7331 21.2284 18.5961C21.3075 18.459 21.413 18.339 21.5387 18.2429C21.6644 18.1467 21.8079 18.0764 21.9609 18.036C22.1139 17.9955 22.2734 17.9857 22.4302 18.0072C22.587 18.0286 22.738 18.0808 22.8745 18.1609L25.9927 19.9609C26.2683 20.12 26.4694 20.3821 26.5518 20.6895C26.6342 20.9969 26.591 21.3245 26.4319 21.6001Z" fill="white"/>
<path opacity="0.5" d="M21.5999 26.4325C21.3243 26.5917 20.9968 26.6348 20.6894 26.5524C20.382 26.4701 20.1199 26.2689 19.9607 25.9933L18.1607 22.8751C18.0041 22.5997 17.9628 22.2734 18.0458 21.9676C18.1289 21.6618 18.3295 21.4013 18.6039 21.2428C18.8783 21.0844 19.2043 21.0409 19.5106 21.1219C19.817 21.2029 20.0789 21.4018 20.2391 21.6751L22.0391 24.7933C22.1983 25.069 22.2414 25.3965 22.159 25.7039C22.0766 26.0113 21.8755 26.2734 21.5999 26.4325Z" fill="white"/>
<path opacity="0.4" d="M15 28.1992C14.8425 28.1992 14.6864 28.1682 14.5408 28.1079C14.3952 28.0476 14.263 27.9592 14.1515 27.8477C14.0401 27.7363 13.9517 27.604 13.8914 27.4584C13.8311 27.3128 13.8 27.1568 13.8 26.9992V23.3992C13.8 23.081 13.9265 22.7757 14.1515 22.5507C14.3766 22.3256 14.6818 22.1992 15 22.1992C15.3183 22.1992 15.6235 22.3256 15.8486 22.5507C16.0736 22.7757 16.2 23.081 16.2 23.3992V26.9992C16.2 27.1568 16.169 27.3128 16.1087 27.4584C16.0484 27.604 15.96 27.7363 15.8486 27.8477C15.7371 27.9592 15.6049 28.0476 15.4593 28.1079C15.3137 28.1682 15.1576 28.1992 15 28.1992Z" fill="white"/>
<path opacity="0.4" d="M8.40002 26.4327C8.12441 26.2735 7.9233 26.0114 7.84094 25.704C7.75857 25.3966 7.80169 25.0691 7.96082 24.7935L9.76082 21.6753C9.83903 21.5377 9.94369 21.4169 10.0688 21.32C10.1938 21.223 10.3369 21.1517 10.4896 21.1103C10.6423 21.0688 10.8017 21.058 10.9587 21.0784C11.1156 21.0988 11.267 21.15 11.404 21.2291C11.5411 21.3083 11.6611 21.4137 11.7572 21.5394C11.8534 21.6652 11.9237 21.8086 11.9641 21.9616C12.0046 22.1146 12.0144 22.2741 11.9929 22.4309C11.9715 22.5877 11.9193 22.7387 11.8392 22.8753L10.0392 25.9935C9.88008 26.2691 9.61798 26.4702 9.31057 26.5525C9.00317 26.6349 8.67563 26.5918 8.40002 26.4327Z" fill="white"/>
<path opacity="0.3" d="M3.56824 21.5999C3.40911 21.3243 3.36599 20.9968 3.44836 20.6894C3.53072 20.382 3.73183 20.1199 4.00744 19.9607L7.12564 18.1607C7.40111 18.0041 7.72734 17.9628 8.03315 18.0458C8.33897 18.1289 8.59952 18.3295 8.75797 18.6039C8.91641 18.8783 8.95988 19.2043 8.87888 19.5106C8.79789 19.817 8.59901 20.0789 8.32564 20.2391L5.20744 22.0391C4.93182 22.1983 4.60429 22.2414 4.29688 22.159C3.98947 22.0766 3.72737 21.8755 3.56824 21.5999Z" fill="white"/>
<path opacity="0.3" d="M1.80005 15.0008C1.80005 14.6825 1.92648 14.3773 2.15152 14.1523C2.37656 13.9272 2.68179 13.8008 3.00005 13.8008H6.60005C6.91831 13.8008 7.22353 13.9272 7.44858 14.1523C7.67362 14.3773 7.80005 14.6825 7.80005 15.0008C7.80005 15.319 7.67362 15.6243 7.44858 15.8493C7.22353 16.0744 6.91831 16.2008 6.60005 16.2008H3.00005C2.68179 16.2008 2.37656 16.0744 2.15152 15.8493C1.92648 15.6243 1.80005 15.319 1.80005 15.0008Z" fill="white"/>
<path opacity="0.2" d="M3.56824 8.40075C3.72737 8.12514 3.98947 7.92403 4.29688 7.84167C4.60429 7.7593 4.93182 7.80243 5.20744 7.96155L8.32564 9.76155C8.46321 9.83977 8.58396 9.94443 8.68092 10.0695C8.77788 10.1946 8.84914 10.3376 8.89061 10.4903C8.93207 10.643 8.94292 10.8025 8.92252 10.9594C8.90212 11.1163 8.85088 11.2677 8.77175 11.4047C8.69262 11.5418 8.58717 11.6618 8.46145 11.758C8.33574 11.8541 8.19225 11.9244 8.03925 11.9649C7.88625 12.0053 7.72676 12.0151 7.56997 11.9937C7.41317 11.9722 7.26216 11.92 7.12564 11.8399L4.00744 10.0399C3.73183 9.88081 3.53072 9.61871 3.44836 9.31131C3.36599 9.0039 3.40911 8.67636 3.56824 8.40075Z" fill="white"/>
<path opacity="0.1" d="M8.40002 3.56897C8.67563 3.40985 9.00317 3.36673 9.31057 3.44909C9.61798 3.53146 9.88008 3.73256 10.0392 4.00817L11.8392 7.12637C11.9958 7.40184 12.0371 7.72808 11.9541 8.03389C11.8711 8.3397 11.6705 8.60026 11.396 8.7587C11.1216 8.91714 10.7957 8.96061 10.4893 8.87961C10.183 8.79862 9.92108 8.59974 9.76082 8.32637L7.96082 5.20817C7.80169 4.93256 7.75857 4.60502 7.84094 4.29761C7.9233 3.9902 8.12441 3.72811 8.40002 3.56897Z" fill="white"/>
</svg>
