<svg width="127" height="40" viewBox="0 0 127 40" fill="none" xmlns="http://www.w3.org/2000/svg">
<path d="M20 40C31.0457 40 40 31.0457 40 20C40 8.9543 31.0457 0 20 0C8.9543 0 0 8.9543 0 20C0 31.0457 8.9543 40 20 40Z" fill="url(#paint0_linear_6699_4858)"/>
<mask id="mask0_6699_4858" style="mask-type:luminance" maskUnits="userSpaceOnUse" x="0" y="0" width="40" height="40">
<path d="M20 40C31.0457 40 40 31.0457 40 20C40 8.9543 31.0457 0 20 0C8.9543 0 0 8.9543 0 20C0 31.0457 8.9543 40 20 40Z" fill="white"/>
</mask>
<g mask="url(#mask0_6699_4858)">
<path d="M19.5781 -4.7742V9.16133" stroke="white" stroke-width="0.789865"/>
<path d="M17.5139 -4.7742V9.16133" stroke="white" stroke-width="0.789865"/>
<path d="M22.2881 -4.7742V9.16133" stroke="white" stroke-width="0.789865"/>
<path d="M10.8398 -2.0596L15.3583 6.36811V-3.2258" stroke="white" stroke-width="0.789865"/>
<path d="M28.9051 -2.31767L24.3867 6.11005V-3.48385" stroke="white" stroke-width="0.789865"/>
<path d="M20.293 46.5806V32.6451" stroke="white" stroke-width="0.789865"/>
<path d="M22.3584 46.5805V32.6451" stroke="white" stroke-width="0.789865"/>
<path d="M17.5842 46.5805V32.6451" stroke="white" stroke-width="0.789865"/>
<path d="M29.1629 44.0407L24.6445 35.6129V45.2069" stroke="white" stroke-width="0.789865"/>
<path d="M10.8389 44.1696L15.3574 35.7419V45.3358" stroke="white" stroke-width="0.789865"/>
<path d="M-5.74121 21.2613H8.19427" stroke="white" stroke-width="0.789865"/>
<path d="M-5.74121 23.3258H8.19427" stroke="white" stroke-width="0.789865"/>
<path d="M-5.74121 18.5517H8.19427" stroke="white" stroke-width="0.789865"/>
<path d="M-3.34943 30.0668L5.07828 25.5484H-4.51562" stroke="white" stroke-width="0.789865"/>
<path d="M-2.44612 12.2579L5.98159 16.7763H-3.6123" stroke="white" stroke-width="0.789865"/>
<path d="M45.6134 20.5454H31.678" stroke="white" stroke-width="0.789865"/>
<path d="M45.6134 18.4807H31.678" stroke="white" stroke-width="0.789865"/>
<path d="M45.6134 23.2549H31.678" stroke="white" stroke-width="0.789865"/>
<path d="M42.751 11.7423L34.3232 16.2608H43.9171" stroke="white" stroke-width="0.789865"/>
<path d="M43.2675 29.938L34.8398 25.4195H44.4337" stroke="white" stroke-width="0.789865"/>
<path d="M2.03223 39.3129L11.8861 29.459" stroke="white" stroke-width="0.789865"/>
<path d="M3.49219 40.7726L13.3461 30.9188" stroke="white" stroke-width="0.789865"/>
<path d="M0.115479 37.3969L9.96933 27.5431" stroke="white" stroke-width="0.789865"/>
<path d="M10.471 43.8637L13.2354 34.7094L6.45142 41.4933" stroke="white" stroke-width="0.789865"/>
<path d="M-2.91797 30.6042L6.23632 27.8399L-0.547586 34.6238" stroke="white" stroke-width="0.789865"/>
<path d="M37.84 2.49321L27.9861 12.3471" stroke="white" stroke-width="0.789865"/>
<path d="M36.3802 1.03354L26.5264 10.8875" stroke="white" stroke-width="0.789865"/>
<path d="M39.7562 4.4094L29.9023 14.2633" stroke="white" stroke-width="0.789865"/>
<path d="M29.7027 -1.75597L26.9385 7.39833L33.7224 0.614418" stroke="white" stroke-width="0.789865"/>
<path d="M42.704 10.9873L33.5498 13.7515L40.3337 6.96762" stroke="white" stroke-width="0.789865"/>
<path d="M38.3451 38.8068L28.4912 28.9529" stroke="white" stroke-width="0.789865"/>
<path d="M39.8053 37.347L29.9514 27.4931" stroke="white" stroke-width="0.789865"/>
<path d="M36.4281 40.7229L26.5742 30.869" stroke="white" stroke-width="0.789865"/>
<path d="M42.9607 30.6047L33.8064 27.8404L40.5903 34.6243" stroke="white" stroke-width="0.789865"/>
<path d="M29.8307 43.7352L27.0664 34.5808L33.8503 41.3648" stroke="white" stroke-width="0.789865"/>
<path d="M1.52637 2.99967L11.3803 12.8536" stroke="white" stroke-width="0.789865"/>
<path d="M0.0664062 4.45932L9.92029 14.3132" stroke="white" stroke-width="0.789865"/>
<path d="M3.44141 1.08353L13.2953 10.9374" stroke="white" stroke-width="0.789865"/>
<path d="M-2.27246 11.6326L6.88184 14.3968L0.0979274 7.61296" stroke="white" stroke-width="0.789865"/>
<path d="M10.3416 -1.36881L13.1059 7.78549L6.32202 1.00158" stroke="white" stroke-width="0.789865"/>
</g>
<path d="M19.936 33.7202C27.4779 33.7202 33.5917 27.6063 33.5917 20.0644C33.5917 12.5226 27.4779 6.40871 19.936 6.40871C12.3942 6.40871 6.28027 12.5226 6.28027 20.0644C6.28027 27.6063 12.3942 33.7202 19.936 33.7202Z" fill="#F8BA3A" stroke="white" stroke-width="0.677027"/>
<mask id="mask1_6699_4858" style="mask-type:luminance" maskUnits="userSpaceOnUse" x="6" y="6" width="28" height="28">
<path d="M20.0649 33.7203C27.6068 33.7203 33.7206 27.6065 33.7206 20.0646C33.7206 12.5228 27.6068 6.40887 20.0649 6.40887C12.5231 6.40887 6.40918 12.5228 6.40918 20.0646C6.40918 27.6065 12.5231 33.7203 20.0649 33.7203Z" fill="white"/>
</mask>
<g mask="url(#mask1_6699_4858)">
<path fill-rule="evenodd" clip-rule="evenodd" d="M20.7105 5.80644L18.9041 20.3226H20.7105L20.0009 33.7118L33.1661 31.3549L35.5549 12.973L29.7527 7.87096L20.7105 5.80644Z" fill="white"/>
</g>
<path d="M7.29645 18.247C7.60725 20.7783 9.25392 23.4119 11.7845 23.1011C20.3732 22.0466 19.1665 16.5274 19.0507 14.7399C19.6723 19.8025 23.5173 21.6605 29.9588 20.8696C31.8759 20.6342 32.6613 16.8874 32.449 15.1586C32.1837 12.9978 26.4625 12.6819 19.3309 13.5576C12.1992 14.4332 6.90795 15.0829 7.29645 18.247Z" fill="#01C1AE" stroke="#01C1AE" stroke-width="1.24122" stroke-linecap="round" stroke-linejoin="round"/>
<path d="M20.1454 28.7503C23.1376 28.5062 25.3824 26.0905 25.1592 23.3547L14.3232 24.2388C14.5464 26.9746 17.1531 28.9945 20.1454 28.7503Z" fill="white" stroke="#FE9D51" stroke-width="0.564189" stroke-linejoin="round"/>
<path d="M21.5486 25.8064H24.5163" stroke="#FE9A54" stroke-width="0.451351" stroke-linecap="round" stroke-linejoin="round"/>
<path d="M23.1615 19.6772C20.8389 18.7998 19.9142 16.473 19.7422 15.4192C19.7422 13.9998 21.3551 13.8063 25.2905 13.8063C29.226 13.8063 31.6131 14.1289 31.8066 15.1612C32.0002 16.9676 31.3551 19.6772 30.4519 20.1289C29.5486 20.5805 26.0648 20.774 23.1615 19.6772Z" fill="black" stroke="black" stroke-width="0.112838"/>
<path d="M16.3308 20.8871C18.1946 19.6587 19.1624 17.29 18.5818 15.29C18.251 14.1509 16.4353 14.4303 13.0333 14.9674C10.0011 15.4462 7.67852 16.7738 7.93659 17.9352C8.06555 19.8379 9.53334 21.8474 10.3882 22.1932C11.243 22.539 14.0011 22.4225 16.3308 20.8871Z" fill="black" stroke="black" stroke-width="0.112838"/>
<path d="M32.4514 9.28993L33.584 12.3509L36.6449 13.4835L33.584 14.6162L32.4514 17.677L31.3188 14.6162L28.2578 13.4835L31.3188 12.3509L32.4514 9.28993Z" fill="white"/>
<path d="M73.9912 24.4062C73.9912 25.2083 73.8871 25.9323 73.6787 26.5781C73.4808 27.2135 73.2152 27.776 72.8819 28.2656C72.5485 28.7552 72.1579 29.1719 71.71 29.5156C71.2621 29.8594 70.7985 30.1406 70.3194 30.3594C69.8402 30.5781 69.3506 30.7396 68.8506 30.8438C68.361 30.9479 67.8975 31 67.46 31H51.7881V26.9375H67.46C68.2412 26.9375 68.8454 26.7083 69.2725 26.25C69.71 25.7917 69.9287 25.1771 69.9287 24.4062C69.9287 24.0312 69.8715 23.6875 69.7569 23.375C69.6423 23.0625 69.4756 22.7917 69.2569 22.5625C69.0485 22.3333 68.7881 22.1562 68.4756 22.0312C68.1735 21.9062 67.835 21.8438 67.46 21.8438H58.1162C57.46 21.8438 56.7517 21.7292 55.9912 21.5C55.2308 21.2604 54.5225 20.8802 53.8662 20.3594C53.2204 19.8385 52.6787 19.1562 52.2412 18.3125C51.8142 17.4688 51.6006 16.4375 51.6006 15.2188C51.6006 14 51.8142 12.974 52.2412 12.1406C52.6787 11.2969 53.2204 10.6146 53.8662 10.0938C54.5225 9.5625 55.2308 9.18229 55.9912 8.95312C56.7517 8.71354 57.46 8.59375 58.1162 8.59375H71.9444V12.6562H58.1162C57.3454 12.6562 56.7412 12.8906 56.3037 13.3594C55.8767 13.8281 55.6631 14.4479 55.6631 15.2188C55.6631 16 55.8767 16.6198 56.3037 17.0781C56.7412 17.526 57.3454 17.75 58.1162 17.75H67.46H67.4912C67.9287 17.7604 68.3923 17.8229 68.8819 17.9375C69.3715 18.0417 69.8558 18.2083 70.335 18.4375C70.8246 18.6667 71.2881 18.9583 71.7256 19.3125C72.1631 19.6562 72.5485 20.0729 72.8819 20.5625C73.2256 21.0521 73.4965 21.6146 73.6944 22.25C73.8923 22.8854 73.9912 23.6042 73.9912 24.4062ZM98.3594 28.9531C98.3594 29.2448 98.3073 29.5156 98.2031 29.7656C98.099 30.0156 97.9531 30.2344 97.7656 30.4219C97.5781 30.599 97.3594 30.7396 97.1094 30.8438C96.8594 30.9479 96.5938 31 96.3125 31H87.1562C86.2917 31 85.4167 30.9062 84.5312 30.7188C83.6458 30.5312 82.7865 30.2448 81.9531 29.8594C81.1302 29.4635 80.3542 28.9635 79.625 28.3594C78.8958 27.7552 78.2552 27.0417 77.7031 26.2188C77.1615 25.3854 76.7344 24.4375 76.4219 23.375C76.1094 22.3021 75.9531 21.1094 75.9531 19.7969V8.59375H80.0156V19.7969C80.0156 20.9427 80.1719 21.9115 80.4844 22.7031C80.8073 23.4948 81.2135 24.1562 81.7031 24.6875C82.1927 25.2188 82.7292 25.6354 83.3125 25.9375C83.8958 26.2396 84.4479 26.4635 84.9688 26.6094C85.5 26.7552 85.9635 26.849 86.3594 26.8906C86.7656 26.9219 87.0312 26.9375 87.1562 26.9375H94.2969V8.59375H98.3594V28.9531ZM124.524 29.2656C124.524 29.5573 124.467 29.8281 124.353 30.0781C124.248 30.3281 124.103 30.5469 123.915 30.7344C123.738 30.9115 123.524 31.0521 123.274 31.1562C123.024 31.2604 122.759 31.3125 122.478 31.3125C122.228 31.3125 121.972 31.2656 121.712 31.1719C121.462 31.0781 121.238 30.9271 121.04 30.7188L106.196 15.2188V31H102.134V10.3281C102.134 9.91146 102.248 9.53646 102.478 9.20312C102.717 8.85938 103.019 8.60417 103.384 8.4375C103.769 8.28125 104.165 8.24479 104.571 8.32812C104.978 8.40104 105.326 8.58854 105.618 8.89062L120.462 24.375V8.59375H124.524V29.2656Z" fill="white"/>
<defs>
<linearGradient id="paint0_linear_6699_4858" x1="2000" y1="0" x2="2000" y2="4000" gradientUnits="userSpaceOnUse">
<stop stop-color="#F5B745"/>
<stop offset="1" stop-color="#FC8B47"/>
</linearGradient>
</defs>
</svg>
