<svg width="14" height="14" viewBox="0 0 14 14" fill="none" xmlns="http://www.w3.org/2000/svg">
<path d="M12.8871 7.40829C12.7236 7.24504 12.5192 7.1635 12.3149 7.1635C12.1106 7.1635 11.9063 7.24505 11.7428 7.40829L9.69961 9.4474V2.67728C9.69961 2.22858 9.33182 1.90234 8.92325 1.90234C8.51457 1.90234 8.14673 2.26943 8.14673 2.67728V11.3643C8.14673 11.8129 8.51456 12.1394 8.92325 12.1394C9.12756 12.1394 9.33183 12.0576 9.49529 11.8946L12.8462 8.55022C13.2139 8.22403 13.2139 7.73459 12.8871 7.40829Z" fill="#C1A0FF"/>
<path d="M5.57202 2.10597C5.40861 1.94294 5.20419 1.86133 4.99981 1.86133C4.91816 1.86133 4.8364 1.90212 4.75469 1.90212H4.71378C4.59123 1.98362 4.50952 2.06538 4.42775 2.14688L1.11775 5.45032C0.790828 5.77656 0.790828 6.26611 1.11775 6.5516C1.28121 6.71469 1.48554 6.79625 1.68979 6.79625C1.89416 6.79625 2.09853 6.71469 2.26189 6.5516L4.26426 4.55309V11.3234C4.26426 11.772 4.63215 12.0983 5.04078 12.0983C5.44946 12.0983 5.8172 11.7311 5.8172 11.3234V2.71787C5.81718 2.51382 5.73553 2.26917 5.57202 2.10597Z" fill="white"/>
</svg>
