<svg width="14" height="14" viewBox="0 0 14 14" fill="none" xmlns="http://www.w3.org/2000/svg">
<path d="M5.57226 2.10597C5.40886 1.94294 5.20444 1.86133 5.00005 1.86133C4.91841 1.86133 4.83665 1.90212 4.75493 1.90212H4.71403C4.59147 1.98362 4.50977 2.06538 4.428 2.14688L1.11799 5.45032C0.791072 5.77656 0.791072 6.26611 1.11799 6.5516C1.28146 6.71469 1.48578 6.79625 1.69004 6.79625C1.89441 6.79625 2.09877 6.71469 2.26214 6.5516L4.26451 4.55309V11.3234C4.26451 11.772 4.63239 12.0983 5.04103 12.0983C5.44971 12.0983 5.81744 11.7311 5.81744 11.3234V2.71787C5.81743 2.51382 5.73578 2.26917 5.57226 2.10597Z" fill="#C1A0FF"/>
<path d="M12.8868 7.40829C12.7234 7.24504 12.519 7.1635 12.3147 7.1635C12.1104 7.1635 11.906 7.24505 11.7426 7.40829L9.69936 9.4474V2.67728C9.69936 2.22858 9.33158 1.90234 8.92301 1.90234C8.51433 1.90234 8.14648 2.26943 8.14648 2.67728V11.3643C8.14648 11.8129 8.51431 12.1394 8.92301 12.1394C9.12732 12.1394 9.33159 12.0576 9.49505 11.8946L12.846 8.55022C13.2137 8.22403 13.2137 7.73459 12.8868 7.40829Z" fill="white"/>
</svg>
