<svg width="12" height="12" viewBox="0 0 12 12" fill="none" xmlns="http://www.w3.org/2000/svg">
<path d="M9 4.25C9.0663 4.25 9.12989 4.27634 9.17678 4.32322C9.22366 4.37011 9.25 4.4337 9.25 4.5V9.04275L9.96975 8.32325C10.0166 8.27638 10.0802 8.25005 10.1465 8.25005C10.2128 8.25005 10.2764 8.27638 10.3233 8.32325L10.6768 8.67675C10.7236 8.72363 10.7499 8.78721 10.7499 8.8535C10.7499 8.91979 10.7236 8.98337 10.6768 9.03025L9.31675 10.3903C9.2318 10.4752 9.12419 10.5338 9.00679 10.5591C8.88939 10.5845 8.76717 10.5755 8.65476 10.5332C8.54235 10.4909 8.44451 10.4171 8.37295 10.3206C8.30139 10.2241 8.25914 10.1091 8.25125 9.98925L8.25 9.94825V4.5C8.25 4.4337 8.27634 4.37011 8.32322 4.32322C8.37011 4.27634 8.4337 4.25 8.5 4.25H9ZM6.5 9.25C6.53283 9.25 6.56534 9.25647 6.59567 9.26903C6.626 9.28159 6.65356 9.30001 6.67678 9.32322C6.69999 9.34644 6.71841 9.374 6.73097 9.40433C6.74353 9.43466 6.75 9.46717 6.75 9.5V10C6.75 10.0328 6.74353 10.0653 6.73097 10.0957C6.71841 10.126 6.69999 10.1536 6.67678 10.1768C6.65356 10.2 6.626 10.2184 6.59567 10.231C6.56534 10.2435 6.53283 10.25 6.5 10.25H1.5C1.46717 10.25 1.43466 10.2435 1.40433 10.231C1.374 10.2184 1.34644 10.2 1.32322 10.1768C1.30001 10.1536 1.28159 10.126 1.26903 10.0957C1.25647 10.0653 1.25 10.0328 1.25 10V9.5C1.25 9.46717 1.25647 9.43466 1.26903 9.40433C1.28159 9.374 1.30001 9.34644 1.32322 9.32322C1.34644 9.30001 1.374 9.28159 1.40433 9.26903C1.43466 9.25647 1.46717 9.25 1.5 9.25H6.5ZM6.5 5.5C6.53283 5.5 6.56534 5.50647 6.59567 5.51903C6.626 5.53159 6.65356 5.55001 6.67678 5.57322C6.69999 5.59644 6.71841 5.624 6.73097 5.65433C6.74353 5.68466 6.75 5.71717 6.75 5.75V6.25C6.75 6.28283 6.74353 6.31534 6.73097 6.34567C6.71841 6.376 6.69999 6.40356 6.67678 6.42678C6.65356 6.44999 6.626 6.46841 6.59567 6.48097C6.56534 6.49353 6.53283 6.5 6.5 6.5H1.5C1.46717 6.5 1.43466 6.49353 1.40433 6.48097C1.374 6.46841 1.34644 6.44999 1.32322 6.42678C1.30001 6.40356 1.28159 6.376 1.26903 6.34567C1.25647 6.31534 1.25 6.28283 1.25 6.25V5.75C1.25 5.71717 1.25647 5.68466 1.26903 5.65433C1.28159 5.624 1.30001 5.59644 1.32322 5.57322C1.34644 5.55001 1.374 5.53159 1.40433 5.51903C1.43466 5.50647 1.46717 5.5 1.5 5.5H6.5ZM10.5 1.75C10.5328 1.75 10.5653 1.75647 10.5957 1.76903C10.626 1.78159 10.6536 1.80001 10.6768 1.82322C10.7 1.84644 10.7184 1.874 10.731 1.90433C10.7435 1.93466 10.75 1.96717 10.75 2V2.5C10.75 2.53283 10.7435 2.56534 10.731 2.59567C10.7184 2.626 10.7 2.65356 10.6768 2.67678C10.6536 2.69999 10.626 2.71841 10.5957 2.73097C10.5653 2.74353 10.5328 2.75 10.5 2.75H1.5C1.46717 2.75 1.43466 2.74353 1.40433 2.73097C1.374 2.71841 1.34644 2.69999 1.32322 2.67678C1.30001 2.65356 1.28159 2.626 1.26903 2.59567C1.25647 2.56534 1.25 2.53283 1.25 2.5V2C1.25 1.96717 1.25647 1.93466 1.26903 1.90433C1.28159 1.874 1.30001 1.84644 1.32322 1.82322C1.34644 1.80001 1.374 1.78159 1.40433 1.76903C1.43466 1.75647 1.46717 1.75 1.5 1.75H10.5Z" fill="#A29CBC"/>
</svg>
