<svg width="14" height="14" viewBox="0 0 14 14" fill="none" xmlns="http://www.w3.org/2000/svg">
<path d="M5.57226 2.10597C5.40886 1.94294 5.20444 1.86133 5.00005 1.86133C4.91841 1.86133 4.83665 1.90212 4.75493 1.90212H4.71403C4.59147 1.98362 4.50977 2.06538 4.428 2.14688L1.11799 5.45032C0.791072 5.77656 0.791072 6.26611 1.11799 6.5516C1.28146 6.71469 1.48578 6.79625 1.69004 6.79625C1.89441 6.79625 2.09877 6.71469 2.26214 6.5516L4.26451 4.55309V11.3234C4.26451 11.772 4.63239 12.0983 5.04103 12.0983C5.44971 12.0983 5.81744 11.7311 5.81744 11.3234V2.71787C5.81743 2.51382 5.73578 2.26917 5.57226 2.10597ZM12.887 7.40809C12.7236 7.24483 12.5192 7.1633 12.3149 7.1633C12.1106 7.1633 11.9062 7.24485 11.7428 7.40809L9.69956 9.4472V2.67707C9.69956 2.22838 9.33177 1.90214 8.9232 1.90214C8.51452 1.90214 8.14668 2.26923 8.14668 2.67707V11.3641C8.14668 11.8126 8.5145 12.1392 8.9232 12.1392C9.12751 12.1392 9.33178 12.0574 9.49524 11.8944L12.8462 8.55002C13.2139 8.22382 13.2139 7.73438 12.887 7.40809Z" fill="white"/>
</svg>
