<svg width="30" height="30" viewBox="0 0 30 30" fill="none" xmlns="http://www.w3.org/2000/svg">
<path d="M0 6C0 2.68629 2.68629 0 6 0H24C27.3137 0 30 2.68629 30 6V24C30 27.3137 27.3137 30 24 30H6C2.68629 30 0 27.3137 0 24V6Z" fill="#1E0E40"/>
<path d="M6 0.25H24C27.1756 0.25 29.75 2.82436 29.75 6V24C29.75 27.1756 27.1756 29.75 24 29.75H6C2.82436 29.75 0.25 27.1756 0.25 24V6C0.25 2.82436 2.82436 0.25 6 0.25Z" stroke="white" stroke-opacity="0.2" stroke-width="0.5"/>
<path d="M11.326 15C11.326 14.4128 11.4104 13.8446 11.5712 13.3069L11.668 13.0076C12.0205 12.0235 12.6267 11.1499 13.4252 10.4753C12.8015 10.3796 12.1646 10.4141 11.5548 10.5764C10.945 10.7387 10.3753 11.0253 9.88154 11.4184C9.3878 11.8114 8.98069 12.3023 8.68578 12.8602C8.39087 13.4182 8.21454 14.031 8.16786 14.6604C8.12117 15.2897 8.20516 15.9219 8.41452 16.5172C8.62389 17.1126 8.95412 17.6582 9.38446 18.1197C9.81481 18.5813 10.336 18.9489 10.9152 19.1994C11.4944 19.4499 12.1192 19.5779 12.7502 19.5754C12.9758 19.5746 13.2011 19.5573 13.4241 19.5236C12.6265 18.8491 12.0211 17.9759 11.6691 16.9924L11.5712 16.692C11.4081 16.1428 11.3255 15.5729 11.326 15ZM13.225 17.1746C13.6345 17.9306 14.2521 18.5584 15.0002 18.9825C15.7497 18.5582 16.3649 17.9317 16.7755 17.1746H13.225ZM15.0002 11.0153C14.2505 11.4403 13.6354 12.0676 13.225 12.8254H16.7755C16.3651 12.0675 15.75 11.4403 15.0002 11.0153ZM12.6749 15C12.6749 15.2824 12.7041 15.558 12.7536 15.8258H17.2469C17.2964 15.558 17.3256 15.2824 17.3256 15C17.3256 14.7188 17.2964 14.4431 17.2469 14.1754H12.7525C12.7041 14.4431 12.6737 14.7176 12.6737 15H12.6749ZM18.6756 15C18.6758 15.8616 18.4877 16.7129 18.1243 17.4941C17.7608 18.2753 17.231 18.9676 16.5719 19.5225C17.2233 19.6212 17.8883 19.5781 18.5216 19.3961C19.1548 19.2141 19.7412 18.8974 20.2408 18.4678C20.7403 18.0382 21.1412 17.5058 21.416 16.907C21.6907 16.3082 21.833 15.6571 21.8329 14.9982C21.8328 14.3394 21.6904 13.6883 21.4155 13.0895C21.1406 12.4908 20.7395 11.9585 20.2399 11.529C19.7402 11.0995 19.1537 10.7831 18.5205 10.6012C17.8872 10.4193 17.2221 10.3764 16.5707 10.4753C17.2304 11.0303 17.7606 11.7229 18.1242 12.5046C18.4878 13.2862 18.676 14.1379 18.6756 15ZM23.1756 15C23.1756 15.9729 22.936 16.9309 22.478 17.7893C22.02 18.6476 21.3577 19.38 20.5495 19.9218C19.7414 20.4635 18.8123 20.7979 17.8443 20.8954C16.8762 20.993 15.8991 20.8506 14.9991 20.481C14.0992 20.8504 13.1221 20.9926 12.1542 20.8949C11.1863 20.7972 10.2573 20.4627 9.44926 19.9209C8.64125 19.3792 7.97906 18.6468 7.52116 17.7885C7.06326 16.9301 6.82373 15.9723 6.82373 14.9994C6.82373 14.0266 7.06326 13.0687 7.52116 12.2104C7.97906 11.3521 8.64125 10.6197 9.44926 10.0779C10.2573 9.53618 11.1863 9.20169 12.1542 9.10401C13.1221 9.00633 14.0992 9.14847 14.9991 9.51788C15.8992 9.14822 16.8764 9.0059 17.8445 9.10349C18.8126 9.20108 19.7418 9.53558 20.55 10.0774C21.3582 10.6193 22.0205 11.3518 22.4784 12.2104C22.9363 13.0689 23.1758 14.027 23.1756 15Z" fill="url(#paint0_linear_5824_3070)"/>
<path d="M0 6C0 2.68629 2.68629 0 6 0H24C27.3137 0 30 2.68629 30 6V24C30 27.3137 27.3137 30 24 30H6C2.68629 30 0 27.3137 0 24V6Z" fill="#1E0E40"/>
<path d="M6 0.5H24C27.0376 0.5 29.5 2.96243 29.5 6V24C29.5 27.0376 27.0376 29.5 24 29.5H6C2.96243 29.5 0.5 27.0376 0.5 24V6C0.5 2.96243 2.96243 0.5 6 0.5Z" stroke="white" stroke-opacity="0.2"/>
<path d="M17.6645 22.5H12.3355C10.3285 22.5 8.66748 20.3028 8.66748 18.4845C8.66748 16.4388 10.2593 13.9385 11.5742 12.4232C11.6434 12.3475 11.7126 12.3475 11.7126 12.2717C11.2282 11.6656 10.7437 10.8322 10.7437 10.1503C10.7437 9.61994 10.8821 9.16535 11.159 8.86229C11.5742 8.4077 12.1971 8.4077 12.6815 8.4077H12.9584C13.0968 8.4077 13.3044 8.1804 13.4428 8.02887C13.7888 7.72581 14.3425 7.19546 14.8962 7.72581C15.2422 8.02887 15.4498 8.33193 15.5882 8.55923C15.7959 8.02887 16.1419 7.57428 17.18 7.57428C18.0797 7.57428 18.7026 7.80158 19.1178 8.33193C19.4639 8.78652 19.6023 9.39264 19.4639 10.1503C19.3255 10.9079 18.9102 11.6656 18.495 12.2717L18.7718 12.5748C20.2944 14.4689 21.3325 16.8176 21.3325 18.636C21.2633 20.3028 19.6715 22.5 17.6645 22.5ZM12.8891 12.9536C12.6815 12.9536 12.4739 13.0294 12.3355 13.1809C10.7437 14.9993 9.7056 17.1964 9.7056 18.4845C9.7056 19.7725 10.9513 21.3635 12.3355 21.3635H17.6645C19.0486 21.3635 20.2944 19.7725 20.2944 18.4845C20.2944 16.9691 19.3947 14.772 18.0105 13.1809C17.8721 13.0294 17.6645 12.9536 17.4569 12.9536H12.8891ZM12.5431 9.54417C12.2663 9.54417 12.0587 9.54417 11.9202 9.6957C11.9202 9.77147 11.851 9.99876 11.851 10.1503C11.851 10.3776 12.0587 10.9837 12.6815 11.7414C12.7507 11.8929 12.8891 11.9687 13.0968 11.9687H17.3876C17.5261 11.9687 17.6645 11.8929 17.7337 11.8171C18.2181 11.211 18.495 10.6049 18.5642 10.1503C18.6334 9.6957 18.5642 9.39264 18.4258 9.16535C18.2873 8.93805 17.8721 8.86229 17.2492 8.86229C16.6956 8.86229 16.6264 9.01382 16.5572 9.24111C16.4879 9.46841 16.2803 9.923 15.7959 9.99876C15.2422 10.0745 14.9654 9.61994 14.827 9.39264C14.7578 9.08958 14.6193 8.86229 14.4117 8.71076C14.3425 8.78652 14.2041 8.86229 14.1349 8.93805C13.8581 9.16535 13.512 9.54417 13.0276 9.54417H12.5431Z" fill="url(#paint1_linear_5824_3070)"/>
<path d="M15.1064 16.2757C15.1064 16.1766 15.1423 16.0946 15.2141 16.0297C15.2893 15.9648 15.3798 15.9323 15.4857 15.9323H16.885C17.1378 15.9323 17.3616 15.9836 17.5564 16.0861C17.7512 16.1852 17.9015 16.3253 18.0074 16.5064C18.1168 16.6875 18.1715 16.8976 18.1715 17.1368C18.1715 17.3794 18.1185 17.593 18.0126 17.7775C17.9066 17.9586 17.7563 18.0987 17.5615 18.1978C17.3702 18.2968 17.1447 18.3464 16.885 18.3464H15.8599V19.0229C15.8599 19.2006 15.795 19.3356 15.6651 19.4279C15.5387 19.5201 15.3525 19.5662 15.1064 19.5662V16.2757ZM16.885 17.6955C17.0558 17.6955 17.1874 17.6476 17.2796 17.5519C17.3719 17.4529 17.418 17.3128 17.418 17.1317C17.418 16.9574 17.3719 16.8224 17.2796 16.7268C17.1874 16.6311 17.0558 16.5832 16.885 16.5832H15.8599V17.6955H16.885Z" fill="url(#paint2_linear_5824_3070)"/>
<path d="M12.4874 19.5201C12.3781 19.5201 12.2841 19.4808 12.2055 19.4022C12.1304 19.3236 12.0928 19.2297 12.0928 19.1203V16.4295C12.0928 16.2449 12.1543 16.1083 12.2773 16.0194C12.4003 15.9306 12.5899 15.8862 12.8462 15.8862V18.8692H14.1686C14.3394 18.8692 14.4693 18.9256 14.5581 19.0383C14.6504 19.1477 14.6965 19.3082 14.6965 19.5201H12.4874Z" fill="url(#paint3_linear_5824_3070)"/>
<defs>
<linearGradient id="paint0_linear_5824_3070" x1="14.8618" y1="10.48" x2="13.6525" y2="18.245" gradientUnits="userSpaceOnUse">
<stop stop-color="white"/>
<stop offset="1" stop-color="white" stop-opacity="0.3"/>
</linearGradient>
<linearGradient id="paint1_linear_5824_3070" x1="14.8932" y1="9.28004" x2="8.57257" y2="24.2222" gradientUnits="userSpaceOnUse">
<stop stop-color="white"/>
<stop offset="1" stop-color="white" stop-opacity="0.3"/>
</linearGradient>
<linearGradient id="paint2_linear_5824_3070" x1="16.2263" y1="10.5092" x2="9.68657" y2="21.6487" gradientUnits="userSpaceOnUse">
<stop stop-color="white"/>
<stop offset="1" stop-color="white" stop-opacity="0.3"/>
</linearGradient>
<linearGradient id="paint3_linear_5824_3070" x1="13.0441" y1="10.4631" x2="6.03837" y2="20.6003" gradientUnits="userSpaceOnUse">
<stop stop-color="white"/>
<stop offset="1" stop-color="white" stop-opacity="0.3"/>
</linearGradient>
</defs>
</svg>
