<svg width="30" height="30" viewBox="0 0 30 30" fill="none" xmlns="http://www.w3.org/2000/svg">
<path d="M0 6C0 2.68629 2.68629 0 6 0H24C27.3137 0 30 2.68629 30 6V24C30 27.3137 27.3137 30 24 30H6C2.68629 30 0 27.3137 0 24V6Z" fill="#1E0E40"/>
<path d="M6 0.5H24C27.0376 0.5 29.5 2.96243 29.5 6V24C29.5 27.0376 27.0376 29.5 24 29.5H6C2.96243 29.5 0.5 27.0376 0.5 24V6C0.5 2.96243 2.96243 0.5 6 0.5Z" stroke="white" stroke-opacity="0.2"/>
<path d="M22.5408 9.75616C23.2748 11.2091 22.7477 12.9987 21.3179 13.8144L21.178 13.8886C20.4758 14.2433 19.6957 14.3007 18.9842 14.1069L16.8912 17.4777C17.0949 17.6752 17.275 17.9039 17.4226 18.1628L17.4977 18.3021C18.2313 19.755 17.7045 21.5447 16.2747 22.3604L16.1349 22.4345C14.6822 23.1684 12.893 22.6418 12.0771 21.2124L12.003 21.0726C11.3685 19.8171 11.6768 18.3122 12.6946 17.3995L10.8942 14.0329C9.51713 14.5211 7.9472 13.9733 7.1977 12.6598L7.12355 12.5199C6.41298 11.1138 6.88307 9.39292 8.21015 8.54394L8.34562 8.46215C9.82165 7.62006 11.7012 8.13405 12.5432 9.61007L12.6182 9.74942C12.7314 9.9734 12.8112 10.2062 12.8657 10.4413L16.8001 10.442C16.9768 9.68571 17.4347 8.99722 18.1327 8.55068L18.2682 8.46889C19.7442 7.6268 21.6237 8.14079 22.4658 9.61681L22.5408 9.75616ZM11.5008 10.2048C10.9871 9.30444 9.84074 8.99095 8.94037 9.50462C8.04015 10.0183 7.72654 11.1647 8.24018 12.065C8.75387 12.9652 9.9003 13.2787 10.8006 12.7652C11.7009 12.2516 12.0143 11.1052 11.5008 10.2048ZM16.3802 18.7575C15.8665 17.8571 14.7201 17.5436 13.8198 18.0573C12.9196 18.571 12.6059 19.7174 13.1196 20.6177C13.6334 21.5175 14.7798 21.8313 15.68 21.3179C16.5801 20.8043 16.8934 19.6578 16.3802 18.7575ZM17.9046 13.5704C17.5954 13.3303 17.3264 13.0277 17.1202 12.6665L17.0461 12.5267C16.902 12.2417 16.8093 11.9432 16.7596 11.6422L12.9023 11.6426C12.789 12.3169 12.454 12.948 11.927 13.4212L13.7268 16.7848C14.4405 16.5323 15.2057 16.5607 15.882 16.828L17.9046 13.5704ZM21.4233 10.2116C20.9096 9.31118 19.7633 8.99769 18.8629 9.51136C17.9627 10.0251 17.6491 11.1714 18.1627 12.0718C18.6764 12.9719 19.8228 13.2854 20.7231 12.772C21.6234 12.2583 21.9368 11.1119 21.4233 10.2116Z" fill="url(#paint0_linear_5824_2956)"/>
<defs>
<linearGradient id="paint0_linear_5824_2956" x1="8.94835" y1="9.27119" x2="15.5319" y2="23.495" gradientUnits="userSpaceOnUse">
<stop stop-color="white"/>
<stop offset="1" stop-color="white" stop-opacity="0.3"/>
</linearGradient>
</defs>
</svg>
