<svg width="30" height="30" viewBox="0 0 30 30" fill="none" xmlns="http://www.w3.org/2000/svg">
<path d="M0 6C0 2.68629 2.68629 0 6 0H24C27.3137 0 30 2.68629 30 6V24C30 27.3137 27.3137 30 24 30H6C2.68629 30 0 27.3137 0 24V6Z" fill="#1E0E40"/>
<path d="M6 0.5H24C27.0376 0.5 29.5 2.96243 29.5 6V24C29.5 27.0376 27.0376 29.5 24 29.5H6C2.96243 29.5 0.5 27.0376 0.5 24V6C0.5 2.96243 2.96243 0.5 6 0.5Z" stroke="white" stroke-opacity="0.2"/>
<path d="M16.9307 7.86816C17.24 7.86816 17.4932 8.11895 17.4932 8.43066C17.4931 8.7423 17.2423 8.99316 16.9307 8.99316H11.4814C9.5997 8.99334 8.38583 10.2868 8.38574 12.2881V18.3496C8.38589 20.3789 9.57164 21.6375 11.4814 21.6377H17.9316C19.8136 21.6377 21.0282 20.3463 21.0283 18.3496V13.0713C21.0283 12.7619 21.2791 12.5088 21.5908 12.5088C21.9 12.509 22.1533 12.7597 22.1533 13.0713V18.3496C22.1532 20.9885 20.4557 22.7627 17.9316 22.7627H11.4814C8.95756 22.7625 7.2609 20.9883 7.26074 18.3496V12.2881C7.26083 9.64459 8.95751 7.86835 11.4814 7.86816H16.9307ZM17.7305 13.0879C17.9203 12.8419 18.2744 12.7967 18.5205 12.9863C18.7666 13.1762 18.8109 13.5303 18.6211 13.7764L16.4248 16.6123C16.3334 16.7318 16.1974 16.8074 16.0498 16.8262C15.9023 16.8448 15.7522 16.8022 15.6328 16.7109L13.5186 15.0518L11.6201 17.5176C11.5076 17.6626 11.3414 17.7402 11.1729 17.7402C11.0535 17.7402 10.9318 17.7025 10.8311 17.623C10.585 17.4332 10.5378 17.0791 10.7275 16.833L12.9727 13.917C13.064 13.7975 13.2001 13.72 13.3477 13.7012C13.4975 13.6824 13.6475 13.7251 13.7646 13.8164L15.8818 15.4756L17.7305 13.0879ZM20.7354 7.2373C21.8392 7.2373 22.7392 8.13504 22.7393 9.24121C22.7393 10.3475 21.8393 11.2451 20.7354 11.2451C19.6291 11.2451 18.7314 10.3475 18.7314 9.24121C18.7315 8.13504 19.6315 7.2373 20.7354 7.2373ZM20.7354 8.3623C20.2503 8.3623 19.8565 8.75614 19.8564 9.24121C19.8564 9.72637 20.2502 10.1201 20.7354 10.1201C21.2205 10.1201 21.6143 9.72637 21.6143 9.24121C21.6142 8.75614 21.2204 8.3623 20.7354 8.3623Z" fill="url(#paint0_linear_5824_3243)"/>
<defs>
<linearGradient id="paint0_linear_5824_3243" x1="14.8793" y1="8.21492" x2="14.8793" y2="24.3998" gradientUnits="userSpaceOnUse">
<stop stop-color="white" stop-opacity="0.8"/>
<stop offset="1" stop-color="white" stop-opacity="0.3"/>
</linearGradient>
</defs>
</svg>
