<svg width="30" height="30" viewBox="0 0 30 30" fill="none" xmlns="http://www.w3.org/2000/svg">
<path d="M0 6C0 2.68629 2.68629 0 6 0H24C27.3137 0 30 2.68629 30 6V24C30 27.3137 27.3137 30 24 30H6C2.68629 30 0 27.3137 0 24V6Z" fill="#1E0E40"/>
<path d="M6 0.5H24C27.0376 0.5 29.5 2.96243 29.5 6V24C29.5 27.0376 27.0376 29.5 24 29.5H6C2.96243 29.5 0.5 27.0376 0.5 24V6C0.5 2.96243 2.96243 0.5 6 0.5Z" stroke="white" stroke-opacity="0.2"/>
<path d="M8.945 12.6215C8.81678 12.6214 8.69148 12.5833 8.5849 12.512C8.47833 12.4407 8.39527 12.3394 8.34622 12.221C8.29717 12.1025 8.28433 11.9721 8.30931 11.8464C8.33429 11.7206 8.39598 11.6051 8.48659 11.5144L12.8112 7.18974C12.9329 7.06826 13.0977 7.00003 13.2696 7.00003C13.4415 7.00003 13.6064 7.06826 13.728 7.18974L18.0527 11.5144C18.1433 11.6051 18.205 11.7206 18.23 11.8464C18.2549 11.9721 18.2421 12.1025 18.193 12.221C18.144 12.3394 18.0609 12.4407 17.9544 12.512C17.8478 12.5833 17.7225 12.6214 17.5943 12.6215H15.6482V18.0273C15.6482 18.184 15.5914 18.3355 15.4884 18.4536C15.3853 18.5718 15.243 18.6486 15.0877 18.6699L14.9995 18.676H13.9702L16.7293 21.4342L19.4876 18.676H18.4592C18.3024 18.676 18.151 18.6192 18.0328 18.5162C17.9147 18.4131 17.8379 18.2708 17.8166 18.1155L17.8105 18.0273V16.2974C17.8105 16.1254 17.8788 15.9604 18.0005 15.8387C18.1221 15.7171 18.2871 15.6487 18.4592 15.6487C18.6312 15.6487 18.7962 15.7171 18.9179 15.8387C19.0395 15.9604 19.1079 16.1254 19.1079 16.2974V17.3786H21.054C21.1747 17.3785 21.2931 17.4122 21.3958 17.4758C21.4985 17.5394 21.5813 17.6304 21.6351 17.7385C21.6888 17.8467 21.7113 17.9677 21.7001 18.0879C21.6888 18.2081 21.6441 18.3228 21.5712 18.4191L21.5124 18.4857L17.1877 22.8103C17.0661 22.9318 16.9012 23 16.7293 23C16.5574 23 16.3926 22.9318 16.2709 22.8103L11.9463 18.4857C11.8557 18.395 11.794 18.2794 11.769 18.1537C11.744 18.0279 11.7569 17.8976 11.8059 17.7791C11.855 17.6606 11.938 17.5594 12.0446 17.4881C12.1512 17.4168 12.2765 17.3787 12.4047 17.3786H14.3508V11.9728C14.3508 11.816 14.4076 11.6646 14.5106 11.5464C14.6136 11.4283 14.756 11.3515 14.9113 11.3301L14.9995 11.3241H16.027L13.2696 8.56584L10.5114 11.3241H11.5398C11.6965 11.3241 11.848 11.3809 11.9661 11.4839C12.0843 11.5869 12.1611 11.7293 12.1824 11.8846L12.1885 11.9728V13.7026C12.1885 13.8747 12.1201 14.0397 11.9985 14.1613C11.8768 14.283 11.7118 14.3513 11.5398 14.3513C11.3677 14.3513 11.2027 14.283 11.0811 14.1613C10.9594 14.0397 10.8911 13.8747 10.8911 13.7026V12.6215H8.945Z" fill="url(#paint0_linear_5824_2980)"/>
<defs>
<linearGradient id="paint0_linear_5824_2980" x1="11.01" y1="10.9696" x2="14.7672" y2="22.8246" gradientUnits="userSpaceOnUse">
<stop stop-color="white"/>
<stop offset="1" stop-color="white" stop-opacity="0.3"/>
</linearGradient>
</defs>
</svg>
