<svg width="30" height="30" viewBox="0 0 30 30" fill="none" xmlns="http://www.w3.org/2000/svg">
<path d="M0 6C0 2.68629 2.68629 0 6 0H24C27.3137 0 30 2.68629 30 6V24C30 27.3137 27.3137 30 24 30H6C2.68629 30 0 27.3137 0 24V6Z" fill="#1E0E40"/>
<path d="M6 0.5H24C27.0376 0.5 29.5 2.96243 29.5 6V24C29.5 27.0376 27.0376 29.5 24 29.5H6C2.96243 29.5 0.5 27.0376 0.5 24V6C0.5 2.96243 2.96243 0.5 6 0.5Z" stroke="white" stroke-opacity="0.2"/>
<path d="M17.0127 11.1016C17.247 10.8679 17.6272 10.8677 17.8613 11.1016L18.9756 12.2158C19.4049 12.6452 19.4045 13.3409 18.9756 13.7705L17.8613 14.8848C17.627 15.1191 17.247 15.1191 17.0127 14.8848C16.7788 14.6505 16.7786 14.2713 17.0127 14.0371L17.4209 13.6289H11.5518C10.2265 13.629 9.15159 14.7041 9.15137 16.0293V18.0537C9.15162 19.3789 10.2265 20.454 11.5518 20.4541H17.4375C18.2136 20.4538 18.8434 19.8239 18.8438 19.0479C18.844 18.7167 19.1122 18.4474 19.4434 18.4473C19.7744 18.4474 20.0428 18.7168 20.043 19.0479C20.0426 20.4866 18.8763 21.653 17.4375 21.6533H11.5518C9.56379 21.6532 7.9524 20.0416 7.95215 18.0537V16.0293C7.95237 14.0413 9.56377 12.4288 11.5518 12.4287H17.4912L17.0127 11.9502C16.7787 11.716 16.7788 11.3358 17.0127 11.1016ZM18.4482 8.34668C20.4363 8.3468 22.0478 9.95818 22.0479 11.9463V13.9707C22.0479 15.9589 20.4364 17.5712 18.4482 17.5713H12.5088L12.9873 18.0498C13.2214 18.2841 13.2216 18.6642 12.9873 18.8984C12.753 19.1322 12.3729 19.1323 12.1387 18.8984L11.0244 17.7832C10.5953 17.3537 10.5953 16.658 11.0244 16.2285L12.1387 15.1143C12.3729 14.88 12.753 14.8801 12.9873 15.1143C13.2213 15.3485 13.2213 15.7277 12.9873 15.9619L12.5781 16.3711H18.4482C19.7736 16.371 20.8486 15.2961 20.8486 13.9707V11.9463C20.8486 10.6209 19.7736 9.54602 18.4482 9.5459H12.5625C11.7863 9.54622 11.1564 10.1759 11.1562 10.9521C11.1562 11.2835 10.8879 11.5526 10.5566 11.5527C10.2254 11.5526 9.95703 11.2834 9.95703 10.9521C9.95723 9.51318 11.1236 8.347 12.5625 8.34668H18.4482Z" fill="url(#paint0_linear_5824_2968)"/>
<defs>
<linearGradient id="paint0_linear_5824_2968" x1="12.7105" y1="8.99441" x2="14.6998" y2="22.0903" gradientUnits="userSpaceOnUse">
<stop stop-color="white"/>
<stop offset="1" stop-color="white" stop-opacity="0.3"/>
</linearGradient>
</defs>
</svg>
