<svg width="30" height="31" viewBox="0 0 30 31" fill="none" xmlns="http://www.w3.org/2000/svg">
<path d="M0 6.35376C0 3.04005 2.68629 0.35376 6 0.35376H24C27.3137 0.35376 30 3.04005 30 6.35376V24.3538C30 27.6675 27.3137 30.3538 24 30.3538H6C2.68629 30.3538 0 27.6675 0 24.3538V6.35376Z" fill="#1E0E40"/>
<path d="M6 0.85376H24C27.0376 0.85376 29.5 3.31619 29.5 6.35376V24.3538C29.5 27.3913 27.0376 29.8538 24 29.8538H6C2.96243 29.8538 0.5 27.3913 0.5 24.3538V6.35376C0.5 3.31619 2.96243 0.85376 6 0.85376Z" stroke="white" stroke-opacity="0.2"/>
<path d="M12.3413 17.5916C12.5092 17.5916 12.6731 17.642 12.8091 17.7351C12.9451 17.8284 13.0467 17.96 13.0991 18.1111L14.1479 21.1316C14.1873 21.2449 14.1976 21.3653 14.1782 21.4832C14.1588 21.6011 14.1106 21.7136 14.0366 21.8103L13.9771 21.8787C13.9133 21.9442 13.8377 21.9991 13.7534 22.0398L13.6665 22.075C13.5784 22.1057 13.4846 22.1218 13.3901 22.1218H8.62061C8.49558 22.1218 8.37184 22.0942 8.26025 22.0408C8.17665 22.0007 8.10125 21.9471 8.0376 21.8826L7.97803 21.8142C7.9225 21.7427 7.88103 21.6627 7.85498 21.5779L7.8335 21.4919C7.81286 21.3752 7.82169 21.2553 7.85889 21.1423L8.85596 18.1218C8.90663 17.9682 9.00804 17.8334 9.14502 17.738C9.28197 17.6428 9.44773 17.5915 9.61768 17.5916H12.3413ZM20.3306 17.5916C20.4984 17.5916 20.6623 17.642 20.7983 17.7351C20.9344 17.8284 21.036 17.96 21.0884 18.1111L22.1372 21.1316C22.1765 21.2449 22.1869 21.3653 22.1675 21.4832C22.1481 21.6011 22.0998 21.7136 22.0259 21.8103L21.9663 21.8787C21.9025 21.9442 21.8269 21.9991 21.7427 22.0398L21.6558 22.075C21.5676 22.1057 21.4738 22.1218 21.3794 22.1218H16.6099C16.4848 22.1218 16.3611 22.0942 16.2495 22.0408C16.1659 22.0007 16.0905 21.9471 16.0269 21.8826L15.9673 21.8142C15.9118 21.7427 15.8703 21.6627 15.8442 21.5779L15.8228 21.4919C15.8021 21.3752 15.811 21.2553 15.8481 21.1423L16.8452 18.1218C16.8959 17.9682 16.9973 17.8334 17.1343 17.738C17.2712 17.6428 17.437 17.5915 17.6069 17.5916H20.3306ZM8.91943 21.1218H13.0864L12.2075 18.5916H9.75342L8.91943 21.1218ZM16.9087 21.1218H21.0757L20.1968 18.5916H17.7427L16.9087 21.1218ZM16.3472 12.28C16.515 12.2801 16.679 12.3304 16.8149 12.4236C16.9509 12.5168 17.0526 12.6486 17.105 12.7996L18.1538 15.8201C18.1931 15.9333 18.2034 16.0538 18.1841 16.1716C18.1647 16.2895 18.1164 16.4021 18.0425 16.4988L17.9829 16.5671C17.9192 16.6326 17.8435 16.6875 17.7593 16.7283L17.6724 16.7634C17.5843 16.7942 17.4904 16.8103 17.396 16.8103H12.6265C12.5015 16.8103 12.3777 16.7826 12.2661 16.7292C12.1826 16.6892 12.1071 16.6355 12.0435 16.571L11.9839 16.5027C11.9284 16.4312 11.8869 16.3511 11.8608 16.2664L11.8394 16.1804C11.8187 16.0637 11.8275 15.9438 11.8647 15.8308L12.8618 12.8103C12.9125 12.6566 13.0138 12.5219 13.1509 12.4265C13.2878 12.3313 13.4536 12.28 13.6235 12.28H16.3472ZM12.9253 15.8103H17.0923L16.2134 13.28H13.7593L12.9253 15.8103ZM8.85596 11.4294C9.05329 11.2364 9.36986 11.24 9.56299 11.4373L10.4741 12.3679C10.6672 12.5652 10.6636 12.8818 10.4663 13.075C10.269 13.2677 9.95232 13.2642 9.75928 13.0671L8.84814 12.1365C8.65522 11.9392 8.65898 11.6226 8.85596 11.4294ZM20.2944 11.4373C20.4876 11.24 20.8041 11.2364 21.0015 11.4294C21.1985 11.6226 21.2022 11.9392 21.0093 12.1365L20.0981 13.0671C19.9051 13.2642 19.5884 13.2677 19.3911 13.075C19.1938 12.8818 19.1902 12.5653 19.3833 12.3679L20.2944 11.4373ZM14.9917 8.58569C15.2675 8.58596 15.4905 8.8099 15.4907 9.08569V10.1863C15.4906 10.4623 15.2668 10.6863 14.9907 10.6863C14.7146 10.6862 14.4906 10.4624 14.4907 10.1863L14.4917 9.08569C14.492 8.80971 14.7157 8.58557 14.9917 8.58569Z" fill="url(#paint0_linear_5824_3082)"/>
<defs>
<linearGradient id="paint0_linear_5824_3082" x1="14.8789" y1="10.192" x2="8.29086" y2="26.9284" gradientUnits="userSpaceOnUse">
<stop stop-color="white"/>
<stop offset="1" stop-color="white" stop-opacity="0.3"/>
</linearGradient>
</defs>
</svg>
