<svg width="151" height="45" viewBox="0 0 151 45" fill="none" xmlns="http://www.w3.org/2000/svg">
<path d="M22.5 45C34.9264 45 45 34.9264 45 22.5C45 10.0736 34.9264 0 22.5 0C10.0736 0 0 10.0736 0 22.5C0 34.9264 10.0736 45 22.5 45Z" fill="url(#paint0_linear_4583_3453)"/>
<mask id="mask0_4583_3453" style="mask-type:luminance" maskUnits="userSpaceOnUse" x="0" y="0" width="45" height="45">
<path d="M22.5 45C34.9264 45 45 34.9264 45 22.5C45 10.0736 34.9264 0 22.5 0C10.0736 0 0 10.0736 0 22.5C0 34.9264 10.0736 45 22.5 45Z" fill="white"/>
</mask>
<g mask="url(#mask0_4583_3453)">
<path d="M22.0254 -5.37085V10.3066" stroke="white" stroke-width="0.789865"/>
<path d="M19.7031 -5.37085V10.3066" stroke="white" stroke-width="0.789865"/>
<path d="M25.0742 -5.37085V10.3066" stroke="white" stroke-width="0.789865"/>
<path d="M12.1934 -2.31694L17.2767 7.16423V-3.62891" stroke="white" stroke-width="0.789865"/>
<path d="M32.5187 -2.60723L27.4355 6.87395V-3.91919" stroke="white" stroke-width="0.789865"/>
<path d="M22.8301 52.4035V36.7261" stroke="white" stroke-width="0.789865"/>
<path d="M25.1523 52.403V36.7256" stroke="white" stroke-width="0.789865"/>
<path d="M19.7812 52.403V36.7256" stroke="white" stroke-width="0.789865"/>
<path d="M32.8098 49.5457L27.7266 40.0645V50.8577" stroke="white" stroke-width="0.789865"/>
<path d="M12.1934 49.6912L17.2767 40.21V51.0032" stroke="white" stroke-width="0.789865"/>
<path d="M-6.45898 23.9189H9.21844" stroke="white" stroke-width="0.789865"/>
<path d="M-6.45898 26.2417H9.21844" stroke="white" stroke-width="0.789865"/>
<path d="M-6.45898 20.8706H9.21844" stroke="white" stroke-width="0.789865"/>
<path d="M-3.76811 33.8254L5.71306 28.7422H-5.08008" stroke="white" stroke-width="0.789865"/>
<path d="M-2.75054 13.7903L6.73063 18.8735H-4.0625" stroke="white" stroke-width="0.789865"/>
<path d="M51.3141 23.1138H35.6367" stroke="white" stroke-width="0.789865"/>
<path d="M51.3141 20.791H35.6367" stroke="white" stroke-width="0.789865"/>
<path d="M51.3141 26.1621H35.6367" stroke="white" stroke-width="0.789865"/>
<path d="M48.0945 13.2102L38.6133 18.2935H49.4064" stroke="white" stroke-width="0.789865"/>
<path d="M48.6745 33.6805L39.1934 28.5972H49.9865" stroke="white" stroke-width="0.789865"/>
<path d="M2.28516 44.2272L13.3708 33.1416" stroke="white" stroke-width="0.789865"/>
<path d="M3.92773 45.8693L15.0134 34.7837" stroke="white" stroke-width="0.789865"/>
<path d="M0.128906 42.0719L11.2145 30.9863" stroke="white" stroke-width="0.789865"/>
<path d="M11.7798 49.3469L14.8897 39.0483L7.25781 46.6802" stroke="white" stroke-width="0.789865"/>
<path d="M-3.28125 34.4301L7.01733 31.3203L-0.614569 38.9522" stroke="white" stroke-width="0.789865"/>
<path d="M42.57 2.80493L31.4844 13.8906" stroke="white" stroke-width="0.789865"/>
<path d="M40.9274 1.16284L29.8418 12.2485" stroke="white" stroke-width="0.789865"/>
<path d="M44.7262 4.96069L33.6406 16.0463" stroke="white" stroke-width="0.789865"/>
<path d="M33.4145 -1.97534L30.3047 8.32324L37.9366 0.69134" stroke="white" stroke-width="0.789865"/>
<path d="M48.0407 12.3607L37.7422 15.4705L45.3741 7.83862" stroke="white" stroke-width="0.789865"/>
<path d="M43.1383 43.6579L32.0527 32.5723" stroke="white" stroke-width="0.789865"/>
<path d="M44.7809 42.0153L33.6953 30.9297" stroke="white" stroke-width="0.789865"/>
<path d="M40.9821 45.8131L29.8965 34.7275" stroke="white" stroke-width="0.789865"/>
<path d="M48.3298 34.4302L38.0312 31.3203L45.6631 38.9522" stroke="white" stroke-width="0.789865"/>
<path d="M33.559 49.2019L30.4492 38.9033L38.0811 46.5352" stroke="white" stroke-width="0.789865"/>
<path d="M1.7168 3.37476L12.8024 14.4604" stroke="white" stroke-width="0.789865"/>
<path d="M0.0742188 5.01685L11.1598 16.1024" stroke="white" stroke-width="0.789865"/>
<path d="M3.87305 1.21899L14.9586 12.3047" stroke="white" stroke-width="0.789865"/>
<path d="M-2.55664 13.0868L7.74195 16.1966L0.110046 8.5647" stroke="white" stroke-width="0.789865"/>
<path d="M11.6353 -1.53979L14.7451 8.75879L7.11328 1.12689" stroke="white" stroke-width="0.789865"/>
</g>
<path d="M22.4272 37.9351C30.9117 37.9351 37.7899 31.057 37.7899 22.5724C37.7899 14.0878 30.9117 7.20972 22.4272 7.20972C13.9426 7.20972 7.06445 14.0878 7.06445 22.5724C7.06445 31.057 13.9426 37.9351 22.4272 37.9351Z" fill="#F8BA3A" stroke="white" stroke-width="0.677027"/>
<mask id="mask1_4583_3453" style="mask-type:luminance" maskUnits="userSpaceOnUse" x="7" y="7" width="31" height="31">
<path d="M22.5736 37.9354C31.0582 37.9354 37.9363 31.0572 37.9363 22.5727C37.9363 14.0881 31.0582 7.20996 22.5736 7.20996C14.0891 7.20996 7.21094 14.0881 7.21094 22.5727C7.21094 31.0572 14.0891 37.9354 22.5736 37.9354Z" fill="white"/>
</mask>
<g mask="url(#mask1_4583_3453)">
<path fill-rule="evenodd" clip-rule="evenodd" d="M23.2999 6.53223L21.2676 22.8629H23.2999L22.5015 37.9257L37.3124 35.2742L39.9998 14.5946L33.4723 8.85481L23.2999 6.53223Z" fill="white"/>
</g>
<path d="M8.20815 20.5279C8.5578 23.3756 10.4103 26.3384 13.2572 25.9888C22.9195 24.8024 21.5619 18.5934 21.4317 16.5824C22.131 22.2778 26.4566 24.3681 33.7033 23.4783C35.86 23.2135 36.7436 18.9983 36.5048 17.0535C36.2063 14.6226 29.77 14.2672 21.7469 15.2523C13.7237 16.2374 7.77108 16.9683 8.20815 20.5279Z" fill="#01C1AE" stroke="#01C1AE" stroke-width="1.24122" stroke-linecap="round" stroke-linejoin="round"/>
<path d="M22.6632 32.3439C26.0295 32.0693 28.5548 29.3516 28.3037 26.2739L16.1133 27.2685C16.3644 30.3462 19.2969 32.6186 22.6632 32.3439Z" fill="white" stroke="#FE9D51" stroke-width="0.564189" stroke-linejoin="round"/>
<path d="M24.2422 29.0322H27.5809" stroke="#FE9A54" stroke-width="0.451351" stroke-linecap="round" stroke-linejoin="round"/>
<path d="M26.0576 22.1368C23.4447 21.1497 22.4044 18.532 22.2109 17.3465C22.2109 15.7497 24.0254 15.532 28.4528 15.532C32.8802 15.532 35.5657 15.8949 35.7834 17.0562C36.0012 19.0885 35.2754 22.1368 34.2593 22.6449C33.2431 23.153 29.3238 23.3707 26.0576 22.1368Z" fill="black" stroke="black" stroke-width="0.112838"/>
<path d="M18.3717 23.4979C20.4685 22.116 21.5573 19.4512 20.9041 17.2012C20.532 15.9197 18.4893 16.234 14.6621 16.8383C11.2508 17.3769 8.63797 18.8705 8.9283 20.177C9.07338 22.3176 10.7246 24.5783 11.6863 24.9673C12.648 25.3563 15.7508 25.2253 18.3717 23.4979Z" fill="black" stroke="black" stroke-width="0.112838"/>
<path d="M36.5069 10.4512L37.7811 13.8948L41.2246 15.169L37.7811 16.4432L36.5069 19.8867L35.2327 16.4432L31.7891 15.169L35.2327 13.8948L36.5069 10.4512Z" fill="white"/>
<path d="M81.877 27.582C81.877 28.4844 81.7598 29.2988 81.5254 30.0254C81.3027 30.7402 81.0039 31.373 80.6289 31.9238C80.2539 32.4746 79.8145 32.9434 79.3105 33.3301C78.8066 33.7168 78.2852 34.0332 77.7461 34.2793C77.207 34.5254 76.6562 34.707 76.0938 34.8242C75.543 34.9414 75.0215 35 74.5293 35H56.8984V30.4297H74.5293C75.4082 30.4297 76.0879 30.1719 76.5684 29.6562C77.0605 29.1406 77.3066 28.4492 77.3066 27.582C77.3066 27.1602 77.2422 26.7734 77.1133 26.4219C76.9844 26.0703 76.7969 25.7656 76.5508 25.5078C76.3164 25.25 76.0234 25.0508 75.6719 24.9102C75.332 24.7695 74.9512 24.6992 74.5293 24.6992H64.0176C63.2793 24.6992 62.4824 24.5703 61.627 24.3125C60.7715 24.043 59.9746 23.6152 59.2363 23.0293C58.5098 22.4434 57.9004 21.6758 57.4082 20.7266C56.9277 19.7773 56.6875 18.6172 56.6875 17.2461C56.6875 15.875 56.9277 14.7207 57.4082 13.7832C57.9004 12.834 58.5098 12.0664 59.2363 11.4805C59.9746 10.8828 60.7715 10.4551 61.627 10.1973C62.4824 9.92773 63.2793 9.79297 64.0176 9.79297H79.5742V14.3633H64.0176C63.1504 14.3633 62.4707 14.627 61.9785 15.1543C61.498 15.6816 61.2578 16.3789 61.2578 17.2461C61.2578 18.125 61.498 18.8223 61.9785 19.3379C62.4707 19.8418 63.1504 20.0938 64.0176 20.0938H74.5293H74.5645C75.0566 20.1055 75.5781 20.1758 76.1289 20.3047C76.6797 20.4219 77.2246 20.6094 77.7637 20.8672C78.3145 21.125 78.8359 21.4531 79.3281 21.8516C79.8203 22.2383 80.2539 22.707 80.6289 23.2578C81.0156 23.8086 81.3203 24.4414 81.543 25.1562C81.7656 25.8711 81.877 26.6797 81.877 27.582ZM109.291 32.6973C109.291 33.0254 109.233 33.3301 109.115 33.6113C108.998 33.8926 108.834 34.1387 108.623 34.3496C108.412 34.5488 108.166 34.707 107.885 34.8242C107.604 34.9414 107.305 35 106.988 35H96.6876C95.7149 35 94.7305 34.8945 93.7345 34.6836C92.7384 34.4727 91.7716 34.1504 90.8341 33.7168C89.9083 33.2715 89.0352 32.709 88.2149 32.0293C87.3946 31.3496 86.6739 30.5469 86.0528 29.6211C85.4434 28.6836 84.963 27.6172 84.6114 26.4219C84.2598 25.2148 84.0841 23.873 84.0841 22.3965V9.79297H88.6544V22.3965C88.6544 23.6855 88.8302 24.7754 89.1817 25.666C89.545 26.5566 90.002 27.3008 90.5528 27.8984C91.1036 28.4961 91.7071 28.9648 92.3634 29.3047C93.0196 29.6445 93.6407 29.8965 94.2266 30.0605C94.8243 30.2246 95.3458 30.3301 95.7911 30.377C96.2481 30.4121 96.547 30.4297 96.6876 30.4297H104.721V9.79297H109.291V32.6973ZM138.727 33.0488C138.727 33.377 138.662 33.6816 138.533 33.9629C138.416 34.2441 138.252 34.4902 138.041 34.7012C137.842 34.9004 137.602 35.0586 137.32 35.1758C137.039 35.293 136.74 35.3516 136.424 35.3516C136.143 35.3516 135.856 35.2988 135.563 35.1934C135.281 35.0879 135.029 34.918 134.807 34.6836L118.108 17.2461V35H113.537V11.7441C113.537 11.2754 113.666 10.8535 113.924 10.4785C114.194 10.0918 114.533 9.80469 114.944 9.61719C115.377 9.44141 115.822 9.40039 116.279 9.49414C116.736 9.57617 117.129 9.78711 117.457 10.127L134.156 27.5469V9.79297H138.727V33.0488Z" fill="white"/>
<defs>
<linearGradient id="paint0_linear_4583_3453" x1="2250" y1="0" x2="2250" y2="4500" gradientUnits="userSpaceOnUse">
<stop stop-color="#F5B745"/>
<stop offset="1" stop-color="#FC8B47"/>
</linearGradient>
</defs>
</svg>
