<svg width="30" height="30" viewBox="0 0 30 30" fill="none" xmlns="http://www.w3.org/2000/svg">
<path d="M0 6C0 2.68629 2.68629 0 6 0H24C27.3137 0 30 2.68629 30 6V24C30 27.3137 27.3137 30 24 30H6C2.68629 30 0 27.3137 0 24V6Z" fill="#1E0E40"/>
<path d="M6 0.5H24C27.0376 0.5 29.5 2.96243 29.5 6V24C29.5 27.0376 27.0376 29.5 24 29.5H6C2.96243 29.5 0.5 27.0376 0.5 24V6C0.5 2.96243 2.96243 0.5 6 0.5Z" stroke="white" stroke-opacity="0.2"/>
<path d="M16.3604 11.7487C16.8471 11.2629 17.6405 11.2621 18.1328 11.7535C18.6246 12.2445 18.6243 13.0354 18.1387 13.5211C17.6518 14.0069 16.8575 14.0078 16.3652 13.5162C15.8736 13.0252 15.8745 12.2343 16.3604 11.7487Z" stroke="url(#paint0_linear_5824_3233)"/>
<mask id="path-4-inside-1_5824_3233" fill="white">
<path d="M9.33447 17.6749C10.3889 16.6039 11.4121 16.7163 12.3638 17.6827C13.3148 18.6496 13.425 19.6892 12.3706 20.7609C11.7173 21.4244 10.6592 21.8226 9.20361 21.9933C9.12829 22.0023 9.05181 22.0023 8.97607 21.9933C8.46462 21.931 8.09137 21.4764 8.11572 20.9572L8.12061 20.8888L8.14209 20.7169C8.32057 19.3291 8.70692 18.3127 9.33447 17.6749ZM15.7837 8.87512C17.3391 7.99187 18.9183 7.77412 20.4966 8.23645L20.644 8.28137L20.7886 8.3302C20.9668 8.39279 21.1294 8.49458 21.2622 8.62903C21.395 8.76342 21.4955 8.92654 21.5562 9.10559C22.1335 10.7948 21.9496 12.5066 21.019 14.2032C20.6355 14.9021 20.1446 15.5637 19.5474 16.1876L19.3823 16.3575L19.2251 16.5109L19.2212 16.5587C19.1123 17.5749 18.3422 18.919 16.9243 20.6564L16.8013 20.8058L16.5747 21.0773C16.3184 21.3818 15.8417 21.2973 15.6919 20.9376L15.6733 20.8888L14.8813 18.3546L14.8091 18.3048C14.3636 17.9869 13.9391 17.6399 13.5386 17.2667L13.3413 17.0792L13.1489 16.8868C12.5788 16.3057 12.0649 15.6716 11.6157 14.9923L11.5718 14.924L8.98975 14.087C8.6269 13.9687 8.5102 13.519 8.74072 13.2365L8.771 13.2023L8.8042 13.171C10.9276 11.3129 12.4945 10.3913 13.6167 10.4679L13.689 10.4747L13.731 10.4796L13.8257 10.3839C14.3348 9.87697 14.8679 9.44553 15.4253 9.09094L15.6118 8.97571L15.7837 8.87512Z"/>
</mask>
<path d="M9.33447 17.6749L8.62187 16.9734L8.62165 16.9736L9.33447 17.6749ZM12.3638 17.6827L13.0767 16.9815L13.0763 16.9811L12.3638 17.6827ZM12.3706 20.7609L13.0832 21.4624L13.0834 21.4622L12.3706 20.7609ZM9.20361 21.9933L9.08713 21.0001L9.08489 21.0004L9.20361 21.9933ZM8.97607 21.9933L8.85511 22.9859L8.85798 22.9863L8.97607 21.9933ZM8.11572 20.9572L7.11826 20.8859L7.11739 20.8981L7.11682 20.9103L8.11572 20.9572ZM8.12061 20.8888L7.12833 20.7648L7.12504 20.7911L7.12315 20.8175L8.12061 20.8888ZM8.14209 20.7169L7.15025 20.5894L7.14981 20.5929L8.14209 20.7169ZM15.7837 8.87512L15.2899 8.00547L15.2786 8.01206L15.7837 8.87512ZM20.4966 8.23645L20.788 7.2798L20.7777 7.27678L20.4966 8.23645ZM20.644 8.28137L20.9641 7.33398L20.9499 7.32916L20.9355 7.32477L20.644 8.28137ZM20.7886 8.3302L21.1199 7.38662L21.1086 7.3828L20.7886 8.3302ZM21.2622 8.62903L21.9736 7.92624L21.9736 7.9262L21.2622 8.62903ZM21.5562 9.10559L20.6089 9.42623L20.6099 9.42898L21.5562 9.10559ZM21.019 14.2032L21.8957 14.6843L21.8958 14.6842L21.019 14.2032ZM19.5474 16.1876L20.2647 16.8844L20.2698 16.8791L19.5474 16.1876ZM19.3823 16.3575L20.0805 17.0735L20.0902 17.064L20.0997 17.0543L19.3823 16.3575ZM19.2251 16.5109L18.5269 15.7949L18.2589 16.0563L18.2284 16.4295L19.2251 16.5109ZM19.2212 16.5587L20.2155 16.6652L20.2168 16.6527L20.2179 16.6401L19.2212 16.5587ZM16.9243 20.6564L17.6963 21.2921L17.6991 21.2886L16.9243 20.6564ZM16.8013 20.8058L17.5691 21.4465L17.5732 21.4415L16.8013 20.8058ZM16.5747 21.0773L17.3398 21.7212L17.3425 21.718L16.5747 21.0773ZM15.6919 20.9376L14.7571 21.2928L14.7627 21.3076L14.7688 21.3222L15.6919 20.9376ZM15.6733 20.8888L14.7189 21.1871L14.7279 21.2158L14.7386 21.244L15.6733 20.8888ZM14.8813 18.3546L15.8358 18.0563L15.7329 17.727L15.4488 17.5312L14.8813 18.3546ZM14.8091 18.3048L14.2283 19.1188L14.2349 19.1236L14.2416 19.1282L14.8091 18.3048ZM13.5386 17.2667L12.8496 17.9916L12.8569 17.9984L13.5386 17.2667ZM13.3413 17.0792L12.6342 17.7863L12.6432 17.7953L12.6524 17.804L13.3413 17.0792ZM13.1489 16.8868L12.4351 17.5872L12.4418 17.5939L13.1489 16.8868ZM11.6157 14.9923L10.7745 15.5331L10.7816 15.5439L11.6157 14.9923ZM11.5718 14.924L12.413 14.3832L12.2198 14.0828L11.8801 13.9727L11.5718 14.924ZM8.98975 14.087L8.67965 15.0377L8.68141 15.0383L8.98975 14.087ZM8.74072 13.2365L7.99213 12.5734L7.97872 12.5886L7.96592 12.6042L8.74072 13.2365ZM8.771 13.2023L8.08563 12.4741L8.05254 12.5052L8.02241 12.5392L8.771 13.2023ZM8.8042 13.171L8.14567 12.4185L8.13203 12.4304L8.11883 12.4428L8.8042 13.171ZM13.6167 10.4679L13.7109 9.47234L13.6979 9.47111L13.6848 9.47022L13.6167 10.4679ZM13.689 10.4747L13.8045 9.48142L13.7938 9.48019L13.7831 9.47918L13.689 10.4747ZM13.731 10.4796L13.6155 11.4729L14.0991 11.5292L14.4417 11.1831L13.731 10.4796ZM13.8257 10.3839L13.1201 9.67528L13.115 9.68044L13.8257 10.3839ZM15.4253 9.09094L14.8997 8.24013L14.8885 8.24721L15.4253 9.09094ZM15.6118 8.97571L15.1067 8.11264L15.0964 8.11868L15.0862 8.12497L15.6118 8.97571ZM9.33447 17.6749L10.0471 18.3765C10.4535 17.9637 10.7202 17.9103 10.858 17.9144C11.0113 17.9189 11.2754 18.0027 11.6512 18.3844L12.3638 17.6827L13.0763 16.9811C12.5005 16.3963 11.7771 15.9407 10.9173 15.9152C10.0419 15.8893 9.26988 16.3151 8.62187 16.9734L9.33447 17.6749ZM12.3638 17.6827L11.6509 18.384C12.0245 18.7638 12.1147 19.0385 12.1196 19.2109C12.1241 19.3692 12.0626 19.6481 11.6578 20.0595L12.3706 20.7609L13.0834 21.4622C13.733 20.802 14.1436 20.0253 14.1188 19.1541C14.0945 18.2971 13.6541 17.5685 13.0767 16.9815L12.3638 17.6827ZM12.3706 20.7609L11.658 20.0593C11.2397 20.4842 10.4531 20.8399 9.08713 21.0001L9.20361 21.9933L9.3201 22.9865C10.8653 22.8052 12.1949 22.3647 13.0832 21.4624L12.3706 20.7609ZM9.20361 21.9933L9.08489 21.0004C9.08865 20.9999 9.09166 21 9.09417 21.0003L8.97607 21.9933L8.85798 22.9863C9.01195 23.0046 9.16793 23.0047 9.32234 22.9862L9.20361 21.9933ZM8.97607 21.9933L9.09704 21.0006C9.09846 21.0008 9.10064 21.0012 9.10323 21.0021C9.10577 21.0029 9.10807 21.0039 9.11001 21.005C9.1138 21.0071 9.11527 21.0089 9.11538 21.009C9.11546 21.0091 9.11517 21.0087 9.11494 21.0081C9.11488 21.0079 9.11449 21.0069 9.11462 21.004L8.11572 20.9572L7.11682 20.9103C7.0688 21.9341 7.80606 22.8581 8.85511 22.9859L8.97607 21.9933ZM8.11572 20.9572L9.11318 21.0284L9.11806 20.96L8.12061 20.8888L7.12315 20.8175L7.11826 20.8859L8.11572 20.9572ZM8.12061 20.8888L9.11288 21.0128L9.13437 20.841L8.14209 20.7169L7.14981 20.5929L7.12833 20.7648L8.12061 20.8888ZM8.14209 20.7169L9.13392 20.8445C9.30095 19.5458 9.64358 18.7866 10.0473 18.3763L9.33447 17.6749L8.62165 16.9736C7.77027 17.8389 7.34019 19.1125 7.15026 20.5894L8.14209 20.7169ZM15.7837 8.87512L16.2775 9.7447C17.6226 8.98086 18.9236 8.81768 20.2155 9.19612L20.4966 8.23645L20.7777 7.27678C18.9131 6.73056 17.0556 7.00287 15.2899 8.00555L15.7837 8.87512ZM20.4966 8.23645L20.2052 9.19305L20.3526 9.23797L20.644 8.28137L20.9355 7.32477L20.788 7.27985L20.4966 8.23645ZM20.644 8.28137L20.324 9.22877L20.4685 9.2776L20.7886 8.3302L21.1086 7.3828L20.9641 7.33398L20.644 8.28137ZM20.7886 8.3302L20.4572 9.27371C20.4955 9.28716 20.5273 9.30797 20.5508 9.33185L21.2622 8.62903L21.9736 7.9262C21.7315 7.68118 21.4381 7.49841 21.1199 7.38669L20.7886 8.3302ZM21.2622 8.62903L20.5508 9.33182C20.5768 9.35813 20.5969 9.3905 20.609 9.42623L21.5562 9.10559L22.5034 8.78495C22.3942 8.46259 22.2131 8.16871 21.9736 7.92624L21.2622 8.62903ZM21.5562 9.10559L20.6099 9.42898C21.0874 10.8263 20.9515 12.2469 20.1423 13.7223L21.019 14.2032L21.8958 14.6842C22.9478 12.7663 23.1795 10.7634 22.5024 8.7822L21.5562 9.10559ZM21.019 14.2032L20.1424 13.7222C19.8044 14.3381 19.367 14.9298 18.8249 15.4962L19.5474 16.1876L20.2698 16.8791C20.9221 16.1975 21.4667 15.4661 21.8957 14.6843L21.019 14.2032ZM19.5474 16.1876L18.83 15.4909L18.665 15.6608L19.3823 16.3575L20.0997 17.0543L20.2647 16.8843L19.5474 16.1876ZM19.3823 16.3575L18.6842 15.6416L18.5269 15.7949L19.2251 16.5109L19.9233 17.2268L20.0805 17.0735L19.3823 16.3575ZM19.2251 16.5109L18.2284 16.4295L18.2245 16.4774L19.2212 16.5587L20.2179 16.6401L20.2218 16.5922L19.2251 16.5109ZM19.2212 16.5587L18.2269 16.4522C18.1927 16.7711 18.0422 17.2255 17.6925 17.8461C17.3472 18.4587 16.8382 19.1803 16.1496 20.0241L16.9243 20.6564L17.6991 21.2886C18.4283 20.395 19.0133 19.5759 19.4348 18.8281C19.8518 18.0883 20.1408 17.3625 20.2155 16.6652L19.2212 16.5587ZM16.9243 20.6564L16.1524 20.0207L16.0293 20.1701L16.8013 20.8058L17.5732 21.4415L17.6962 21.2921L16.9243 20.6564ZM16.8013 20.8058L16.0335 20.1651L15.8069 20.4365L16.5747 21.0773L17.3425 21.718L17.569 21.4465L16.8013 20.8058ZM16.5747 21.0773L15.8096 20.4333C16.0536 20.1434 16.4877 20.2474 16.615 20.5531L15.6919 20.9376L14.7688 21.3222C15.1958 22.3472 16.5831 22.6202 17.3398 21.7212L16.5747 21.0773ZM15.6919 20.9376L16.6267 20.5824L16.6081 20.5336L15.6733 20.8888L14.7386 21.244L14.7571 21.2928L15.6919 20.9376ZM15.6733 20.8888L16.6278 20.5905L15.8358 18.0563L14.8813 18.3546L13.9269 18.6529L14.7189 21.1871L15.6733 20.8888ZM14.8813 18.3546L15.4488 17.5312L15.3766 17.4814L14.8091 18.3048L14.2416 19.1282L14.3139 19.178L14.8813 18.3546ZM14.8091 18.3048L15.3899 17.4908C14.98 17.1983 14.5892 16.8788 14.2203 16.5351L13.5386 17.2667L12.8569 17.9984C13.2889 18.4009 13.7471 18.7756 14.2283 19.1188L14.8091 18.3048ZM13.5386 17.2667L14.2275 16.5419L14.0302 16.3544L13.3413 17.0792L12.6524 17.804L12.8496 17.9915L13.5386 17.2667ZM13.3413 17.0792L14.0484 16.3721L13.856 16.1797L13.1489 16.8868L12.4418 17.5939L12.6342 17.7863L13.3413 17.0792ZM13.1489 16.8868L13.8627 16.1865C13.3369 15.6505 12.8634 15.0662 12.4499 14.4408L11.6157 14.9923L10.7816 15.5439C11.2664 16.277 11.8206 16.9609 12.4351 17.5872L13.1489 16.8868ZM11.6157 14.9923L12.4569 14.4516L12.413 14.3832L11.5718 14.924L10.7306 15.4647L10.7745 15.5331L11.6157 14.9923ZM11.5718 14.924L11.8801 13.9727L9.29808 13.1358L8.98975 14.087L8.68141 15.0383L11.2634 15.8752L11.5718 14.924ZM8.98975 14.087L9.29984 13.1363C9.63037 13.2441 9.71217 13.6277 9.51552 13.8687L8.74072 13.2365L7.96592 12.6042C7.30824 13.4103 7.62344 14.6932 8.67965 15.0377L8.98975 14.087ZM8.74072 13.2365L9.48931 13.8995L9.51958 13.8653L8.771 13.2023L8.02241 12.5392L7.99213 12.5734L8.74072 13.2365ZM8.771 13.2023L9.45636 13.9305L9.48956 13.8992L8.8042 13.171L8.11883 12.4428L8.08563 12.4741L8.771 13.2023ZM8.8042 13.171L9.46273 13.9236C10.5015 13.0146 11.3664 12.3688 12.0799 11.9634C12.8103 11.5484 13.2757 11.4469 13.5486 11.4656L13.6167 10.4679L13.6848 9.47022C12.8355 9.41224 11.9563 9.73332 11.0919 10.2245C10.2106 10.7252 9.23025 11.4694 8.14567 12.4185L8.8042 13.171ZM13.6167 10.4679L13.5225 11.4635L13.5948 11.4703L13.689 10.4747L13.7831 9.47918L13.7109 9.47234L13.6167 10.4679ZM13.689 10.4747L13.5735 11.468L13.6155 11.4729L13.731 10.4796L13.8465 9.48631L13.8045 9.48142L13.689 10.4747ZM13.731 10.4796L14.4417 11.1831L14.5364 11.0874L13.8257 10.3839L13.115 9.68044L13.0202 9.77614L13.731 10.4796ZM13.8257 10.3839L14.5313 11.0925C14.994 10.6318 15.4712 10.2469 15.9621 9.93467L15.4253 9.09094L14.8885 8.24721C14.2647 8.64411 13.6756 9.12218 13.1201 9.6753L13.8257 10.3839ZM15.4253 9.09094L15.9509 9.94168L16.1374 9.82645L15.6118 8.97571L15.0862 8.12497L14.8997 8.2402L15.4253 9.09094ZM15.6118 8.97571L16.1169 9.83877L16.2888 9.73819L15.7837 8.87512L15.2786 8.01206L15.1067 8.11264L15.6118 8.97571Z" fill="url(#paint1_linear_5824_3233)" mask="url(#path-4-inside-1_5824_3233)"/>
<defs>
<linearGradient id="paint0_linear_5824_3233" x1="17.3598" y1="8.17812" x2="16.7953" y2="22.1616" gradientUnits="userSpaceOnUse">
<stop stop-color="white" stop-opacity="0.8"/>
<stop offset="1" stop-color="white" stop-opacity="0.3"/>
</linearGradient>
<linearGradient id="paint1_linear_5824_3233" x1="15.0001" y1="8.00012" x2="15.0001" y2="22" gradientUnits="userSpaceOnUse">
<stop stop-color="white" stop-opacity="0.8"/>
<stop offset="1" stop-color="white" stop-opacity="0.3"/>
</linearGradient>
</defs>
</svg>
