<svg width="30" height="30" viewBox="0 0 30 30" fill="none" xmlns="http://www.w3.org/2000/svg">
<rect y="-6.10352e-05" width="30" height="30" rx="6" fill="#1E0E40"/>
<rect x="0.5" y="0.499939" width="29" height="29" rx="5.5" stroke="white" stroke-opacity="0.2"/>
<path d="M10.0269 13.4707C12.2211 11.9671 15.2193 12.5257 16.7231 14.7197L16.8579 14.9287C18.1901 17.101 17.598 19.9602 15.4722 21.417L15.2642 21.5517C13.0919 22.8836 10.2325 22.2917 8.77588 20.166C7.27247 17.9717 7.8328 14.9744 10.0269 13.4707ZM21.2339 17.5019C21.4854 17.4174 21.7463 17.5406 21.7974 17.7509C22.1545 19.4065 21.28 21.0857 19.2954 21.7841L17.8062 22.0722C17.3584 22.159 17.0378 21.6505 17.3091 21.2841L17.9897 20.3672C18.2304 20.0428 18.737 20.123 18.8657 20.5058L19.0591 21.083C20.5892 20.5195 21.2047 19.2544 20.9116 17.9687C20.8815 17.7692 21.0187 17.5699 21.2339 17.5019ZM15.7329 15.3984C14.6038 13.7512 12.3531 13.3313 10.7056 14.4599C9.05819 15.589 8.6374 17.8397 9.76611 19.4873C10.8951 21.1348 13.1458 21.5555 14.7935 20.4267C16.4411 19.2976 16.862 17.0461 15.7329 15.3984ZM12.689 11.873C13.067 9.24005 15.5081 7.41133 18.1411 7.78903C20.6918 8.15518 22.487 10.4578 22.2534 12.9951L22.2251 13.2412C21.9221 15.3525 20.2917 16.9438 18.3003 17.2978C18.3474 16.8827 18.3411 16.4735 18.2847 16.0771C19.6906 15.7459 20.82 14.5863 21.0376 13.0703C21.3209 11.0934 19.9471 9.26126 17.9702 8.97751C16.0224 8.69826 14.2163 10.027 13.8921 11.957C13.4762 11.9241 13.0663 11.9453 12.6714 12.0156C12.6768 11.9683 12.6822 11.9205 12.689 11.873ZM11.6587 9.06149C12.1028 8.95818 12.4419 9.45473 12.1841 9.83102L11.5396 10.7734C11.3113 11.1063 10.803 11.0452 10.6597 10.6679L10.4438 10.0976C8.9361 10.7185 8.36896 12.0066 8.71045 13.2802C8.748 13.4785 8.61831 13.6828 8.40576 13.7588C8.15763 13.8527 7.89242 13.7395 7.8335 13.5312C7.41407 11.8903 8.22438 10.1792 10.1812 9.40622L11.6587 9.06149Z" fill="url(#paint0_linear_5824_2986)"/>
<defs>
<linearGradient id="paint0_linear_5824_2986" x1="11.5182" y1="13.8327" x2="17.7269" y2="23.3876" gradientUnits="userSpaceOnUse">
<stop stop-color="white"/>
<stop offset="1" stop-color="white" stop-opacity="0.3"/>
</linearGradient>
</defs>
</svg>
