<svg width="48" height="26" viewBox="0 0 48 26" fill="none" xmlns="http://www.w3.org/2000/svg">
<path d="M34.1628 1H13.8372C6.74741 1 1 6.15768 1 12.52V13.48C1 19.8423 6.74741 25 13.8372 25H34.1628C41.2526 25 47 19.8423 47 13.48V12.52C47 6.15768 41.2526 1 34.1628 1Z" fill="url(#paint0_linear_1109_1196)"/>
<path d="M34.1631 0.5C41.4764 0.500143 47.4997 5.83184 47.5 12.5195V13.4805C47.4997 20.1682 41.4764 25.4999 34.1631 25.5H13.8369C6.52357 25.4999 0.500282 20.1682 0.5 13.4805V12.5195C0.500281 5.83184 6.52357 0.500144 13.8369 0.5H34.1631Z" stroke="url(#paint1_linear_1109_1196)" stroke-opacity="0.5"/>
<mask id="mask0_1109_1196" style="mask-type:alpha" maskUnits="userSpaceOnUse" x="1" y="1" width="46" height="24">
<path d="M34.1628 1H13.8372C6.74741 1 1 6.15768 1 12.52V13.48C1 19.8423 6.74741 25 13.8372 25H34.1628C41.2526 25 47 19.8423 47 13.48V12.52C47 6.15768 41.2526 1 34.1628 1Z" fill="url(#paint2_linear_1109_1196)"/>
</mask>
<g mask="url(#mask0_1109_1196)">
<path opacity="0.1" d="M13 26C20.1797 26 26 20.1797 26 13C26 5.8203 20.1797 0 13 0C5.8203 0 0 5.8203 0 13C0 20.1797 5.8203 26 13 26Z" fill="#9E9ABC"/>
<path opacity="0.1" d="M13 31C22.9411 31 31 22.9411 31 13C31 3.05887 22.9411 -5 13 -5C3.05887 -5 -5 3.05887 -5 13C-5 22.9411 3.05887 31 13 31Z" fill="#9E9ABC"/>
<path opacity="0.1" d="M13 36C25.7025 36 36 25.7025 36 13C36 0.29745 25.7025 -10 13 -10C0.29745 -10 -10 0.29745 -10 13C-10 25.7025 0.29745 36 13 36Z" fill="#9E9ABC"/>
</g>
<path d="M13 22C17.9706 22 22 17.9706 22 13C22 8.02944 17.9706 4 13 4C8.02944 4 4 8.02944 4 13C4 17.9706 8.02944 22 13 22Z" fill="#D3B8FF"/>
<path opacity="0.5" d="M6.45748 9.5245C5.65253 10.9187 6.13022 12.7015 7.52443 13.5064C8.91865 14.3114 10.7014 13.8337 11.5064 12.4395C12.3113 11.0453 11.8336 9.2625 10.4394 8.45755C9.0452 7.6526 7.26243 8.13029 6.45748 9.5245Z" fill="url(#paint3_linear_1109_1196)"/>
<path opacity="0.5" d="M14.9515 16.6479C14.4261 17.558 14.7379 18.7218 15.648 19.2472C16.5581 19.7727 17.7219 19.4608 18.2473 18.5507C18.7728 17.6406 18.4609 16.4769 17.5508 15.9514C16.6407 15.426 15.477 15.7378 14.9515 16.6479Z" fill="url(#paint4_linear_1109_1196)"/>
<path opacity="0.5" d="M13.3751 8.64951C13.1679 9.00827 13.2908 9.46703 13.6496 9.67416C14.0084 9.8813 14.4671 9.75838 14.6743 9.39961C14.8814 9.04084 14.7585 8.58208 14.3997 8.37495C14.0409 8.16781 13.5822 8.29074 13.3751 8.64951Z" fill="url(#paint5_linear_1109_1196)"/>
<path d="M41 8L41.5402 9.45982L43 10L41.5402 10.5402L41 12L40.4598 10.5402L39 10L40.4598 9.45982L41 8Z" fill="#9E9ABC"/>
<path opacity="0.5" d="M25 3L25.2701 3.72991L26 4L25.2701 4.27009L25 5L24.7299 4.27009L24 4L24.7299 3.72991L25 3Z" fill="#9E9ABC"/>
<path opacity="0.5" d="M45 12L45.2701 12.7299L46 13L45.2701 13.2701L45 14L44.7299 13.2701L44 13L44.7299 12.7299L45 12Z" fill="#9E9ABC"/>
<path opacity="0.5" d="M27 20L27.2701 20.7299L28 21L27.2701 21.2701L27 22L26.7299 21.2701L26 21L26.7299 20.7299L27 20Z" fill="#9E9ABC"/>
<path d="M38.5 19L38.9051 20.0949L40 20.5L38.9051 20.9051L38.5 22L38.0949 20.9051L37 20.5L38.0949 20.0949L38.5 19Z" fill="#9E9ABC"/>
<path d="M34.5 5L34.9051 6.09486L36 6.5L34.9051 6.90514L34.5 8L34.0949 6.90514L33 6.5L34.0949 6.09486L34.5 5Z" fill="#9E9ABC"/>
<path opacity="0.5" d="M33 13L33.2701 13.7299L34 14L33.2701 14.2701L33 15L32.7299 14.2701L32 14L32.7299 13.7299L33 13Z" fill="#9E9ABC"/>
<defs>
<linearGradient id="paint0_linear_1109_1196" x1="6.36451" y1="1.48" x2="27.2948" y2="32.5293" gradientUnits="userSpaceOnUse">
<stop stop-color="#3900CD"/>
<stop offset="1" stop-color="#7B00FF"/>
</linearGradient>
<linearGradient id="paint1_linear_1109_1196" x1="24" y1="1" x2="24" y2="25" gradientUnits="userSpaceOnUse">
<stop stop-color="#DDB1FF"/>
<stop offset="1" stop-color="#DDB1FF" stop-opacity="0.1"/>
</linearGradient>
<linearGradient id="paint2_linear_1109_1196" x1="6.36451" y1="1.48" x2="27.2948" y2="32.5293" gradientUnits="userSpaceOnUse">
<stop stop-color="#3C00D7"/>
<stop offset="1" stop-color="#7500DF"/>
</linearGradient>
<linearGradient id="paint3_linear_1109_1196" x1="11.5064" y1="12.4395" x2="6.45748" y2="9.5245" gradientUnits="userSpaceOnUse">
<stop stop-color="#D1B4FF"/>
<stop offset="1" stop-color="#9D7BD3"/>
</linearGradient>
<linearGradient id="paint4_linear_1109_1196" x1="18.2473" y1="18.5507" x2="14.9515" y2="16.6479" gradientUnits="userSpaceOnUse">
<stop stop-color="#D1B4FF"/>
<stop offset="1" stop-color="#9D7BD3"/>
</linearGradient>
<linearGradient id="paint5_linear_1109_1196" x1="14.6743" y1="9.39961" x2="13.3751" y2="8.64951" gradientUnits="userSpaceOnUse">
<stop stop-color="#D1B4FF"/>
<stop offset="1" stop-color="#9D7BD3"/>
</linearGradient>
</defs>
</svg>
