<svg width="48" height="26" viewBox="0 0 48 26" fill="none" xmlns="http://www.w3.org/2000/svg">
<path d="M13.8372 1H34.1628C41.2526 1 47 6.15768 47 12.52V13.48C47 19.8423 41.2526 25 34.1628 25H13.8372C6.74741 25 1 19.8423 1 13.48V12.52C1 6.15768 6.74741 1 13.8372 1Z" fill="url(#paint0_linear_1109_1222)"/>
<path d="M13.8369 0.5C6.52357 0.500143 0.500281 5.83184 0.5 12.5195V13.4805C0.500282 20.1682 6.52357 25.4999 13.8369 25.5H34.1631C41.4764 25.4999 47.4997 20.1682 47.5 13.4805V12.5195C47.4997 5.83184 41.4764 0.500144 34.1631 0.5H13.8369Z" stroke="url(#paint1_linear_1109_1222)" stroke-opacity="0.5"/>
<mask id="mask0_1109_1222" style="mask-type:alpha" maskUnits="userSpaceOnUse" x="1" y="1" width="46" height="24">
<path d="M13.8372 1H34.1628C41.2526 1 47 6.15768 47 12.52V13.48C47 19.8423 41.2526 25 34.1628 25H13.8372C6.74741 25 1 19.8423 1 13.48V12.52C1 6.15768 6.74741 1 13.8372 1Z" fill="url(#paint2_linear_1109_1222)"/>
</mask>
<g mask="url(#mask0_1109_1222)">
<path opacity="0.1" d="M35 26C27.8203 26 22 20.1797 22 13C22 5.8203 27.8203 0 35 0C42.1797 0 48 5.8203 48 13C48 20.1797 42.1797 26 35 26Z" fill="white"/>
<path opacity="0.1" d="M35 31C25.0589 31 17 22.9411 17 13C17 3.05887 25.0589 -5 35 -5C44.9411 -5 53 3.05887 53 13C53 22.9411 44.9411 31 35 31Z" fill="white"/>
<path opacity="0.5" d="M4 3C1.79086 3 0 4.79086 0 7C0 7.7563 0.210476 8.46323 0.575195 9.06641C-2.57655 9.51542 -5 12.2242 -5 15.5C-5 19.0899 -2.08985 22 1.5 22C2.30367 22 3.07269 21.8526 3.7832 21.5859C4.49129 22.1213 5.30387 22.5247 6.18555 22.7607C5.43991 23.8185 5 25.1074 5 26.5C5 30.0899 7.91015 33 11.5 33C15.0899 33 18 30.0899 18 26.5C18 25.9676 17.9352 25.4503 17.8145 24.9551C18.0392 24.983 18.2677 25 18.5 25C18.9879 25 19.4607 24.9356 19.9111 24.8164C21.0443 26.7219 23.1221 28 25.5 28C26.5825 28 27.6023 27.7337 28.5 27.2656C29.3977 27.7337 30.4175 28 31.5 28C33.7571 28 35.7449 26.8491 36.9102 25.1025C38.0859 26.2751 39.7083 27 41.5 27C45.0899 27 48 24.0899 48 20.5C48 19.0651 47.5345 17.7393 46.7471 16.6641C47.4952 16.232 48 15.426 48 14.5C48 13.1193 46.8807 12 45.5 12C44.2276 12 43.1794 12.9509 43.0225 14.1807C42.534 14.0634 42.0244 14 41.5 14C39.2434 14 37.2562 15.1506 36.0908 16.8965C34.9151 15.7239 33.2917 15 31.5 15C30.4177 15 29.3976 15.2655 28.5 15.7334C27.6024 15.2655 26.5823 15 25.5 15C24.4195 15 23.4014 15.265 22.5049 15.7314C21.6087 14.7794 20.3774 14.1464 18.999 14.0225C18.9991 14.015 19 14.0075 19 14C19 12.8954 18.1046 12 17 12C16.8279 12 16.6613 12.0236 16.502 12.0645C15.82 10.8333 14.5071 10 13 10C12.6061 10 12.2258 10.058 11.8662 10.1641C11.0111 9.59645 10.0241 9.21338 8.96094 9.06738C8.84743 8.41723 8.48289 7.85526 7.9707 7.48145C7.98964 7.32358 8 7.16297 8 7C8 4.79086 6.20914 3 4 3Z" fill="white"/>
<path opacity="0.5" d="M2 8C-0.209141 8 -2 9.79086 -2 12C-2 12.9638 -1.65857 13.8475 -1.09082 14.5381C-3.39116 15.5391 -5 17.8312 -5 20.5C-5 24.0899 -2.08985 27 1.5 27C1.9959 27 2.4783 26.9421 2.94238 26.8369C4.21678 28.1691 6.01086 29 8 29C9.28381 29 10.4861 28.653 11.5205 28.0498C12.512 30.372 14.8154 32 17.5 32C18.7335 32 19.8866 31.6563 20.8691 31.0596C22.0481 32.2569 23.6869 33 25.5 33C26.5825 33 27.6023 32.7337 28.5 32.2656C29.3977 32.7337 30.4175 33 31.5 33C33.7571 33 35.7449 31.8491 36.9102 30.1025C38.0859 31.2751 39.7083 32 41.5 32C45.0899 32 48 29.0899 48 25.5C48 24.649 47.8354 23.8367 47.5381 23.0918C48.4307 22.3582 49 21.2456 49 20C49 17.7909 47.2091 16 45 16C43.132 16 41.5641 17.2807 41.124 19.0117C39.0236 19.1315 37.191 20.2482 36.0908 21.8965C34.9151 20.7239 33.2917 20 31.5 20C30.4177 20 29.3976 20.2655 28.5 20.7334C27.6024 20.2655 26.5823 20 25.5 20C24.267 20 23.1141 20.3432 22.1318 20.9395C21.0623 19.8533 19.6133 19.1433 18 19.0205C18 19.0137 18 19.0068 18 19C18 16.7909 16.2091 15 14 15C13.0337 15 12.1474 15.3427 11.4561 15.9131C10.6934 15.4791 9.84172 15.1845 8.93457 15.0635C8.97634 14.8823 9 14.6939 9 14.5C9 13.1193 7.88071 12 6.5 12C6.32845 12 6.16086 12.0169 5.99902 12.0498C5.99923 12.0332 6 12.0166 6 12C6 9.79086 4.20914 8 2 8Z" fill="white"/>
</g>
<path d="M35 22C30.0294 22 26 17.9706 26 13C26 8.02944 30.0294 4 35 4C39.9706 4 44 8.02944 44 13C44 17.9706 39.9706 22 35 22Z" fill="url(#paint3_linear_1109_1222)"/>
<defs>
<linearGradient id="paint0_linear_1109_1222" x1="41.6355" y1="1.48" x2="20.7052" y2="32.5293" gradientUnits="userSpaceOnUse">
<stop stop-color="#8ECEFF"/>
<stop offset="1" stop-color="#5D48FF"/>
</linearGradient>
<linearGradient id="paint1_linear_1109_1222" x1="24" y1="1" x2="24" y2="25" gradientUnits="userSpaceOnUse">
<stop stop-color="#79B7FF"/>
<stop offset="1" stop-color="#79B7FF" stop-opacity="0.1"/>
</linearGradient>
<linearGradient id="paint2_linear_1109_1222" x1="41.6355" y1="1.48" x2="20.7052" y2="32.5293" gradientUnits="userSpaceOnUse">
<stop stop-color="#3C00D7"/>
<stop offset="1" stop-color="#7500DF"/>
</linearGradient>
<linearGradient id="paint3_linear_1109_1222" x1="40" y1="6" x2="29.5" y2="20" gradientUnits="userSpaceOnUse">
<stop stop-color="#FFE77E"/>
<stop offset="1" stop-color="#FFAE00"/>
</linearGradient>
</defs>
</svg>
