<svg width="23" height="14" viewBox="0 0 23 14" fill="none" xmlns="http://www.w3.org/2000/svg">
<path d="M0 7C0 3.13401 3.13401 0 7 0H16C19.866 0 23 3.13401 23 7C23 10.866 19.866 14 16 14H7C3.13401 14 0 10.866 0 7Z" fill="url(#paint0_linear_4595_8901)"/>
<path d="M7 0.5H16C19.5899 0.5 22.5 3.41015 22.5 7C22.5 10.5899 19.5899 13.5 16 13.5H7C3.41015 13.5 0.5 10.5899 0.5 7C0.5 3.41015 3.41015 0.5 7 0.5Z" stroke="white" stroke-opacity="0.3"/>
<path d="M2 7C2 4.23858 4.23858 2 7 2H16C18.7614 2 21 4.23858 21 7C21 9.76142 18.7614 12 16 12H7C4.23858 12 2 9.76142 2 7Z" fill="url(#paint1_linear_4595_8901)"/>
<path d="M7 2.25H16C18.6234 2.25 20.75 4.37665 20.75 7C20.75 9.62335 18.6234 11.75 16 11.75H7C4.37665 11.75 2.25 9.62335 2.25 7C2.25 4.37665 4.37665 2.25 7 2.25Z" stroke="white" stroke-opacity="0.5" stroke-width="0.5"/>
<path d="M11.568 4.416L9.52 10H8.16L6.112 4.416H7.312L8.848 8.856L10.376 4.416H11.568ZM12.1275 5.704C12.1542 5.17067 12.3408 4.76 12.6875 4.472C13.0395 4.17867 13.5008 4.032 14.0715 4.032C14.4608 4.032 14.7942 4.10133 15.0715 4.24C15.3488 4.37333 15.5568 4.55733 15.6955 4.792C15.8395 5.02133 15.9115 5.28267 15.9115 5.576C15.9115 5.912 15.8235 6.19733 15.6475 6.432C15.4768 6.66133 15.2715 6.816 15.0315 6.896V6.928C15.3408 7.024 15.5808 7.19467 15.7515 7.44C15.9275 7.68533 16.0155 8 16.0155 8.384C16.0155 8.704 15.9408 8.98933 15.7915 9.24C15.6475 9.49067 15.4315 9.688 15.1435 9.832C14.8608 9.97067 14.5195 10.04 14.1195 10.04C13.5168 10.04 13.0262 9.888 12.6475 9.584C12.2688 9.28 12.0688 8.832 12.0475 8.24H13.1355C13.1462 8.50133 13.2342 8.712 13.3995 8.872C13.5702 9.02667 13.8022 9.104 14.0955 9.104C14.3675 9.104 14.5755 9.02933 14.7195 8.88C14.8688 8.72533 14.9435 8.528 14.9435 8.288C14.9435 7.968 14.8422 7.73867 14.6395 7.6C14.4368 7.46133 14.1222 7.392 13.6955 7.392H13.4635V6.472H13.6955C14.4528 6.472 14.8315 6.21867 14.8315 5.712C14.8315 5.48267 14.7622 5.304 14.6235 5.176C14.4902 5.048 14.2955 4.984 14.0395 4.984C13.7888 4.984 13.5942 5.05333 13.4555 5.192C13.3222 5.32533 13.2448 5.496 13.2235 5.704H12.1275Z" fill="white"/>
<defs>
<linearGradient id="paint0_linear_4595_8901" x1="-2.11616e-08" y1="8.3125" x2="17.8733" y2="-1.25993" gradientUnits="userSpaceOnUse">
<stop stop-color="#A200FF"/>
<stop offset="1" stop-color="#5900FF"/>
</linearGradient>
<linearGradient id="paint1_linear_4595_8901" x1="2" y1="7.9375" x2="15.7317" y2="-0.567942" gradientUnits="userSpaceOnUse">
<stop stop-color="#A200FF"/>
<stop offset="1" stop-color="#5900FF"/>
</linearGradient>
</defs>
</svg>
