<svg width="24" height="24" viewBox="0 0 24 24" fill="none" xmlns="http://www.w3.org/2000/svg">
    <path
        d="M0 4C0 1.79086 1.79086 0 4 0H20C22.2091 0 24 1.79086 24 4V20C24 22.2091 22.2091 24 20 24H4C1.79086 24 0 22.2091 0 20V4Z"
        fill="#443564" />
    <path
        d="M12 5C13.1046 5 14 5.89543 14 7V10H17C18.1046 10 19 10.8954 19 12C19 13.1046 18.1046 14 17 14H14V17C14 18.1046 13.1046 19 12 19C10.8954 19 10 18.1046 10 17V14H7C5.89543 14 5 13.1046 5 12C5 10.8954 5.89543 10 7 10H10V7C10 5.89543 10.8954 5 12 5Z"
        fill="currentColor" />
</svg>