<svg width="24" height="24" viewBox="0 0 24 24" fill="none" xmlns="http://www.w3.org/2000/svg">
    <rect width="24" height="24" rx="4" fill="#33254E" />
    <path
        d="M11.5645 6C9.9396 6 8.37972 6.65 7.20982 7.69L7.07983 6.65C7.07983 6.26 6.75486 6 6.36489 6.065C5.97492 6.065 5.71494 6.39 5.77994 6.78L5.90993 8.535C5.97492 9.38 6.68986 10.03 7.53479 10.03H7.66478L9.41964 9.9C9.80961 9.9 10.0696 9.575 10.0046 9.185C10.0046 8.795 9.67962 8.535 9.28965 8.6L7.98976 8.665C8.96468 7.82 10.1996 7.3 11.4995 7.3C14.3592 7.3 16.699 9.64 16.699 12.5C16.699 15.36 14.3592 17.7 11.4995 17.7C8.6397 17.7 6.29989 15.36 6.29989 12.5C6.29989 12.11 6.03991 11.85 5.64995 11.85C5.25998 11.85 5 12.11 5 12.5C5 16.075 7.92476 19 11.4995 19C15.0742 19 17.9989 16.075 17.9989 12.5C18.0639 8.925 15.1392 6 11.5645 6Z"
        fill="currentColor" stroke="currentColor" />
</svg>